G04 #@! TF.GenerationSoftware,KiCad,Pcbnew,(5.1.5-0-10_14)*
G04 #@! TF.CreationDate,2020-01-04T14:18:12-08:00*
G04 #@! TF.ProjectId,Grits,47726974-732e-46b6-9963-61645f706362,rev?*
G04 #@! TF.SameCoordinates,Original*
G04 #@! TF.FileFunction,Soldermask,Top*
G04 #@! TF.FilePolarity,Negative*
%FSLAX46Y46*%
G04 Gerber Fmt 4.6, Leading zero omitted, Abs format (unit mm)*
G04 Created by KiCad (PCBNEW (5.1.5-0-10_14)) date 2020-01-04 14:18:12*
%MOMM*%
%LPD*%
G04 APERTURE LIST*
%ADD10C,0.100000*%
G04 APERTURE END LIST*
D10*
G36*
X136410721Y-114470174D02*
G01*
X136510995Y-114511709D01*
X136530886Y-114525000D01*
X136601242Y-114572010D01*
X136677990Y-114648758D01*
X136703076Y-114686302D01*
X136738291Y-114739005D01*
X136779826Y-114839279D01*
X136801000Y-114945730D01*
X136801000Y-115054270D01*
X136779826Y-115160721D01*
X136738291Y-115260995D01*
X136738290Y-115260996D01*
X136677990Y-115351242D01*
X136601242Y-115427990D01*
X136583242Y-115440017D01*
X136510995Y-115488291D01*
X136410721Y-115529826D01*
X136304270Y-115551000D01*
X136195730Y-115551000D01*
X136089279Y-115529826D01*
X135989005Y-115488291D01*
X135916758Y-115440017D01*
X135898758Y-115427990D01*
X135822010Y-115351242D01*
X135761710Y-115260996D01*
X135761709Y-115260995D01*
X135720174Y-115160721D01*
X135699000Y-115054270D01*
X135699000Y-114945730D01*
X135720174Y-114839279D01*
X135761709Y-114739005D01*
X135796924Y-114686302D01*
X135822010Y-114648758D01*
X135898758Y-114572010D01*
X135969114Y-114525000D01*
X135989005Y-114511709D01*
X136089279Y-114470174D01*
X136195730Y-114449000D01*
X136304270Y-114449000D01*
X136410721Y-114470174D01*
G37*
G36*
X145304591Y-114478085D02*
G01*
X145338569Y-114488393D01*
X145369890Y-114505134D01*
X145397339Y-114527661D01*
X145419866Y-114555110D01*
X145436607Y-114586431D01*
X145446915Y-114620409D01*
X145451000Y-114661890D01*
X145451000Y-115338110D01*
X145446915Y-115379591D01*
X145436607Y-115413569D01*
X145419866Y-115444890D01*
X145397339Y-115472339D01*
X145369890Y-115494866D01*
X145338569Y-115511607D01*
X145304591Y-115521915D01*
X145263110Y-115526000D01*
X144661890Y-115526000D01*
X144620409Y-115521915D01*
X144586431Y-115511607D01*
X144555110Y-115494866D01*
X144527661Y-115472339D01*
X144505134Y-115444890D01*
X144488393Y-115413569D01*
X144478085Y-115379591D01*
X144474000Y-115338110D01*
X144474000Y-114661890D01*
X144478085Y-114620409D01*
X144488393Y-114586431D01*
X144505134Y-114555110D01*
X144527661Y-114527661D01*
X144555110Y-114505134D01*
X144586431Y-114488393D01*
X144620409Y-114478085D01*
X144661890Y-114474000D01*
X145263110Y-114474000D01*
X145304591Y-114478085D01*
G37*
G36*
X143629591Y-114478085D02*
G01*
X143663569Y-114488393D01*
X143694890Y-114505134D01*
X143722339Y-114527661D01*
X143744866Y-114555110D01*
X143761607Y-114586431D01*
X143771915Y-114620409D01*
X143776000Y-114661890D01*
X143776000Y-115338110D01*
X143771915Y-115379591D01*
X143761607Y-115413569D01*
X143744866Y-115444890D01*
X143722339Y-115472339D01*
X143694890Y-115494866D01*
X143663569Y-115511607D01*
X143629591Y-115521915D01*
X143588110Y-115526000D01*
X142986890Y-115526000D01*
X142945409Y-115521915D01*
X142911431Y-115511607D01*
X142880110Y-115494866D01*
X142852661Y-115472339D01*
X142830134Y-115444890D01*
X142813393Y-115413569D01*
X142803085Y-115379591D01*
X142799000Y-115338110D01*
X142799000Y-114661890D01*
X142803085Y-114620409D01*
X142813393Y-114586431D01*
X142830134Y-114555110D01*
X142852661Y-114527661D01*
X142880110Y-114505134D01*
X142911431Y-114488393D01*
X142945409Y-114478085D01*
X142986890Y-114474000D01*
X143588110Y-114474000D01*
X143629591Y-114478085D01*
G37*
G36*
X142054591Y-114478085D02*
G01*
X142088569Y-114488393D01*
X142119890Y-114505134D01*
X142147339Y-114527661D01*
X142169866Y-114555110D01*
X142186607Y-114586431D01*
X142196915Y-114620409D01*
X142201000Y-114661890D01*
X142201000Y-115338110D01*
X142196915Y-115379591D01*
X142186607Y-115413569D01*
X142169866Y-115444890D01*
X142147339Y-115472339D01*
X142119890Y-115494866D01*
X142088569Y-115511607D01*
X142054591Y-115521915D01*
X142013110Y-115526000D01*
X141411890Y-115526000D01*
X141370409Y-115521915D01*
X141336431Y-115511607D01*
X141305110Y-115494866D01*
X141277661Y-115472339D01*
X141255134Y-115444890D01*
X141238393Y-115413569D01*
X141228085Y-115379591D01*
X141224000Y-115338110D01*
X141224000Y-114661890D01*
X141228085Y-114620409D01*
X141238393Y-114586431D01*
X141255134Y-114555110D01*
X141277661Y-114527661D01*
X141305110Y-114505134D01*
X141336431Y-114488393D01*
X141370409Y-114478085D01*
X141411890Y-114474000D01*
X142013110Y-114474000D01*
X142054591Y-114478085D01*
G37*
G36*
X140379591Y-114478085D02*
G01*
X140413569Y-114488393D01*
X140444890Y-114505134D01*
X140472339Y-114527661D01*
X140494866Y-114555110D01*
X140511607Y-114586431D01*
X140521915Y-114620409D01*
X140526000Y-114661890D01*
X140526000Y-115338110D01*
X140521915Y-115379591D01*
X140511607Y-115413569D01*
X140494866Y-115444890D01*
X140472339Y-115472339D01*
X140444890Y-115494866D01*
X140413569Y-115511607D01*
X140379591Y-115521915D01*
X140338110Y-115526000D01*
X139736890Y-115526000D01*
X139695409Y-115521915D01*
X139661431Y-115511607D01*
X139630110Y-115494866D01*
X139602661Y-115472339D01*
X139580134Y-115444890D01*
X139563393Y-115413569D01*
X139553085Y-115379591D01*
X139549000Y-115338110D01*
X139549000Y-114661890D01*
X139553085Y-114620409D01*
X139563393Y-114586431D01*
X139580134Y-114555110D01*
X139602661Y-114527661D01*
X139630110Y-114505134D01*
X139661431Y-114488393D01*
X139695409Y-114478085D01*
X139736890Y-114474000D01*
X140338110Y-114474000D01*
X140379591Y-114478085D01*
G37*
G36*
X138804591Y-114478085D02*
G01*
X138838569Y-114488393D01*
X138869890Y-114505134D01*
X138897339Y-114527661D01*
X138919866Y-114555110D01*
X138936607Y-114586431D01*
X138946915Y-114620409D01*
X138951000Y-114661890D01*
X138951000Y-115338110D01*
X138946915Y-115379591D01*
X138936607Y-115413569D01*
X138919866Y-115444890D01*
X138897339Y-115472339D01*
X138869890Y-115494866D01*
X138838569Y-115511607D01*
X138804591Y-115521915D01*
X138763110Y-115526000D01*
X138161890Y-115526000D01*
X138120409Y-115521915D01*
X138086431Y-115511607D01*
X138055110Y-115494866D01*
X138027661Y-115472339D01*
X138005134Y-115444890D01*
X137988393Y-115413569D01*
X137978085Y-115379591D01*
X137974000Y-115338110D01*
X137974000Y-114661890D01*
X137978085Y-114620409D01*
X137988393Y-114586431D01*
X138005134Y-114555110D01*
X138027661Y-114527661D01*
X138055110Y-114505134D01*
X138086431Y-114488393D01*
X138120409Y-114478085D01*
X138161890Y-114474000D01*
X138763110Y-114474000D01*
X138804591Y-114478085D01*
G37*
G36*
X132379591Y-114478085D02*
G01*
X132413569Y-114488393D01*
X132444890Y-114505134D01*
X132472339Y-114527661D01*
X132494866Y-114555110D01*
X132511607Y-114586431D01*
X132521915Y-114620409D01*
X132526000Y-114661890D01*
X132526000Y-115338110D01*
X132521915Y-115379591D01*
X132511607Y-115413569D01*
X132494866Y-115444890D01*
X132472339Y-115472339D01*
X132444890Y-115494866D01*
X132413569Y-115511607D01*
X132379591Y-115521915D01*
X132338110Y-115526000D01*
X131736890Y-115526000D01*
X131695409Y-115521915D01*
X131661431Y-115511607D01*
X131630110Y-115494866D01*
X131602661Y-115472339D01*
X131580134Y-115444890D01*
X131563393Y-115413569D01*
X131553085Y-115379591D01*
X131549000Y-115338110D01*
X131549000Y-114661890D01*
X131553085Y-114620409D01*
X131563393Y-114586431D01*
X131580134Y-114555110D01*
X131602661Y-114527661D01*
X131630110Y-114505134D01*
X131661431Y-114488393D01*
X131695409Y-114478085D01*
X131736890Y-114474000D01*
X132338110Y-114474000D01*
X132379591Y-114478085D01*
G37*
G36*
X130804591Y-114478085D02*
G01*
X130838569Y-114488393D01*
X130869890Y-114505134D01*
X130897339Y-114527661D01*
X130919866Y-114555110D01*
X130936607Y-114586431D01*
X130946915Y-114620409D01*
X130951000Y-114661890D01*
X130951000Y-115338110D01*
X130946915Y-115379591D01*
X130936607Y-115413569D01*
X130919866Y-115444890D01*
X130897339Y-115472339D01*
X130869890Y-115494866D01*
X130838569Y-115511607D01*
X130804591Y-115521915D01*
X130763110Y-115526000D01*
X130161890Y-115526000D01*
X130120409Y-115521915D01*
X130086431Y-115511607D01*
X130055110Y-115494866D01*
X130027661Y-115472339D01*
X130005134Y-115444890D01*
X129988393Y-115413569D01*
X129978085Y-115379591D01*
X129974000Y-115338110D01*
X129974000Y-114661890D01*
X129978085Y-114620409D01*
X129988393Y-114586431D01*
X130005134Y-114555110D01*
X130027661Y-114527661D01*
X130055110Y-114505134D01*
X130086431Y-114488393D01*
X130120409Y-114478085D01*
X130161890Y-114474000D01*
X130763110Y-114474000D01*
X130804591Y-114478085D01*
G37*
G36*
X146879591Y-114478085D02*
G01*
X146913569Y-114488393D01*
X146944890Y-114505134D01*
X146972339Y-114527661D01*
X146994866Y-114555110D01*
X147011607Y-114586431D01*
X147021915Y-114620409D01*
X147026000Y-114661890D01*
X147026000Y-115338110D01*
X147021915Y-115379591D01*
X147011607Y-115413569D01*
X146994866Y-115444890D01*
X146972339Y-115472339D01*
X146944890Y-115494866D01*
X146913569Y-115511607D01*
X146879591Y-115521915D01*
X146838110Y-115526000D01*
X146236890Y-115526000D01*
X146195409Y-115521915D01*
X146161431Y-115511607D01*
X146130110Y-115494866D01*
X146102661Y-115472339D01*
X146080134Y-115444890D01*
X146063393Y-115413569D01*
X146053085Y-115379591D01*
X146049000Y-115338110D01*
X146049000Y-114661890D01*
X146053085Y-114620409D01*
X146063393Y-114586431D01*
X146080134Y-114555110D01*
X146102661Y-114527661D01*
X146130110Y-114505134D01*
X146161431Y-114488393D01*
X146195409Y-114478085D01*
X146236890Y-114474000D01*
X146838110Y-114474000D01*
X146879591Y-114478085D01*
G37*
G36*
X152309468Y-114003565D02*
G01*
X152348138Y-114015296D01*
X152383777Y-114034346D01*
X152415017Y-114059983D01*
X152440654Y-114091223D01*
X152459704Y-114126862D01*
X152471435Y-114165532D01*
X152476000Y-114211888D01*
X152476000Y-115288112D01*
X152471435Y-115334468D01*
X152459704Y-115373138D01*
X152440654Y-115408777D01*
X152415017Y-115440017D01*
X152383777Y-115465654D01*
X152348138Y-115484704D01*
X152309468Y-115496435D01*
X152263112Y-115501000D01*
X151611888Y-115501000D01*
X151565532Y-115496435D01*
X151526862Y-115484704D01*
X151491223Y-115465654D01*
X151459983Y-115440017D01*
X151434346Y-115408777D01*
X151415296Y-115373138D01*
X151403565Y-115334468D01*
X151399000Y-115288112D01*
X151399000Y-114211888D01*
X151403565Y-114165532D01*
X151415296Y-114126862D01*
X151434346Y-114091223D01*
X151459983Y-114059983D01*
X151491223Y-114034346D01*
X151526862Y-114015296D01*
X151565532Y-114003565D01*
X151611888Y-113999000D01*
X152263112Y-113999000D01*
X152309468Y-114003565D01*
G37*
G36*
X150434468Y-114003565D02*
G01*
X150473138Y-114015296D01*
X150508777Y-114034346D01*
X150540017Y-114059983D01*
X150565654Y-114091223D01*
X150584704Y-114126862D01*
X150596435Y-114165532D01*
X150601000Y-114211888D01*
X150601000Y-115288112D01*
X150596435Y-115334468D01*
X150584704Y-115373138D01*
X150565654Y-115408777D01*
X150540017Y-115440017D01*
X150508777Y-115465654D01*
X150473138Y-115484704D01*
X150434468Y-115496435D01*
X150388112Y-115501000D01*
X149736888Y-115501000D01*
X149690532Y-115496435D01*
X149651862Y-115484704D01*
X149616223Y-115465654D01*
X149584983Y-115440017D01*
X149559346Y-115408777D01*
X149540296Y-115373138D01*
X149528565Y-115334468D01*
X149524000Y-115288112D01*
X149524000Y-114211888D01*
X149528565Y-114165532D01*
X149540296Y-114126862D01*
X149559346Y-114091223D01*
X149584983Y-114059983D01*
X149616223Y-114034346D01*
X149651862Y-114015296D01*
X149690532Y-114003565D01*
X149736888Y-113999000D01*
X150388112Y-113999000D01*
X150434468Y-114003565D01*
G37*
G36*
X160329434Y-114178686D02*
G01*
X160369284Y-114190774D01*
X160405999Y-114210399D01*
X160438186Y-114236814D01*
X160464601Y-114269001D01*
X160484226Y-114305716D01*
X160496314Y-114345566D01*
X160501000Y-114393141D01*
X160501000Y-115056859D01*
X160496314Y-115104434D01*
X160484226Y-115144284D01*
X160464601Y-115180999D01*
X160438186Y-115213186D01*
X160405999Y-115239601D01*
X160369284Y-115259226D01*
X160329434Y-115271314D01*
X160281859Y-115276000D01*
X157918141Y-115276000D01*
X157870566Y-115271314D01*
X157830716Y-115259226D01*
X157794001Y-115239601D01*
X157761814Y-115213186D01*
X157735399Y-115180999D01*
X157715774Y-115144284D01*
X157703686Y-115104434D01*
X157699000Y-115056859D01*
X157699000Y-114393141D01*
X157703686Y-114345566D01*
X157715774Y-114305716D01*
X157735399Y-114269001D01*
X157761814Y-114236814D01*
X157794001Y-114210399D01*
X157830716Y-114190774D01*
X157870566Y-114178686D01*
X157918141Y-114174000D01*
X160281859Y-114174000D01*
X160329434Y-114178686D01*
G37*
G36*
X124429802Y-112775723D02*
G01*
X124439225Y-112778581D01*
X124439227Y-112778582D01*
X124447913Y-112783225D01*
X124447914Y-112783226D01*
X124447916Y-112783227D01*
X124463209Y-112795778D01*
X124483583Y-112809392D01*
X124506222Y-112818770D01*
X124530255Y-112823551D01*
X124542509Y-112824153D01*
X126263859Y-112824153D01*
X126279802Y-112825723D01*
X126289225Y-112828581D01*
X126289227Y-112828582D01*
X126297913Y-112833225D01*
X126297914Y-112833226D01*
X126297916Y-112833227D01*
X126305527Y-112839473D01*
X126311374Y-112846598D01*
X126311775Y-112847087D01*
X126315363Y-112853800D01*
X126316419Y-112855775D01*
X126319277Y-112865198D01*
X126320847Y-112881141D01*
X126320847Y-115118859D01*
X126320242Y-115125000D01*
X126319277Y-115134802D01*
X126316418Y-115144227D01*
X126316388Y-115144284D01*
X126311773Y-115152916D01*
X126305527Y-115160527D01*
X126297916Y-115166773D01*
X126297914Y-115166774D01*
X126297913Y-115166775D01*
X126294014Y-115168859D01*
X126289225Y-115171419D01*
X126279802Y-115174277D01*
X126263859Y-115175847D01*
X124542509Y-115175847D01*
X124518123Y-115178249D01*
X124494674Y-115185362D01*
X124473063Y-115196913D01*
X124463209Y-115204222D01*
X124447916Y-115216773D01*
X124447914Y-115216774D01*
X124447913Y-115216775D01*
X124439227Y-115221418D01*
X124439225Y-115221419D01*
X124429802Y-115224277D01*
X124413859Y-115225847D01*
X123806141Y-115225847D01*
X123790198Y-115224277D01*
X123780775Y-115221419D01*
X123780773Y-115221418D01*
X123772087Y-115216775D01*
X123772086Y-115216774D01*
X123772084Y-115216773D01*
X123764473Y-115210527D01*
X123758227Y-115202916D01*
X123753581Y-115194225D01*
X123750723Y-115184802D01*
X123749153Y-115168859D01*
X123749153Y-114781141D01*
X123750723Y-114765198D01*
X123753581Y-114755775D01*
X123758227Y-114747084D01*
X123771612Y-114730774D01*
X123773075Y-114729312D01*
X123786691Y-114708939D01*
X123796072Y-114686302D01*
X123800855Y-114662269D01*
X123800859Y-114637765D01*
X123796082Y-114613731D01*
X123786707Y-114591091D01*
X123773096Y-114570715D01*
X123771638Y-114569257D01*
X123758227Y-114552916D01*
X123753581Y-114544225D01*
X123750723Y-114534802D01*
X123749153Y-114518859D01*
X123749153Y-114131141D01*
X123750723Y-114115198D01*
X123753581Y-114105775D01*
X123753582Y-114105773D01*
X123758225Y-114097087D01*
X123758227Y-114097084D01*
X123771612Y-114080774D01*
X123773075Y-114079312D01*
X123786691Y-114058939D01*
X123796072Y-114036302D01*
X123800855Y-114012269D01*
X123800859Y-113987765D01*
X123796082Y-113963731D01*
X123786707Y-113941091D01*
X123773096Y-113920715D01*
X123771638Y-113919257D01*
X123758227Y-113902916D01*
X123753581Y-113894225D01*
X123750723Y-113884802D01*
X123749153Y-113868859D01*
X123749153Y-113481141D01*
X123750723Y-113465198D01*
X123753581Y-113455775D01*
X123754283Y-113454461D01*
X123758225Y-113447087D01*
X123760028Y-113444890D01*
X123771612Y-113430774D01*
X123773075Y-113429312D01*
X123786691Y-113408939D01*
X123796072Y-113386302D01*
X123800855Y-113362269D01*
X123800859Y-113337765D01*
X123796082Y-113313731D01*
X123786707Y-113291091D01*
X123773096Y-113270715D01*
X123771638Y-113269257D01*
X123758227Y-113252916D01*
X123753581Y-113244225D01*
X123750723Y-113234802D01*
X123749153Y-113218859D01*
X123749153Y-112831141D01*
X123750723Y-112815198D01*
X123753581Y-112805775D01*
X123753582Y-112805773D01*
X123758225Y-112797087D01*
X123759299Y-112795778D01*
X123764473Y-112789473D01*
X123772084Y-112783227D01*
X123772086Y-112783226D01*
X123772087Y-112783225D01*
X123780773Y-112778582D01*
X123780775Y-112778581D01*
X123790198Y-112775723D01*
X123806141Y-112774153D01*
X124413859Y-112774153D01*
X124429802Y-112775723D01*
G37*
G36*
X117584802Y-112775723D02*
G01*
X117594225Y-112778581D01*
X117594227Y-112778582D01*
X117602913Y-112783225D01*
X117602914Y-112783226D01*
X117602916Y-112783227D01*
X117618209Y-112795778D01*
X117638583Y-112809392D01*
X117661222Y-112818770D01*
X117685255Y-112823551D01*
X117697509Y-112824153D01*
X119418859Y-112824153D01*
X119434802Y-112825723D01*
X119444225Y-112828581D01*
X119444227Y-112828582D01*
X119452913Y-112833225D01*
X119452914Y-112833226D01*
X119452916Y-112833227D01*
X119460527Y-112839473D01*
X119466374Y-112846598D01*
X119466775Y-112847087D01*
X119470363Y-112853800D01*
X119471419Y-112855775D01*
X119474277Y-112865198D01*
X119475847Y-112881141D01*
X119475847Y-115118859D01*
X119475242Y-115125000D01*
X119474277Y-115134802D01*
X119471418Y-115144227D01*
X119471388Y-115144284D01*
X119466773Y-115152916D01*
X119460527Y-115160527D01*
X119452916Y-115166773D01*
X119452914Y-115166774D01*
X119452913Y-115166775D01*
X119449014Y-115168859D01*
X119444225Y-115171419D01*
X119434802Y-115174277D01*
X119418859Y-115175847D01*
X117697509Y-115175847D01*
X117673123Y-115178249D01*
X117649674Y-115185362D01*
X117628063Y-115196913D01*
X117618209Y-115204222D01*
X117602916Y-115216773D01*
X117602914Y-115216774D01*
X117602913Y-115216775D01*
X117594227Y-115221418D01*
X117594225Y-115221419D01*
X117584802Y-115224277D01*
X117568859Y-115225847D01*
X116961141Y-115225847D01*
X116945198Y-115224277D01*
X116935775Y-115221419D01*
X116935773Y-115221418D01*
X116927087Y-115216775D01*
X116927086Y-115216774D01*
X116927084Y-115216773D01*
X116919473Y-115210527D01*
X116913227Y-115202916D01*
X116908581Y-115194225D01*
X116905723Y-115184802D01*
X116904153Y-115168859D01*
X116904153Y-114781141D01*
X116905723Y-114765198D01*
X116908581Y-114755775D01*
X116913227Y-114747084D01*
X116926612Y-114730774D01*
X116928075Y-114729312D01*
X116941691Y-114708939D01*
X116951072Y-114686302D01*
X116955855Y-114662269D01*
X116955859Y-114637765D01*
X116951082Y-114613731D01*
X116941707Y-114591091D01*
X116928096Y-114570715D01*
X116926638Y-114569257D01*
X116913227Y-114552916D01*
X116908581Y-114544225D01*
X116905723Y-114534802D01*
X116904153Y-114518859D01*
X116904153Y-114131141D01*
X116905723Y-114115198D01*
X116908581Y-114105775D01*
X116908582Y-114105773D01*
X116913225Y-114097087D01*
X116913227Y-114097084D01*
X116926612Y-114080774D01*
X116928075Y-114079312D01*
X116941691Y-114058939D01*
X116951072Y-114036302D01*
X116955855Y-114012269D01*
X116955859Y-113987765D01*
X116951082Y-113963731D01*
X116941707Y-113941091D01*
X116928096Y-113920715D01*
X116926638Y-113919257D01*
X116913227Y-113902916D01*
X116908581Y-113894225D01*
X116905723Y-113884802D01*
X116904153Y-113868859D01*
X116904153Y-113481141D01*
X116905723Y-113465198D01*
X116908581Y-113455775D01*
X116909283Y-113454461D01*
X116913225Y-113447087D01*
X116915028Y-113444890D01*
X116926612Y-113430774D01*
X116928075Y-113429312D01*
X116941691Y-113408939D01*
X116951072Y-113386302D01*
X116955855Y-113362269D01*
X116955859Y-113337765D01*
X116951082Y-113313731D01*
X116941707Y-113291091D01*
X116928096Y-113270715D01*
X116926638Y-113269257D01*
X116913227Y-113252916D01*
X116908581Y-113244225D01*
X116905723Y-113234802D01*
X116904153Y-113218859D01*
X116904153Y-112831141D01*
X116905723Y-112815198D01*
X116908581Y-112805775D01*
X116908582Y-112805773D01*
X116913225Y-112797087D01*
X116914299Y-112795778D01*
X116919473Y-112789473D01*
X116927084Y-112783227D01*
X116927086Y-112783226D01*
X116927087Y-112783225D01*
X116935773Y-112778582D01*
X116935775Y-112778581D01*
X116945198Y-112775723D01*
X116961141Y-112774153D01*
X117568859Y-112774153D01*
X117584802Y-112775723D01*
G37*
G36*
X120905000Y-115225000D02*
G01*
X119975000Y-115225000D01*
X119975000Y-112775000D01*
X120905000Y-112775000D01*
X120905000Y-115225000D01*
G37*
G36*
X127750000Y-115225000D02*
G01*
X126820000Y-115225000D01*
X126820000Y-112775000D01*
X127750000Y-112775000D01*
X127750000Y-115225000D01*
G37*
G36*
X148629591Y-114053085D02*
G01*
X148663569Y-114063393D01*
X148694890Y-114080134D01*
X148722339Y-114102661D01*
X148744866Y-114130110D01*
X148761607Y-114161431D01*
X148771915Y-114195409D01*
X148776000Y-114236890D01*
X148776000Y-114838110D01*
X148771915Y-114879591D01*
X148761607Y-114913569D01*
X148744866Y-114944890D01*
X148722339Y-114972339D01*
X148694890Y-114994866D01*
X148663569Y-115011607D01*
X148629591Y-115021915D01*
X148588110Y-115026000D01*
X147911890Y-115026000D01*
X147870409Y-115021915D01*
X147836431Y-115011607D01*
X147805110Y-114994866D01*
X147777661Y-114972339D01*
X147755134Y-114944890D01*
X147738393Y-114913569D01*
X147728085Y-114879591D01*
X147724000Y-114838110D01*
X147724000Y-114236890D01*
X147728085Y-114195409D01*
X147738393Y-114161431D01*
X147755134Y-114130110D01*
X147777661Y-114102661D01*
X147805110Y-114080134D01*
X147836431Y-114063393D01*
X147870409Y-114053085D01*
X147911890Y-114049000D01*
X148588110Y-114049000D01*
X148629591Y-114053085D01*
G37*
G36*
X153879591Y-114053085D02*
G01*
X153913569Y-114063393D01*
X153944890Y-114080134D01*
X153972339Y-114102661D01*
X153994866Y-114130110D01*
X154011607Y-114161431D01*
X154021915Y-114195409D01*
X154026000Y-114236890D01*
X154026000Y-114838110D01*
X154021915Y-114879591D01*
X154011607Y-114913569D01*
X153994866Y-114944890D01*
X153972339Y-114972339D01*
X153944890Y-114994866D01*
X153913569Y-115011607D01*
X153879591Y-115021915D01*
X153838110Y-115026000D01*
X153161890Y-115026000D01*
X153120409Y-115021915D01*
X153086431Y-115011607D01*
X153055110Y-114994866D01*
X153027661Y-114972339D01*
X153005134Y-114944890D01*
X152988393Y-114913569D01*
X152978085Y-114879591D01*
X152974000Y-114838110D01*
X152974000Y-114236890D01*
X152978085Y-114195409D01*
X152988393Y-114161431D01*
X153005134Y-114130110D01*
X153027661Y-114102661D01*
X153055110Y-114080134D01*
X153086431Y-114063393D01*
X153120409Y-114053085D01*
X153161890Y-114049000D01*
X153838110Y-114049000D01*
X153879591Y-114053085D01*
G37*
G36*
X134629591Y-113303085D02*
G01*
X134663569Y-113313393D01*
X134694890Y-113330134D01*
X134722339Y-113352661D01*
X134744866Y-113380110D01*
X134761607Y-113411431D01*
X134771915Y-113445409D01*
X134776000Y-113486890D01*
X134776000Y-114088110D01*
X134771915Y-114129591D01*
X134761607Y-114163569D01*
X134744866Y-114194890D01*
X134722339Y-114222339D01*
X134694890Y-114244866D01*
X134663569Y-114261607D01*
X134629591Y-114271915D01*
X134588110Y-114276000D01*
X133911890Y-114276000D01*
X133870409Y-114271915D01*
X133836431Y-114261607D01*
X133805110Y-114244866D01*
X133777661Y-114222339D01*
X133755134Y-114194890D01*
X133738393Y-114163569D01*
X133728085Y-114129591D01*
X133724000Y-114088110D01*
X133724000Y-113486890D01*
X133728085Y-113445409D01*
X133738393Y-113411431D01*
X133755134Y-113380110D01*
X133777661Y-113352661D01*
X133805110Y-113330134D01*
X133836431Y-113313393D01*
X133870409Y-113303085D01*
X133911890Y-113299000D01*
X134588110Y-113299000D01*
X134629591Y-113303085D01*
G37*
G36*
X138405355Y-105975083D02*
G01*
X138410029Y-105976501D01*
X138414330Y-105978800D01*
X138420702Y-105984029D01*
X138441076Y-105997643D01*
X138463715Y-106007020D01*
X138487749Y-106011800D01*
X138512253Y-106011800D01*
X138536286Y-106007019D01*
X138558925Y-105997642D01*
X138579298Y-105984029D01*
X138585670Y-105978800D01*
X138589971Y-105976501D01*
X138594645Y-105975083D01*
X138605641Y-105974000D01*
X138894359Y-105974000D01*
X138905355Y-105975083D01*
X138910029Y-105976501D01*
X138914330Y-105978800D01*
X138920702Y-105984029D01*
X138941076Y-105997643D01*
X138963715Y-106007020D01*
X138987749Y-106011800D01*
X139012253Y-106011800D01*
X139036286Y-106007019D01*
X139058925Y-105997642D01*
X139079298Y-105984029D01*
X139085670Y-105978800D01*
X139089971Y-105976501D01*
X139094645Y-105975083D01*
X139105641Y-105974000D01*
X139394359Y-105974000D01*
X139405355Y-105975083D01*
X139410029Y-105976501D01*
X139414330Y-105978800D01*
X139420702Y-105984029D01*
X139441076Y-105997643D01*
X139463715Y-106007020D01*
X139487749Y-106011800D01*
X139512253Y-106011800D01*
X139536286Y-106007019D01*
X139558925Y-105997642D01*
X139579298Y-105984029D01*
X139585670Y-105978800D01*
X139589971Y-105976501D01*
X139594645Y-105975083D01*
X139605641Y-105974000D01*
X139894359Y-105974000D01*
X139905355Y-105975083D01*
X139910029Y-105976501D01*
X139914330Y-105978800D01*
X139920702Y-105984029D01*
X139941076Y-105997643D01*
X139963715Y-106007020D01*
X139987749Y-106011800D01*
X140012253Y-106011800D01*
X140036286Y-106007019D01*
X140058925Y-105997642D01*
X140079298Y-105984029D01*
X140085670Y-105978800D01*
X140089971Y-105976501D01*
X140094645Y-105975083D01*
X140105641Y-105974000D01*
X140394359Y-105974000D01*
X140405355Y-105975083D01*
X140410029Y-105976501D01*
X140414330Y-105978800D01*
X140420702Y-105984029D01*
X140441076Y-105997643D01*
X140463715Y-106007020D01*
X140487749Y-106011800D01*
X140512253Y-106011800D01*
X140536286Y-106007019D01*
X140558925Y-105997642D01*
X140579298Y-105984029D01*
X140585670Y-105978800D01*
X140589971Y-105976501D01*
X140594645Y-105975083D01*
X140605641Y-105974000D01*
X140894359Y-105974000D01*
X140905355Y-105975083D01*
X140910029Y-105976501D01*
X140914330Y-105978800D01*
X140920702Y-105984029D01*
X140941076Y-105997643D01*
X140963715Y-106007020D01*
X140987749Y-106011800D01*
X141012253Y-106011800D01*
X141036286Y-106007019D01*
X141058925Y-105997642D01*
X141079298Y-105984029D01*
X141085670Y-105978800D01*
X141089971Y-105976501D01*
X141094645Y-105975083D01*
X141105641Y-105974000D01*
X141394359Y-105974000D01*
X141405355Y-105975083D01*
X141410029Y-105976501D01*
X141414330Y-105978800D01*
X141420702Y-105984029D01*
X141441076Y-105997643D01*
X141463715Y-106007020D01*
X141487749Y-106011800D01*
X141512253Y-106011800D01*
X141536286Y-106007019D01*
X141558925Y-105997642D01*
X141579298Y-105984029D01*
X141585670Y-105978800D01*
X141589971Y-105976501D01*
X141594645Y-105975083D01*
X141605641Y-105974000D01*
X141894359Y-105974000D01*
X141905355Y-105975083D01*
X141910029Y-105976501D01*
X141914330Y-105978800D01*
X141920702Y-105984029D01*
X141941076Y-105997643D01*
X141963715Y-106007020D01*
X141987749Y-106011800D01*
X142012253Y-106011800D01*
X142036286Y-106007019D01*
X142058925Y-105997642D01*
X142079298Y-105984029D01*
X142085670Y-105978800D01*
X142089971Y-105976501D01*
X142094645Y-105975083D01*
X142105641Y-105974000D01*
X142394359Y-105974000D01*
X142405355Y-105975083D01*
X142410029Y-105976501D01*
X142414330Y-105978800D01*
X142420702Y-105984029D01*
X142441076Y-105997643D01*
X142463715Y-106007020D01*
X142487749Y-106011800D01*
X142512253Y-106011800D01*
X142536286Y-106007019D01*
X142558925Y-105997642D01*
X142579298Y-105984029D01*
X142585670Y-105978800D01*
X142589971Y-105976501D01*
X142594645Y-105975083D01*
X142605641Y-105974000D01*
X142894359Y-105974000D01*
X142905355Y-105975083D01*
X142910029Y-105976501D01*
X142914330Y-105978800D01*
X142920702Y-105984029D01*
X142941076Y-105997643D01*
X142963715Y-106007020D01*
X142987749Y-106011800D01*
X143012253Y-106011800D01*
X143036286Y-106007019D01*
X143058925Y-105997642D01*
X143079298Y-105984029D01*
X143085670Y-105978800D01*
X143089971Y-105976501D01*
X143094645Y-105975083D01*
X143105641Y-105974000D01*
X143394359Y-105974000D01*
X143405355Y-105975083D01*
X143410029Y-105976501D01*
X143414330Y-105978800D01*
X143420702Y-105984029D01*
X143441076Y-105997643D01*
X143463715Y-106007020D01*
X143487749Y-106011800D01*
X143512253Y-106011800D01*
X143536286Y-106007019D01*
X143558925Y-105997642D01*
X143579298Y-105984029D01*
X143585670Y-105978800D01*
X143589971Y-105976501D01*
X143594645Y-105975083D01*
X143605641Y-105974000D01*
X143894359Y-105974000D01*
X143905355Y-105975083D01*
X143910029Y-105976501D01*
X143914331Y-105978800D01*
X143918104Y-105981896D01*
X143921200Y-105985669D01*
X143923499Y-105989971D01*
X143924917Y-105994645D01*
X143926000Y-106005641D01*
X143926000Y-106849001D01*
X143928402Y-106873387D01*
X143935515Y-106896836D01*
X143947066Y-106918447D01*
X143962611Y-106937389D01*
X143981553Y-106952934D01*
X144003164Y-106964485D01*
X144026613Y-106971598D01*
X144050999Y-106974000D01*
X144894359Y-106974000D01*
X144905355Y-106975083D01*
X144910029Y-106976501D01*
X144914331Y-106978800D01*
X144918104Y-106981896D01*
X144921200Y-106985669D01*
X144923499Y-106989971D01*
X144924917Y-106994645D01*
X144926000Y-107005641D01*
X144926000Y-107294359D01*
X144924917Y-107305355D01*
X144923499Y-107310029D01*
X144921200Y-107314330D01*
X144915971Y-107320702D01*
X144902357Y-107341076D01*
X144892980Y-107363715D01*
X144888200Y-107387749D01*
X144888200Y-107412253D01*
X144892981Y-107436286D01*
X144902358Y-107458925D01*
X144915971Y-107479298D01*
X144921200Y-107485670D01*
X144923499Y-107489971D01*
X144924917Y-107494645D01*
X144926000Y-107505641D01*
X144926000Y-107794359D01*
X144924917Y-107805355D01*
X144923499Y-107810029D01*
X144921200Y-107814330D01*
X144915971Y-107820702D01*
X144902357Y-107841076D01*
X144892980Y-107863715D01*
X144888200Y-107887749D01*
X144888200Y-107912253D01*
X144892981Y-107936286D01*
X144902358Y-107958925D01*
X144915971Y-107979298D01*
X144921200Y-107985670D01*
X144923499Y-107989971D01*
X144924917Y-107994645D01*
X144926000Y-108005641D01*
X144926000Y-108294359D01*
X144924917Y-108305355D01*
X144923499Y-108310029D01*
X144921200Y-108314330D01*
X144915971Y-108320702D01*
X144902357Y-108341076D01*
X144892980Y-108363715D01*
X144888200Y-108387749D01*
X144888200Y-108412253D01*
X144892981Y-108436286D01*
X144902358Y-108458925D01*
X144915971Y-108479298D01*
X144921200Y-108485670D01*
X144923499Y-108489971D01*
X144924917Y-108494645D01*
X144926000Y-108505641D01*
X144926000Y-108794359D01*
X144924917Y-108805355D01*
X144923499Y-108810029D01*
X144921200Y-108814330D01*
X144915971Y-108820702D01*
X144902357Y-108841076D01*
X144892980Y-108863715D01*
X144888200Y-108887749D01*
X144888200Y-108912253D01*
X144892981Y-108936286D01*
X144902358Y-108958925D01*
X144915971Y-108979298D01*
X144921200Y-108985670D01*
X144923499Y-108989971D01*
X144924917Y-108994645D01*
X144926000Y-109005641D01*
X144926000Y-109294359D01*
X144924917Y-109305355D01*
X144923499Y-109310029D01*
X144921200Y-109314330D01*
X144915971Y-109320702D01*
X144902357Y-109341076D01*
X144892980Y-109363715D01*
X144888200Y-109387749D01*
X144888200Y-109412253D01*
X144892981Y-109436286D01*
X144902358Y-109458925D01*
X144915971Y-109479298D01*
X144921200Y-109485670D01*
X144923499Y-109489971D01*
X144924917Y-109494645D01*
X144926000Y-109505641D01*
X144926000Y-109794359D01*
X144924917Y-109805355D01*
X144923499Y-109810029D01*
X144921200Y-109814330D01*
X144915971Y-109820702D01*
X144902357Y-109841076D01*
X144892980Y-109863715D01*
X144888200Y-109887749D01*
X144888200Y-109912253D01*
X144892981Y-109936286D01*
X144902358Y-109958925D01*
X144915971Y-109979298D01*
X144921200Y-109985670D01*
X144923499Y-109989971D01*
X144924917Y-109994645D01*
X144926000Y-110005641D01*
X144926000Y-110294359D01*
X144924917Y-110305355D01*
X144923499Y-110310029D01*
X144921200Y-110314330D01*
X144915971Y-110320702D01*
X144902357Y-110341076D01*
X144892980Y-110363715D01*
X144888200Y-110387749D01*
X144888200Y-110412253D01*
X144892981Y-110436286D01*
X144902358Y-110458925D01*
X144915971Y-110479298D01*
X144921200Y-110485670D01*
X144923499Y-110489971D01*
X144924917Y-110494645D01*
X144926000Y-110505641D01*
X144926000Y-110794359D01*
X144924917Y-110805355D01*
X144923499Y-110810029D01*
X144921200Y-110814330D01*
X144915971Y-110820702D01*
X144902357Y-110841076D01*
X144892980Y-110863715D01*
X144888200Y-110887749D01*
X144888200Y-110912253D01*
X144892981Y-110936286D01*
X144902358Y-110958925D01*
X144915971Y-110979298D01*
X144921200Y-110985670D01*
X144923499Y-110989971D01*
X144924917Y-110994645D01*
X144926000Y-111005641D01*
X144926000Y-111294359D01*
X144924917Y-111305355D01*
X144923499Y-111310029D01*
X144921200Y-111314330D01*
X144915971Y-111320702D01*
X144902357Y-111341076D01*
X144892980Y-111363715D01*
X144888200Y-111387749D01*
X144888200Y-111412253D01*
X144892981Y-111436286D01*
X144902358Y-111458925D01*
X144915971Y-111479298D01*
X144921200Y-111485670D01*
X144923499Y-111489971D01*
X144924917Y-111494645D01*
X144926000Y-111505641D01*
X144926000Y-111794359D01*
X144924917Y-111805355D01*
X144923499Y-111810029D01*
X144921200Y-111814330D01*
X144915971Y-111820702D01*
X144902357Y-111841076D01*
X144892980Y-111863715D01*
X144888200Y-111887749D01*
X144888200Y-111912253D01*
X144892981Y-111936286D01*
X144902358Y-111958925D01*
X144915971Y-111979298D01*
X144921200Y-111985670D01*
X144923499Y-111989971D01*
X144924917Y-111994645D01*
X144926000Y-112005641D01*
X144926000Y-112294359D01*
X144924917Y-112305355D01*
X144923499Y-112310029D01*
X144921200Y-112314330D01*
X144915971Y-112320702D01*
X144902357Y-112341076D01*
X144892980Y-112363715D01*
X144888200Y-112387749D01*
X144888200Y-112412253D01*
X144892981Y-112436286D01*
X144902358Y-112458925D01*
X144915971Y-112479298D01*
X144921200Y-112485670D01*
X144923499Y-112489971D01*
X144924917Y-112494645D01*
X144926000Y-112505641D01*
X144926000Y-112794359D01*
X144924917Y-112805355D01*
X144923499Y-112810029D01*
X144921200Y-112814331D01*
X144918104Y-112818104D01*
X144914331Y-112821200D01*
X144910029Y-112823499D01*
X144905355Y-112824917D01*
X144894359Y-112826000D01*
X144050999Y-112826000D01*
X144026613Y-112828402D01*
X144003164Y-112835515D01*
X143981553Y-112847066D01*
X143962611Y-112862611D01*
X143947066Y-112881553D01*
X143935515Y-112903164D01*
X143928402Y-112926613D01*
X143926000Y-112950999D01*
X143926000Y-113794359D01*
X143924917Y-113805355D01*
X143923499Y-113810029D01*
X143921200Y-113814331D01*
X143918104Y-113818104D01*
X143914331Y-113821200D01*
X143910029Y-113823499D01*
X143905355Y-113824917D01*
X143894359Y-113826000D01*
X143605641Y-113826000D01*
X143594645Y-113824917D01*
X143589971Y-113823499D01*
X143585670Y-113821200D01*
X143579298Y-113815971D01*
X143558924Y-113802357D01*
X143536285Y-113792980D01*
X143512251Y-113788200D01*
X143487747Y-113788200D01*
X143463714Y-113792981D01*
X143441075Y-113802358D01*
X143420702Y-113815971D01*
X143414330Y-113821200D01*
X143410029Y-113823499D01*
X143405355Y-113824917D01*
X143394359Y-113826000D01*
X143105641Y-113826000D01*
X143094645Y-113824917D01*
X143089971Y-113823499D01*
X143085670Y-113821200D01*
X143079298Y-113815971D01*
X143058924Y-113802357D01*
X143036285Y-113792980D01*
X143012251Y-113788200D01*
X142987747Y-113788200D01*
X142963714Y-113792981D01*
X142941075Y-113802358D01*
X142920702Y-113815971D01*
X142914330Y-113821200D01*
X142910029Y-113823499D01*
X142905355Y-113824917D01*
X142894359Y-113826000D01*
X142605641Y-113826000D01*
X142594645Y-113824917D01*
X142589971Y-113823499D01*
X142585670Y-113821200D01*
X142579298Y-113815971D01*
X142558924Y-113802357D01*
X142536285Y-113792980D01*
X142512251Y-113788200D01*
X142487747Y-113788200D01*
X142463714Y-113792981D01*
X142441075Y-113802358D01*
X142420702Y-113815971D01*
X142414330Y-113821200D01*
X142410029Y-113823499D01*
X142405355Y-113824917D01*
X142394359Y-113826000D01*
X142105641Y-113826000D01*
X142094645Y-113824917D01*
X142089971Y-113823499D01*
X142085670Y-113821200D01*
X142079298Y-113815971D01*
X142058924Y-113802357D01*
X142036285Y-113792980D01*
X142012251Y-113788200D01*
X141987747Y-113788200D01*
X141963714Y-113792981D01*
X141941075Y-113802358D01*
X141920702Y-113815971D01*
X141914330Y-113821200D01*
X141910029Y-113823499D01*
X141905355Y-113824917D01*
X141894359Y-113826000D01*
X141605641Y-113826000D01*
X141594645Y-113824917D01*
X141589971Y-113823499D01*
X141585670Y-113821200D01*
X141579298Y-113815971D01*
X141558924Y-113802357D01*
X141536285Y-113792980D01*
X141512251Y-113788200D01*
X141487747Y-113788200D01*
X141463714Y-113792981D01*
X141441075Y-113802358D01*
X141420702Y-113815971D01*
X141414330Y-113821200D01*
X141410029Y-113823499D01*
X141405355Y-113824917D01*
X141394359Y-113826000D01*
X141105641Y-113826000D01*
X141094645Y-113824917D01*
X141089971Y-113823499D01*
X141085670Y-113821200D01*
X141079298Y-113815971D01*
X141058924Y-113802357D01*
X141036285Y-113792980D01*
X141012251Y-113788200D01*
X140987747Y-113788200D01*
X140963714Y-113792981D01*
X140941075Y-113802358D01*
X140920702Y-113815971D01*
X140914330Y-113821200D01*
X140910029Y-113823499D01*
X140905355Y-113824917D01*
X140894359Y-113826000D01*
X140605641Y-113826000D01*
X140594645Y-113824917D01*
X140589971Y-113823499D01*
X140585670Y-113821200D01*
X140579298Y-113815971D01*
X140558924Y-113802357D01*
X140536285Y-113792980D01*
X140512251Y-113788200D01*
X140487747Y-113788200D01*
X140463714Y-113792981D01*
X140441075Y-113802358D01*
X140420702Y-113815971D01*
X140414330Y-113821200D01*
X140410029Y-113823499D01*
X140405355Y-113824917D01*
X140394359Y-113826000D01*
X140105641Y-113826000D01*
X140094645Y-113824917D01*
X140089971Y-113823499D01*
X140085670Y-113821200D01*
X140079298Y-113815971D01*
X140058924Y-113802357D01*
X140036285Y-113792980D01*
X140012251Y-113788200D01*
X139987747Y-113788200D01*
X139963714Y-113792981D01*
X139941075Y-113802358D01*
X139920702Y-113815971D01*
X139914330Y-113821200D01*
X139910029Y-113823499D01*
X139905355Y-113824917D01*
X139894359Y-113826000D01*
X139605641Y-113826000D01*
X139594645Y-113824917D01*
X139589971Y-113823499D01*
X139585670Y-113821200D01*
X139579298Y-113815971D01*
X139558924Y-113802357D01*
X139536285Y-113792980D01*
X139512251Y-113788200D01*
X139487747Y-113788200D01*
X139463714Y-113792981D01*
X139441075Y-113802358D01*
X139420702Y-113815971D01*
X139414330Y-113821200D01*
X139410029Y-113823499D01*
X139405355Y-113824917D01*
X139394359Y-113826000D01*
X139105641Y-113826000D01*
X139094645Y-113824917D01*
X139089971Y-113823499D01*
X139085670Y-113821200D01*
X139079298Y-113815971D01*
X139058924Y-113802357D01*
X139036285Y-113792980D01*
X139012251Y-113788200D01*
X138987747Y-113788200D01*
X138963714Y-113792981D01*
X138941075Y-113802358D01*
X138920702Y-113815971D01*
X138914330Y-113821200D01*
X138910029Y-113823499D01*
X138905355Y-113824917D01*
X138894359Y-113826000D01*
X138605641Y-113826000D01*
X138594645Y-113824917D01*
X138589971Y-113823499D01*
X138585670Y-113821200D01*
X138579298Y-113815971D01*
X138558924Y-113802357D01*
X138536285Y-113792980D01*
X138512251Y-113788200D01*
X138487747Y-113788200D01*
X138463714Y-113792981D01*
X138441075Y-113802358D01*
X138420702Y-113815971D01*
X138414330Y-113821200D01*
X138410029Y-113823499D01*
X138405355Y-113824917D01*
X138394359Y-113826000D01*
X138105641Y-113826000D01*
X138094645Y-113824917D01*
X138089971Y-113823499D01*
X138085669Y-113821200D01*
X138081896Y-113818104D01*
X138078800Y-113814331D01*
X138076501Y-113810029D01*
X138075083Y-113805355D01*
X138074000Y-113794359D01*
X138074000Y-112950999D01*
X138071598Y-112926613D01*
X138064485Y-112903164D01*
X138052934Y-112881553D01*
X138037389Y-112862611D01*
X138018447Y-112847066D01*
X137996836Y-112835515D01*
X137973387Y-112828402D01*
X137949001Y-112826000D01*
X137105641Y-112826000D01*
X137094645Y-112824917D01*
X137089971Y-112823499D01*
X137085669Y-112821200D01*
X137081896Y-112818104D01*
X137078800Y-112814331D01*
X137076501Y-112810029D01*
X137075083Y-112805355D01*
X137074000Y-112794359D01*
X137074000Y-112505641D01*
X137075083Y-112494645D01*
X137076501Y-112489971D01*
X137078800Y-112485670D01*
X137084029Y-112479298D01*
X137097643Y-112458924D01*
X137107020Y-112436285D01*
X137111800Y-112412251D01*
X137111800Y-112387747D01*
X137107019Y-112363714D01*
X137097642Y-112341075D01*
X137084029Y-112320702D01*
X137078800Y-112314330D01*
X137076501Y-112310029D01*
X137075083Y-112305355D01*
X137074000Y-112294359D01*
X137074000Y-112005641D01*
X137075083Y-111994645D01*
X137076501Y-111989971D01*
X137078800Y-111985670D01*
X137084029Y-111979298D01*
X137097643Y-111958924D01*
X137107020Y-111936285D01*
X137111800Y-111912251D01*
X137111800Y-111887747D01*
X137107019Y-111863714D01*
X137097642Y-111841075D01*
X137084029Y-111820702D01*
X137078800Y-111814330D01*
X137076501Y-111810029D01*
X137075083Y-111805355D01*
X137074000Y-111794359D01*
X137074000Y-111505641D01*
X137075083Y-111494645D01*
X137076501Y-111489971D01*
X137078800Y-111485670D01*
X137084029Y-111479298D01*
X137097643Y-111458924D01*
X137107020Y-111436285D01*
X137111800Y-111412251D01*
X137111800Y-111387747D01*
X137107019Y-111363714D01*
X137097642Y-111341075D01*
X137084029Y-111320702D01*
X137078800Y-111314330D01*
X137076501Y-111310029D01*
X137075083Y-111305355D01*
X137074000Y-111294359D01*
X137074000Y-111005641D01*
X137075083Y-110994645D01*
X137076501Y-110989971D01*
X137078800Y-110985670D01*
X137084029Y-110979298D01*
X137097643Y-110958924D01*
X137107020Y-110936285D01*
X137111800Y-110912251D01*
X137111800Y-110887747D01*
X137107019Y-110863714D01*
X137097642Y-110841075D01*
X137084029Y-110820702D01*
X137078800Y-110814330D01*
X137076501Y-110810029D01*
X137075083Y-110805355D01*
X137074000Y-110794359D01*
X137074000Y-110505641D01*
X137075083Y-110494645D01*
X137076501Y-110489971D01*
X137078800Y-110485670D01*
X137084029Y-110479298D01*
X137097643Y-110458924D01*
X137107020Y-110436285D01*
X137111800Y-110412251D01*
X137111800Y-110387747D01*
X137107019Y-110363714D01*
X137097642Y-110341075D01*
X137084029Y-110320702D01*
X137078800Y-110314330D01*
X137076501Y-110310029D01*
X137075083Y-110305355D01*
X137074000Y-110294359D01*
X137074000Y-110005641D01*
X137075083Y-109994645D01*
X137076501Y-109989971D01*
X137078800Y-109985670D01*
X137084029Y-109979298D01*
X137097643Y-109958924D01*
X137107020Y-109936285D01*
X137111800Y-109912251D01*
X137111800Y-109887747D01*
X137107019Y-109863714D01*
X137097642Y-109841075D01*
X137084029Y-109820702D01*
X137078800Y-109814330D01*
X137076501Y-109810029D01*
X137075083Y-109805355D01*
X137074000Y-109794359D01*
X137074000Y-109505641D01*
X137075083Y-109494645D01*
X137076501Y-109489971D01*
X137078800Y-109485670D01*
X137084029Y-109479298D01*
X137097643Y-109458924D01*
X137107020Y-109436285D01*
X137111800Y-109412251D01*
X137111800Y-109387747D01*
X137107019Y-109363714D01*
X137097642Y-109341075D01*
X137084029Y-109320702D01*
X137078800Y-109314330D01*
X137076501Y-109310029D01*
X137075083Y-109305355D01*
X137074000Y-109294359D01*
X137074000Y-109005641D01*
X137075083Y-108994645D01*
X137076501Y-108989971D01*
X137078800Y-108985670D01*
X137084029Y-108979298D01*
X137097643Y-108958924D01*
X137107020Y-108936285D01*
X137111800Y-108912251D01*
X137111800Y-108887747D01*
X137107019Y-108863714D01*
X137097642Y-108841075D01*
X137084029Y-108820702D01*
X137078800Y-108814330D01*
X137076501Y-108810029D01*
X137075083Y-108805355D01*
X137074000Y-108794359D01*
X137074000Y-108505641D01*
X137075083Y-108494645D01*
X137076501Y-108489971D01*
X137078800Y-108485670D01*
X137084029Y-108479298D01*
X137097643Y-108458924D01*
X137107020Y-108436285D01*
X137111800Y-108412251D01*
X137111800Y-108387747D01*
X137107019Y-108363714D01*
X137097642Y-108341075D01*
X137084029Y-108320702D01*
X137078800Y-108314330D01*
X137076501Y-108310029D01*
X137075083Y-108305355D01*
X137074000Y-108294359D01*
X137074000Y-108005641D01*
X137075083Y-107994645D01*
X137076501Y-107989971D01*
X137078800Y-107985670D01*
X137084029Y-107979298D01*
X137097643Y-107958924D01*
X137107020Y-107936285D01*
X137111800Y-107912251D01*
X137111800Y-107887747D01*
X137107019Y-107863714D01*
X137097642Y-107841075D01*
X137084029Y-107820702D01*
X137078800Y-107814330D01*
X137076501Y-107810029D01*
X137075083Y-107805355D01*
X137074000Y-107794359D01*
X137074000Y-107505641D01*
X137075083Y-107494645D01*
X137076501Y-107489971D01*
X137078800Y-107485670D01*
X137084029Y-107479298D01*
X137097643Y-107458924D01*
X137107020Y-107436285D01*
X137111800Y-107412251D01*
X137111800Y-107387749D01*
X138013200Y-107387749D01*
X138013200Y-107412253D01*
X138017981Y-107436286D01*
X138027358Y-107458925D01*
X138040971Y-107479298D01*
X138046200Y-107485670D01*
X138048499Y-107489971D01*
X138049917Y-107494645D01*
X138051000Y-107505641D01*
X138051000Y-107794359D01*
X138049917Y-107805355D01*
X138048499Y-107810029D01*
X138046200Y-107814330D01*
X138040971Y-107820702D01*
X138027357Y-107841076D01*
X138017980Y-107863715D01*
X138013200Y-107887749D01*
X138013200Y-107912253D01*
X138017981Y-107936286D01*
X138027358Y-107958925D01*
X138040971Y-107979298D01*
X138046200Y-107985670D01*
X138048499Y-107989971D01*
X138049917Y-107994645D01*
X138051000Y-108005641D01*
X138051000Y-108294359D01*
X138049917Y-108305355D01*
X138048499Y-108310029D01*
X138046200Y-108314330D01*
X138040971Y-108320702D01*
X138027357Y-108341076D01*
X138017980Y-108363715D01*
X138013200Y-108387749D01*
X138013200Y-108412253D01*
X138017981Y-108436286D01*
X138027358Y-108458925D01*
X138040971Y-108479298D01*
X138046200Y-108485670D01*
X138048499Y-108489971D01*
X138049917Y-108494645D01*
X138051000Y-108505641D01*
X138051000Y-108794359D01*
X138049917Y-108805355D01*
X138048499Y-108810029D01*
X138046200Y-108814330D01*
X138040971Y-108820702D01*
X138027357Y-108841076D01*
X138017980Y-108863715D01*
X138013200Y-108887749D01*
X138013200Y-108912253D01*
X138017981Y-108936286D01*
X138027358Y-108958925D01*
X138040971Y-108979298D01*
X138046200Y-108985670D01*
X138048499Y-108989971D01*
X138049917Y-108994645D01*
X138051000Y-109005641D01*
X138051000Y-109294359D01*
X138049917Y-109305355D01*
X138048499Y-109310029D01*
X138046200Y-109314330D01*
X138040971Y-109320702D01*
X138027357Y-109341076D01*
X138017980Y-109363715D01*
X138013200Y-109387749D01*
X138013200Y-109412253D01*
X138017981Y-109436286D01*
X138027358Y-109458925D01*
X138040971Y-109479298D01*
X138046200Y-109485670D01*
X138048499Y-109489971D01*
X138049917Y-109494645D01*
X138051000Y-109505641D01*
X138051000Y-109794359D01*
X138049917Y-109805355D01*
X138048499Y-109810029D01*
X138046200Y-109814330D01*
X138040971Y-109820702D01*
X138027357Y-109841076D01*
X138017980Y-109863715D01*
X138013200Y-109887749D01*
X138013200Y-109912253D01*
X138017981Y-109936286D01*
X138027358Y-109958925D01*
X138040971Y-109979298D01*
X138046200Y-109985670D01*
X138048499Y-109989971D01*
X138049917Y-109994645D01*
X138051000Y-110005641D01*
X138051000Y-110294359D01*
X138049917Y-110305355D01*
X138048499Y-110310029D01*
X138046200Y-110314330D01*
X138040971Y-110320702D01*
X138027357Y-110341076D01*
X138017980Y-110363715D01*
X138013200Y-110387749D01*
X138013200Y-110412253D01*
X138017981Y-110436286D01*
X138027358Y-110458925D01*
X138040971Y-110479298D01*
X138046200Y-110485670D01*
X138048499Y-110489971D01*
X138049917Y-110494645D01*
X138051000Y-110505641D01*
X138051000Y-110794359D01*
X138049917Y-110805355D01*
X138048499Y-110810029D01*
X138046200Y-110814330D01*
X138040971Y-110820702D01*
X138027357Y-110841076D01*
X138017980Y-110863715D01*
X138013200Y-110887749D01*
X138013200Y-110912253D01*
X138017981Y-110936286D01*
X138027358Y-110958925D01*
X138040971Y-110979298D01*
X138046200Y-110985670D01*
X138048499Y-110989971D01*
X138049917Y-110994645D01*
X138051000Y-111005641D01*
X138051000Y-111294359D01*
X138049917Y-111305355D01*
X138048499Y-111310029D01*
X138046200Y-111314330D01*
X138040971Y-111320702D01*
X138027357Y-111341076D01*
X138017980Y-111363715D01*
X138013200Y-111387749D01*
X138013200Y-111412253D01*
X138017981Y-111436286D01*
X138027358Y-111458925D01*
X138040971Y-111479298D01*
X138046200Y-111485670D01*
X138048499Y-111489971D01*
X138049917Y-111494645D01*
X138051000Y-111505641D01*
X138051000Y-111794359D01*
X138049917Y-111805355D01*
X138048499Y-111810029D01*
X138046200Y-111814330D01*
X138040971Y-111820702D01*
X138027357Y-111841076D01*
X138017980Y-111863715D01*
X138013200Y-111887749D01*
X138013200Y-111912253D01*
X138017981Y-111936286D01*
X138027358Y-111958925D01*
X138040971Y-111979298D01*
X138046200Y-111985670D01*
X138048499Y-111989971D01*
X138049917Y-111994645D01*
X138051000Y-112005641D01*
X138051000Y-112294359D01*
X138049917Y-112305355D01*
X138048499Y-112310029D01*
X138046200Y-112314330D01*
X138040971Y-112320702D01*
X138027357Y-112341076D01*
X138017980Y-112363715D01*
X138013200Y-112387749D01*
X138013200Y-112412253D01*
X138017981Y-112436286D01*
X138027358Y-112458925D01*
X138040971Y-112479298D01*
X138046200Y-112485670D01*
X138048499Y-112489971D01*
X138049917Y-112494645D01*
X138051000Y-112505641D01*
X138051000Y-112724001D01*
X138053402Y-112748387D01*
X138060515Y-112771836D01*
X138072066Y-112793447D01*
X138087611Y-112812389D01*
X138106553Y-112827934D01*
X138128164Y-112839485D01*
X138151613Y-112846598D01*
X138175999Y-112849000D01*
X138394359Y-112849000D01*
X138405355Y-112850083D01*
X138410029Y-112851501D01*
X138414330Y-112853800D01*
X138420702Y-112859029D01*
X138441076Y-112872643D01*
X138463715Y-112882020D01*
X138487749Y-112886800D01*
X138512253Y-112886800D01*
X138536286Y-112882019D01*
X138558925Y-112872642D01*
X138579298Y-112859029D01*
X138585670Y-112853800D01*
X138589971Y-112851501D01*
X138594645Y-112850083D01*
X138605641Y-112849000D01*
X138894359Y-112849000D01*
X138905355Y-112850083D01*
X138910029Y-112851501D01*
X138914330Y-112853800D01*
X138920702Y-112859029D01*
X138941076Y-112872643D01*
X138963715Y-112882020D01*
X138987749Y-112886800D01*
X139012253Y-112886800D01*
X139036286Y-112882019D01*
X139058925Y-112872642D01*
X139079298Y-112859029D01*
X139085670Y-112853800D01*
X139089971Y-112851501D01*
X139094645Y-112850083D01*
X139105641Y-112849000D01*
X139394359Y-112849000D01*
X139405355Y-112850083D01*
X139410029Y-112851501D01*
X139414330Y-112853800D01*
X139420702Y-112859029D01*
X139441076Y-112872643D01*
X139463715Y-112882020D01*
X139487749Y-112886800D01*
X139512253Y-112886800D01*
X139536286Y-112882019D01*
X139558925Y-112872642D01*
X139579298Y-112859029D01*
X139585670Y-112853800D01*
X139589971Y-112851501D01*
X139594645Y-112850083D01*
X139605641Y-112849000D01*
X139894359Y-112849000D01*
X139905355Y-112850083D01*
X139910029Y-112851501D01*
X139914330Y-112853800D01*
X139920702Y-112859029D01*
X139941076Y-112872643D01*
X139963715Y-112882020D01*
X139987749Y-112886800D01*
X140012253Y-112886800D01*
X140036286Y-112882019D01*
X140058925Y-112872642D01*
X140079298Y-112859029D01*
X140085670Y-112853800D01*
X140089971Y-112851501D01*
X140094645Y-112850083D01*
X140105641Y-112849000D01*
X140394359Y-112849000D01*
X140405355Y-112850083D01*
X140410029Y-112851501D01*
X140414330Y-112853800D01*
X140420702Y-112859029D01*
X140441076Y-112872643D01*
X140463715Y-112882020D01*
X140487749Y-112886800D01*
X140512253Y-112886800D01*
X140536286Y-112882019D01*
X140558925Y-112872642D01*
X140579298Y-112859029D01*
X140585670Y-112853800D01*
X140589971Y-112851501D01*
X140594645Y-112850083D01*
X140605641Y-112849000D01*
X140894359Y-112849000D01*
X140905355Y-112850083D01*
X140910029Y-112851501D01*
X140914330Y-112853800D01*
X140920702Y-112859029D01*
X140941076Y-112872643D01*
X140963715Y-112882020D01*
X140987749Y-112886800D01*
X141012253Y-112886800D01*
X141036286Y-112882019D01*
X141058925Y-112872642D01*
X141079298Y-112859029D01*
X141085670Y-112853800D01*
X141089971Y-112851501D01*
X141094645Y-112850083D01*
X141105641Y-112849000D01*
X141394359Y-112849000D01*
X141405355Y-112850083D01*
X141410029Y-112851501D01*
X141414330Y-112853800D01*
X141420702Y-112859029D01*
X141441076Y-112872643D01*
X141463715Y-112882020D01*
X141487749Y-112886800D01*
X141512253Y-112886800D01*
X141536286Y-112882019D01*
X141558925Y-112872642D01*
X141579298Y-112859029D01*
X141585670Y-112853800D01*
X141589971Y-112851501D01*
X141594645Y-112850083D01*
X141605641Y-112849000D01*
X141894359Y-112849000D01*
X141905355Y-112850083D01*
X141910029Y-112851501D01*
X141914330Y-112853800D01*
X141920702Y-112859029D01*
X141941076Y-112872643D01*
X141963715Y-112882020D01*
X141987749Y-112886800D01*
X142012253Y-112886800D01*
X142036286Y-112882019D01*
X142058925Y-112872642D01*
X142079298Y-112859029D01*
X142085670Y-112853800D01*
X142089971Y-112851501D01*
X142094645Y-112850083D01*
X142105641Y-112849000D01*
X142394359Y-112849000D01*
X142405355Y-112850083D01*
X142410029Y-112851501D01*
X142414330Y-112853800D01*
X142420702Y-112859029D01*
X142441076Y-112872643D01*
X142463715Y-112882020D01*
X142487749Y-112886800D01*
X142512253Y-112886800D01*
X142536286Y-112882019D01*
X142558925Y-112872642D01*
X142579298Y-112859029D01*
X142585670Y-112853800D01*
X142589971Y-112851501D01*
X142594645Y-112850083D01*
X142605641Y-112849000D01*
X142894359Y-112849000D01*
X142905355Y-112850083D01*
X142910029Y-112851501D01*
X142914330Y-112853800D01*
X142920702Y-112859029D01*
X142941076Y-112872643D01*
X142963715Y-112882020D01*
X142987749Y-112886800D01*
X143012253Y-112886800D01*
X143036286Y-112882019D01*
X143058925Y-112872642D01*
X143079298Y-112859029D01*
X143085670Y-112853800D01*
X143089971Y-112851501D01*
X143094645Y-112850083D01*
X143105641Y-112849000D01*
X143394359Y-112849000D01*
X143405355Y-112850083D01*
X143410029Y-112851501D01*
X143414330Y-112853800D01*
X143420702Y-112859029D01*
X143441076Y-112872643D01*
X143463715Y-112882020D01*
X143487749Y-112886800D01*
X143512253Y-112886800D01*
X143536286Y-112882019D01*
X143558925Y-112872642D01*
X143579298Y-112859029D01*
X143585670Y-112853800D01*
X143589971Y-112851501D01*
X143594645Y-112850083D01*
X143605641Y-112849000D01*
X143824001Y-112849000D01*
X143848387Y-112846598D01*
X143871836Y-112839485D01*
X143893447Y-112827934D01*
X143912389Y-112812389D01*
X143927934Y-112793447D01*
X143939485Y-112771836D01*
X143946598Y-112748387D01*
X143949000Y-112724001D01*
X143949000Y-112505641D01*
X143950083Y-112494645D01*
X143951501Y-112489971D01*
X143953800Y-112485670D01*
X143959029Y-112479298D01*
X143972643Y-112458924D01*
X143982020Y-112436285D01*
X143986800Y-112412251D01*
X143986800Y-112387747D01*
X143982019Y-112363714D01*
X143972642Y-112341075D01*
X143959029Y-112320702D01*
X143953800Y-112314330D01*
X143951501Y-112310029D01*
X143950083Y-112305355D01*
X143949000Y-112294359D01*
X143949000Y-112005641D01*
X143950083Y-111994645D01*
X143951501Y-111989971D01*
X143953800Y-111985670D01*
X143959029Y-111979298D01*
X143972643Y-111958924D01*
X143982020Y-111936285D01*
X143986800Y-111912251D01*
X143986800Y-111887747D01*
X143982019Y-111863714D01*
X143972642Y-111841075D01*
X143959029Y-111820702D01*
X143953800Y-111814330D01*
X143951501Y-111810029D01*
X143950083Y-111805355D01*
X143949000Y-111794359D01*
X143949000Y-111505641D01*
X143950083Y-111494645D01*
X143951501Y-111489971D01*
X143953800Y-111485670D01*
X143959029Y-111479298D01*
X143972643Y-111458924D01*
X143982020Y-111436285D01*
X143986800Y-111412251D01*
X143986800Y-111387747D01*
X143982019Y-111363714D01*
X143972642Y-111341075D01*
X143959029Y-111320702D01*
X143953800Y-111314330D01*
X143951501Y-111310029D01*
X143950083Y-111305355D01*
X143949000Y-111294359D01*
X143949000Y-111005641D01*
X143950083Y-110994645D01*
X143951501Y-110989971D01*
X143953800Y-110985670D01*
X143959029Y-110979298D01*
X143972643Y-110958924D01*
X143982020Y-110936285D01*
X143986800Y-110912251D01*
X143986800Y-110887747D01*
X143982019Y-110863714D01*
X143972642Y-110841075D01*
X143959029Y-110820702D01*
X143953800Y-110814330D01*
X143951501Y-110810029D01*
X143950083Y-110805355D01*
X143949000Y-110794359D01*
X143949000Y-110505641D01*
X143950083Y-110494645D01*
X143951501Y-110489971D01*
X143953800Y-110485670D01*
X143959029Y-110479298D01*
X143972643Y-110458924D01*
X143982020Y-110436285D01*
X143986800Y-110412251D01*
X143986800Y-110387747D01*
X143982019Y-110363714D01*
X143972642Y-110341075D01*
X143959029Y-110320702D01*
X143953800Y-110314330D01*
X143951501Y-110310029D01*
X143950083Y-110305355D01*
X143949000Y-110294359D01*
X143949000Y-110005641D01*
X143950083Y-109994645D01*
X143951501Y-109989971D01*
X143953800Y-109985670D01*
X143959029Y-109979298D01*
X143972643Y-109958924D01*
X143982020Y-109936285D01*
X143986800Y-109912251D01*
X143986800Y-109887747D01*
X143982019Y-109863714D01*
X143972642Y-109841075D01*
X143959029Y-109820702D01*
X143953800Y-109814330D01*
X143951501Y-109810029D01*
X143950083Y-109805355D01*
X143949000Y-109794359D01*
X143949000Y-109505641D01*
X143950083Y-109494645D01*
X143951501Y-109489971D01*
X143953800Y-109485670D01*
X143959029Y-109479298D01*
X143972643Y-109458924D01*
X143982020Y-109436285D01*
X143986800Y-109412251D01*
X143986800Y-109387747D01*
X143982019Y-109363714D01*
X143972642Y-109341075D01*
X143959029Y-109320702D01*
X143953800Y-109314330D01*
X143951501Y-109310029D01*
X143950083Y-109305355D01*
X143949000Y-109294359D01*
X143949000Y-109005641D01*
X143950083Y-108994645D01*
X143951501Y-108989971D01*
X143953800Y-108985670D01*
X143959029Y-108979298D01*
X143972643Y-108958924D01*
X143982020Y-108936285D01*
X143986800Y-108912251D01*
X143986800Y-108887747D01*
X143982019Y-108863714D01*
X143972642Y-108841075D01*
X143959029Y-108820702D01*
X143953800Y-108814330D01*
X143951501Y-108810029D01*
X143950083Y-108805355D01*
X143949000Y-108794359D01*
X143949000Y-108505641D01*
X143950083Y-108494645D01*
X143951501Y-108489971D01*
X143953800Y-108485670D01*
X143959029Y-108479298D01*
X143972643Y-108458924D01*
X143982020Y-108436285D01*
X143986800Y-108412251D01*
X143986800Y-108387747D01*
X143982019Y-108363714D01*
X143972642Y-108341075D01*
X143959029Y-108320702D01*
X143953800Y-108314330D01*
X143951501Y-108310029D01*
X143950083Y-108305355D01*
X143949000Y-108294359D01*
X143949000Y-108005641D01*
X143950083Y-107994645D01*
X143951501Y-107989971D01*
X143953800Y-107985670D01*
X143959029Y-107979298D01*
X143972643Y-107958924D01*
X143982020Y-107936285D01*
X143986800Y-107912251D01*
X143986800Y-107887747D01*
X143982019Y-107863714D01*
X143972642Y-107841075D01*
X143959029Y-107820702D01*
X143953800Y-107814330D01*
X143951501Y-107810029D01*
X143950083Y-107805355D01*
X143949000Y-107794359D01*
X143949000Y-107505641D01*
X143950083Y-107494645D01*
X143951501Y-107489971D01*
X143953800Y-107485670D01*
X143959029Y-107479298D01*
X143972643Y-107458924D01*
X143982020Y-107436285D01*
X143986800Y-107412251D01*
X143986800Y-107387747D01*
X143982019Y-107363714D01*
X143972642Y-107341075D01*
X143959029Y-107320702D01*
X143953800Y-107314330D01*
X143951501Y-107310029D01*
X143950083Y-107305355D01*
X143949000Y-107294359D01*
X143949000Y-107075999D01*
X143946598Y-107051613D01*
X143939485Y-107028164D01*
X143927934Y-107006553D01*
X143912389Y-106987611D01*
X143893447Y-106972066D01*
X143871836Y-106960515D01*
X143848387Y-106953402D01*
X143824001Y-106951000D01*
X143605641Y-106951000D01*
X143594645Y-106949917D01*
X143589971Y-106948499D01*
X143585670Y-106946200D01*
X143579298Y-106940971D01*
X143558924Y-106927357D01*
X143536285Y-106917980D01*
X143512251Y-106913200D01*
X143487747Y-106913200D01*
X143463714Y-106917981D01*
X143441075Y-106927358D01*
X143420702Y-106940971D01*
X143414330Y-106946200D01*
X143410029Y-106948499D01*
X143405355Y-106949917D01*
X143394359Y-106951000D01*
X143105641Y-106951000D01*
X143094645Y-106949917D01*
X143089971Y-106948499D01*
X143085670Y-106946200D01*
X143079298Y-106940971D01*
X143058924Y-106927357D01*
X143036285Y-106917980D01*
X143012251Y-106913200D01*
X142987747Y-106913200D01*
X142963714Y-106917981D01*
X142941075Y-106927358D01*
X142920702Y-106940971D01*
X142914330Y-106946200D01*
X142910029Y-106948499D01*
X142905355Y-106949917D01*
X142894359Y-106951000D01*
X142605641Y-106951000D01*
X142594645Y-106949917D01*
X142589971Y-106948499D01*
X142585670Y-106946200D01*
X142579298Y-106940971D01*
X142558924Y-106927357D01*
X142536285Y-106917980D01*
X142512251Y-106913200D01*
X142487747Y-106913200D01*
X142463714Y-106917981D01*
X142441075Y-106927358D01*
X142420702Y-106940971D01*
X142414330Y-106946200D01*
X142410029Y-106948499D01*
X142405355Y-106949917D01*
X142394359Y-106951000D01*
X142105641Y-106951000D01*
X142094645Y-106949917D01*
X142089971Y-106948499D01*
X142085670Y-106946200D01*
X142079298Y-106940971D01*
X142058924Y-106927357D01*
X142036285Y-106917980D01*
X142012251Y-106913200D01*
X141987747Y-106913200D01*
X141963714Y-106917981D01*
X141941075Y-106927358D01*
X141920702Y-106940971D01*
X141914330Y-106946200D01*
X141910029Y-106948499D01*
X141905355Y-106949917D01*
X141894359Y-106951000D01*
X141605641Y-106951000D01*
X141594645Y-106949917D01*
X141589971Y-106948499D01*
X141585670Y-106946200D01*
X141579298Y-106940971D01*
X141558924Y-106927357D01*
X141536285Y-106917980D01*
X141512251Y-106913200D01*
X141487747Y-106913200D01*
X141463714Y-106917981D01*
X141441075Y-106927358D01*
X141420702Y-106940971D01*
X141414330Y-106946200D01*
X141410029Y-106948499D01*
X141405355Y-106949917D01*
X141394359Y-106951000D01*
X141105641Y-106951000D01*
X141094645Y-106949917D01*
X141089971Y-106948499D01*
X141085670Y-106946200D01*
X141079298Y-106940971D01*
X141058924Y-106927357D01*
X141036285Y-106917980D01*
X141012251Y-106913200D01*
X140987747Y-106913200D01*
X140963714Y-106917981D01*
X140941075Y-106927358D01*
X140920702Y-106940971D01*
X140914330Y-106946200D01*
X140910029Y-106948499D01*
X140905355Y-106949917D01*
X140894359Y-106951000D01*
X140605641Y-106951000D01*
X140594645Y-106949917D01*
X140589971Y-106948499D01*
X140585670Y-106946200D01*
X140579298Y-106940971D01*
X140558924Y-106927357D01*
X140536285Y-106917980D01*
X140512251Y-106913200D01*
X140487747Y-106913200D01*
X140463714Y-106917981D01*
X140441075Y-106927358D01*
X140420702Y-106940971D01*
X140414330Y-106946200D01*
X140410029Y-106948499D01*
X140405355Y-106949917D01*
X140394359Y-106951000D01*
X140105641Y-106951000D01*
X140094645Y-106949917D01*
X140089971Y-106948499D01*
X140085670Y-106946200D01*
X140079298Y-106940971D01*
X140058924Y-106927357D01*
X140036285Y-106917980D01*
X140012251Y-106913200D01*
X139987747Y-106913200D01*
X139963714Y-106917981D01*
X139941075Y-106927358D01*
X139920702Y-106940971D01*
X139914330Y-106946200D01*
X139910029Y-106948499D01*
X139905355Y-106949917D01*
X139894359Y-106951000D01*
X139605641Y-106951000D01*
X139594645Y-106949917D01*
X139589971Y-106948499D01*
X139585670Y-106946200D01*
X139579298Y-106940971D01*
X139558924Y-106927357D01*
X139536285Y-106917980D01*
X139512251Y-106913200D01*
X139487747Y-106913200D01*
X139463714Y-106917981D01*
X139441075Y-106927358D01*
X139420702Y-106940971D01*
X139414330Y-106946200D01*
X139410029Y-106948499D01*
X139405355Y-106949917D01*
X139394359Y-106951000D01*
X139105641Y-106951000D01*
X139094645Y-106949917D01*
X139089971Y-106948499D01*
X139085670Y-106946200D01*
X139079298Y-106940971D01*
X139058924Y-106927357D01*
X139036285Y-106917980D01*
X139012251Y-106913200D01*
X138987747Y-106913200D01*
X138963714Y-106917981D01*
X138941075Y-106927358D01*
X138920702Y-106940971D01*
X138914330Y-106946200D01*
X138910029Y-106948499D01*
X138905355Y-106949917D01*
X138894359Y-106951000D01*
X138605641Y-106951000D01*
X138594645Y-106949917D01*
X138589971Y-106948499D01*
X138585670Y-106946200D01*
X138579298Y-106940971D01*
X138558924Y-106927357D01*
X138536285Y-106917980D01*
X138512251Y-106913200D01*
X138487747Y-106913200D01*
X138463714Y-106917981D01*
X138441075Y-106927358D01*
X138420702Y-106940971D01*
X138414330Y-106946200D01*
X138410029Y-106948499D01*
X138405355Y-106949917D01*
X138394359Y-106951000D01*
X138175999Y-106951000D01*
X138151613Y-106953402D01*
X138128164Y-106960515D01*
X138106553Y-106972066D01*
X138087611Y-106987611D01*
X138072066Y-107006553D01*
X138060515Y-107028164D01*
X138053402Y-107051613D01*
X138051000Y-107075999D01*
X138051000Y-107294359D01*
X138049917Y-107305355D01*
X138048499Y-107310029D01*
X138046200Y-107314330D01*
X138040971Y-107320702D01*
X138027357Y-107341076D01*
X138017980Y-107363715D01*
X138013200Y-107387749D01*
X137111800Y-107387749D01*
X137111800Y-107387747D01*
X137107019Y-107363714D01*
X137097642Y-107341075D01*
X137084029Y-107320702D01*
X137078800Y-107314330D01*
X137076501Y-107310029D01*
X137075083Y-107305355D01*
X137074000Y-107294359D01*
X137074000Y-107005641D01*
X137075083Y-106994645D01*
X137076501Y-106989971D01*
X137078800Y-106985669D01*
X137081896Y-106981896D01*
X137085669Y-106978800D01*
X137089971Y-106976501D01*
X137094645Y-106975083D01*
X137105641Y-106974000D01*
X137949001Y-106974000D01*
X137973387Y-106971598D01*
X137996836Y-106964485D01*
X138018447Y-106952934D01*
X138037389Y-106937389D01*
X138052934Y-106918447D01*
X138064485Y-106896836D01*
X138071598Y-106873387D01*
X138074000Y-106849001D01*
X138074000Y-106005641D01*
X138075083Y-105994645D01*
X138076501Y-105989971D01*
X138078800Y-105985669D01*
X138081896Y-105981896D01*
X138085669Y-105978800D01*
X138089971Y-105976501D01*
X138094645Y-105975083D01*
X138105641Y-105974000D01*
X138394359Y-105974000D01*
X138405355Y-105975083D01*
G37*
G36*
X142427180Y-108450159D02*
G01*
X142432590Y-108451801D01*
X142437576Y-108454465D01*
X142441947Y-108458053D01*
X142445535Y-108462424D01*
X142448199Y-108467410D01*
X142449841Y-108472820D01*
X142451000Y-108484590D01*
X142451000Y-111315410D01*
X142449841Y-111327180D01*
X142448199Y-111332590D01*
X142445535Y-111337576D01*
X142441947Y-111341947D01*
X142437576Y-111345535D01*
X142432590Y-111348199D01*
X142427180Y-111349841D01*
X142415410Y-111351000D01*
X139584590Y-111351000D01*
X139572820Y-111349841D01*
X139567410Y-111348199D01*
X139562424Y-111345535D01*
X139558053Y-111341947D01*
X139554465Y-111337576D01*
X139551801Y-111332590D01*
X139550159Y-111327180D01*
X139549000Y-111315410D01*
X139549000Y-108484590D01*
X139550159Y-108472820D01*
X139551801Y-108467410D01*
X139554465Y-108462424D01*
X139558053Y-108458053D01*
X139562424Y-108454465D01*
X139567410Y-108451801D01*
X139572820Y-108450159D01*
X139584590Y-108449000D01*
X142415410Y-108449000D01*
X142427180Y-108450159D01*
G37*
G36*
X146879591Y-112803085D02*
G01*
X146913569Y-112813393D01*
X146944890Y-112830134D01*
X146972339Y-112852661D01*
X146994866Y-112880110D01*
X147011607Y-112911431D01*
X147021915Y-112945409D01*
X147026000Y-112986890D01*
X147026000Y-113588110D01*
X147021915Y-113629591D01*
X147011607Y-113663569D01*
X146994866Y-113694890D01*
X146972339Y-113722339D01*
X146944890Y-113744866D01*
X146913569Y-113761607D01*
X146879591Y-113771915D01*
X146838110Y-113776000D01*
X146161890Y-113776000D01*
X146120409Y-113771915D01*
X146086431Y-113761607D01*
X146055110Y-113744866D01*
X146027661Y-113722339D01*
X146005134Y-113694890D01*
X145988393Y-113663569D01*
X145978085Y-113629591D01*
X145974000Y-113588110D01*
X145974000Y-112986890D01*
X145978085Y-112945409D01*
X145988393Y-112911431D01*
X146005134Y-112880110D01*
X146027661Y-112852661D01*
X146055110Y-112830134D01*
X146086431Y-112813393D01*
X146120409Y-112803085D01*
X146161890Y-112799000D01*
X146838110Y-112799000D01*
X146879591Y-112803085D01*
G37*
G36*
X132379591Y-112478085D02*
G01*
X132413569Y-112488393D01*
X132444890Y-112505134D01*
X132472339Y-112527661D01*
X132494866Y-112555110D01*
X132511607Y-112586431D01*
X132521915Y-112620409D01*
X132526000Y-112661890D01*
X132526000Y-113338110D01*
X132521915Y-113379591D01*
X132511607Y-113413569D01*
X132494866Y-113444890D01*
X132472339Y-113472339D01*
X132444890Y-113494866D01*
X132413569Y-113511607D01*
X132379591Y-113521915D01*
X132338110Y-113526000D01*
X131736890Y-113526000D01*
X131695409Y-113521915D01*
X131661431Y-113511607D01*
X131630110Y-113494866D01*
X131602661Y-113472339D01*
X131580134Y-113444890D01*
X131563393Y-113413569D01*
X131553085Y-113379591D01*
X131549000Y-113338110D01*
X131549000Y-112661890D01*
X131553085Y-112620409D01*
X131563393Y-112586431D01*
X131580134Y-112555110D01*
X131602661Y-112527661D01*
X131630110Y-112505134D01*
X131661431Y-112488393D01*
X131695409Y-112478085D01*
X131736890Y-112474000D01*
X132338110Y-112474000D01*
X132379591Y-112478085D01*
G37*
G36*
X130804591Y-112478085D02*
G01*
X130838569Y-112488393D01*
X130869890Y-112505134D01*
X130897339Y-112527661D01*
X130919866Y-112555110D01*
X130936607Y-112586431D01*
X130946915Y-112620409D01*
X130951000Y-112661890D01*
X130951000Y-113338110D01*
X130946915Y-113379591D01*
X130936607Y-113413569D01*
X130919866Y-113444890D01*
X130897339Y-113472339D01*
X130869890Y-113494866D01*
X130838569Y-113511607D01*
X130804591Y-113521915D01*
X130763110Y-113526000D01*
X130161890Y-113526000D01*
X130120409Y-113521915D01*
X130086431Y-113511607D01*
X130055110Y-113494866D01*
X130027661Y-113472339D01*
X130005134Y-113444890D01*
X129988393Y-113413569D01*
X129978085Y-113379591D01*
X129974000Y-113338110D01*
X129974000Y-112661890D01*
X129978085Y-112620409D01*
X129988393Y-112586431D01*
X130005134Y-112555110D01*
X130027661Y-112527661D01*
X130055110Y-112505134D01*
X130086431Y-112488393D01*
X130120409Y-112478085D01*
X130161890Y-112474000D01*
X130763110Y-112474000D01*
X130804591Y-112478085D01*
G37*
G36*
X150434468Y-112003565D02*
G01*
X150473138Y-112015296D01*
X150508777Y-112034346D01*
X150540017Y-112059983D01*
X150565654Y-112091223D01*
X150584704Y-112126862D01*
X150596435Y-112165532D01*
X150601000Y-112211888D01*
X150601000Y-113288112D01*
X150596435Y-113334468D01*
X150584704Y-113373138D01*
X150565654Y-113408777D01*
X150540017Y-113440017D01*
X150508777Y-113465654D01*
X150473138Y-113484704D01*
X150434468Y-113496435D01*
X150388112Y-113501000D01*
X149736888Y-113501000D01*
X149690532Y-113496435D01*
X149651862Y-113484704D01*
X149616223Y-113465654D01*
X149584983Y-113440017D01*
X149559346Y-113408777D01*
X149540296Y-113373138D01*
X149528565Y-113334468D01*
X149524000Y-113288112D01*
X149524000Y-112211888D01*
X149528565Y-112165532D01*
X149540296Y-112126862D01*
X149559346Y-112091223D01*
X149584983Y-112059983D01*
X149616223Y-112034346D01*
X149651862Y-112015296D01*
X149690532Y-112003565D01*
X149736888Y-111999000D01*
X150388112Y-111999000D01*
X150434468Y-112003565D01*
G37*
G36*
X152309468Y-112003565D02*
G01*
X152348138Y-112015296D01*
X152383777Y-112034346D01*
X152415017Y-112059983D01*
X152440654Y-112091223D01*
X152459704Y-112126862D01*
X152471435Y-112165532D01*
X152476000Y-112211888D01*
X152476000Y-113288112D01*
X152471435Y-113334468D01*
X152459704Y-113373138D01*
X152440654Y-113408777D01*
X152415017Y-113440017D01*
X152383777Y-113465654D01*
X152348138Y-113484704D01*
X152309468Y-113496435D01*
X152263112Y-113501000D01*
X151611888Y-113501000D01*
X151565532Y-113496435D01*
X151526862Y-113484704D01*
X151491223Y-113465654D01*
X151459983Y-113440017D01*
X151434346Y-113408777D01*
X151415296Y-113373138D01*
X151403565Y-113334468D01*
X151399000Y-113288112D01*
X151399000Y-112211888D01*
X151403565Y-112165532D01*
X151415296Y-112126862D01*
X151434346Y-112091223D01*
X151459983Y-112059983D01*
X151491223Y-112034346D01*
X151526862Y-112015296D01*
X151565532Y-112003565D01*
X151611888Y-111999000D01*
X152263112Y-111999000D01*
X152309468Y-112003565D01*
G37*
G36*
X148629591Y-112478085D02*
G01*
X148663569Y-112488393D01*
X148694890Y-112505134D01*
X148722339Y-112527661D01*
X148744866Y-112555110D01*
X148761607Y-112586431D01*
X148771915Y-112620409D01*
X148776000Y-112661890D01*
X148776000Y-113263110D01*
X148771915Y-113304591D01*
X148761607Y-113338569D01*
X148744866Y-113369890D01*
X148722339Y-113397339D01*
X148694890Y-113419866D01*
X148663569Y-113436607D01*
X148629591Y-113446915D01*
X148588110Y-113451000D01*
X147911890Y-113451000D01*
X147870409Y-113446915D01*
X147836431Y-113436607D01*
X147805110Y-113419866D01*
X147777661Y-113397339D01*
X147755134Y-113369890D01*
X147738393Y-113338569D01*
X147728085Y-113304591D01*
X147724000Y-113263110D01*
X147724000Y-112661890D01*
X147728085Y-112620409D01*
X147738393Y-112586431D01*
X147755134Y-112555110D01*
X147777661Y-112527661D01*
X147805110Y-112505134D01*
X147836431Y-112488393D01*
X147870409Y-112478085D01*
X147911890Y-112474000D01*
X148588110Y-112474000D01*
X148629591Y-112478085D01*
G37*
G36*
X153879591Y-112478085D02*
G01*
X153913569Y-112488393D01*
X153944890Y-112505134D01*
X153972339Y-112527661D01*
X153994866Y-112555110D01*
X154011607Y-112586431D01*
X154021915Y-112620409D01*
X154026000Y-112661890D01*
X154026000Y-113263110D01*
X154021915Y-113304591D01*
X154011607Y-113338569D01*
X153994866Y-113369890D01*
X153972339Y-113397339D01*
X153944890Y-113419866D01*
X153913569Y-113436607D01*
X153879591Y-113446915D01*
X153838110Y-113451000D01*
X153161890Y-113451000D01*
X153120409Y-113446915D01*
X153086431Y-113436607D01*
X153055110Y-113419866D01*
X153027661Y-113397339D01*
X153005134Y-113369890D01*
X152988393Y-113338569D01*
X152978085Y-113304591D01*
X152974000Y-113263110D01*
X152974000Y-112661890D01*
X152978085Y-112620409D01*
X152988393Y-112586431D01*
X153005134Y-112555110D01*
X153027661Y-112527661D01*
X153055110Y-112505134D01*
X153086431Y-112488393D01*
X153120409Y-112478085D01*
X153161890Y-112474000D01*
X153838110Y-112474000D01*
X153879591Y-112478085D01*
G37*
G36*
X156709928Y-112526764D02*
G01*
X156731009Y-112533160D01*
X156750445Y-112543548D01*
X156767476Y-112557524D01*
X156781452Y-112574555D01*
X156791840Y-112593991D01*
X156798236Y-112615072D01*
X156801000Y-112643140D01*
X156801000Y-113106860D01*
X156798236Y-113134928D01*
X156791840Y-113156009D01*
X156781452Y-113175445D01*
X156767476Y-113192476D01*
X156750445Y-113206452D01*
X156731009Y-113216840D01*
X156709928Y-113223236D01*
X156681860Y-113226000D01*
X155118140Y-113226000D01*
X155090072Y-113223236D01*
X155068991Y-113216840D01*
X155049555Y-113206452D01*
X155032524Y-113192476D01*
X155018548Y-113175445D01*
X155008160Y-113156009D01*
X155001764Y-113134928D01*
X154999000Y-113106860D01*
X154999000Y-112643140D01*
X155001764Y-112615072D01*
X155008160Y-112593991D01*
X155018548Y-112574555D01*
X155032524Y-112557524D01*
X155049555Y-112543548D01*
X155068991Y-112533160D01*
X155090072Y-112526764D01*
X155118140Y-112524000D01*
X156681860Y-112524000D01*
X156709928Y-112526764D01*
G37*
G36*
X115233048Y-111453122D02*
G01*
X115267387Y-111463539D01*
X115299036Y-111480456D01*
X115326778Y-111503222D01*
X115349544Y-111530964D01*
X115366461Y-111562613D01*
X115376878Y-111596952D01*
X115381000Y-111638807D01*
X115381000Y-112861193D01*
X115376878Y-112903048D01*
X115366461Y-112937387D01*
X115349544Y-112969036D01*
X115326778Y-112996778D01*
X115299036Y-113019544D01*
X115267387Y-113036461D01*
X115233048Y-113046878D01*
X115191193Y-113051000D01*
X113448807Y-113051000D01*
X113406952Y-113046878D01*
X113372613Y-113036461D01*
X113340964Y-113019544D01*
X113313222Y-112996778D01*
X113290456Y-112969036D01*
X113273539Y-112937387D01*
X113263122Y-112903048D01*
X113259000Y-112861193D01*
X113259000Y-111638807D01*
X113263122Y-111596952D01*
X113273539Y-111562613D01*
X113290456Y-111530964D01*
X113313222Y-111503222D01*
X113340964Y-111480456D01*
X113372613Y-111463539D01*
X113406952Y-111453122D01*
X113448807Y-111449000D01*
X115191193Y-111449000D01*
X115233048Y-111453122D01*
G37*
G36*
X134629591Y-111728085D02*
G01*
X134663569Y-111738393D01*
X134694890Y-111755134D01*
X134722339Y-111777661D01*
X134744866Y-111805110D01*
X134761607Y-111836431D01*
X134771915Y-111870409D01*
X134776000Y-111911890D01*
X134776000Y-112513110D01*
X134771915Y-112554591D01*
X134761607Y-112588569D01*
X134744866Y-112619890D01*
X134722339Y-112647339D01*
X134694890Y-112669866D01*
X134663569Y-112686607D01*
X134629591Y-112696915D01*
X134588110Y-112701000D01*
X133911890Y-112701000D01*
X133870409Y-112696915D01*
X133836431Y-112686607D01*
X133805110Y-112669866D01*
X133777661Y-112647339D01*
X133755134Y-112619890D01*
X133738393Y-112588569D01*
X133728085Y-112554591D01*
X133724000Y-112513110D01*
X133724000Y-111911890D01*
X133728085Y-111870409D01*
X133738393Y-111836431D01*
X133755134Y-111805110D01*
X133777661Y-111777661D01*
X133805110Y-111755134D01*
X133836431Y-111738393D01*
X133870409Y-111728085D01*
X133911890Y-111724000D01*
X134588110Y-111724000D01*
X134629591Y-111728085D01*
G37*
G36*
X146879591Y-111228085D02*
G01*
X146913569Y-111238393D01*
X146944890Y-111255134D01*
X146972339Y-111277661D01*
X146994866Y-111305110D01*
X147011607Y-111336431D01*
X147021915Y-111370409D01*
X147026000Y-111411890D01*
X147026000Y-112013110D01*
X147021915Y-112054591D01*
X147011607Y-112088569D01*
X146994866Y-112119890D01*
X146972339Y-112147339D01*
X146944890Y-112169866D01*
X146913569Y-112186607D01*
X146879591Y-112196915D01*
X146838110Y-112201000D01*
X146161890Y-112201000D01*
X146120409Y-112196915D01*
X146086431Y-112186607D01*
X146055110Y-112169866D01*
X146027661Y-112147339D01*
X146005134Y-112119890D01*
X145988393Y-112088569D01*
X145978085Y-112054591D01*
X145974000Y-112013110D01*
X145974000Y-111411890D01*
X145978085Y-111370409D01*
X145988393Y-111336431D01*
X146005134Y-111305110D01*
X146027661Y-111277661D01*
X146055110Y-111255134D01*
X146086431Y-111238393D01*
X146120409Y-111228085D01*
X146161890Y-111224000D01*
X146838110Y-111224000D01*
X146879591Y-111228085D01*
G37*
G36*
X156709928Y-111276764D02*
G01*
X156731009Y-111283160D01*
X156750445Y-111293548D01*
X156767476Y-111307524D01*
X156781452Y-111324555D01*
X156791840Y-111343991D01*
X156798236Y-111365072D01*
X156801000Y-111393140D01*
X156801000Y-111856860D01*
X156798236Y-111884928D01*
X156791840Y-111906009D01*
X156781452Y-111925445D01*
X156767476Y-111942476D01*
X156750445Y-111956452D01*
X156731009Y-111966840D01*
X156709928Y-111973236D01*
X156681860Y-111976000D01*
X155118140Y-111976000D01*
X155090072Y-111973236D01*
X155068991Y-111966840D01*
X155049555Y-111956452D01*
X155032524Y-111942476D01*
X155018548Y-111925445D01*
X155008160Y-111906009D01*
X155001764Y-111884928D01*
X154999000Y-111856860D01*
X154999000Y-111393140D01*
X155001764Y-111365072D01*
X155008160Y-111343991D01*
X155018548Y-111324555D01*
X155032524Y-111307524D01*
X155049555Y-111293548D01*
X155068991Y-111283160D01*
X155090072Y-111276764D01*
X155118140Y-111274000D01*
X156681860Y-111274000D01*
X156709928Y-111276764D01*
G37*
G36*
X148629591Y-110803085D02*
G01*
X148663569Y-110813393D01*
X148694890Y-110830134D01*
X148722339Y-110852661D01*
X148744866Y-110880110D01*
X148761607Y-110911431D01*
X148771915Y-110945409D01*
X148776000Y-110986890D01*
X148776000Y-111588110D01*
X148771915Y-111629591D01*
X148761607Y-111663569D01*
X148744866Y-111694890D01*
X148722339Y-111722339D01*
X148694890Y-111744866D01*
X148663569Y-111761607D01*
X148629591Y-111771915D01*
X148588110Y-111776000D01*
X147911890Y-111776000D01*
X147870409Y-111771915D01*
X147836431Y-111761607D01*
X147805110Y-111744866D01*
X147777661Y-111722339D01*
X147755134Y-111694890D01*
X147738393Y-111663569D01*
X147728085Y-111629591D01*
X147724000Y-111588110D01*
X147724000Y-110986890D01*
X147728085Y-110945409D01*
X147738393Y-110911431D01*
X147755134Y-110880110D01*
X147777661Y-110852661D01*
X147805110Y-110830134D01*
X147836431Y-110813393D01*
X147870409Y-110803085D01*
X147911890Y-110799000D01*
X148588110Y-110799000D01*
X148629591Y-110803085D01*
G37*
G36*
X150618604Y-109328347D02*
G01*
X150655144Y-109339432D01*
X150688821Y-109357433D01*
X150718341Y-109381659D01*
X150742567Y-109411179D01*
X150760568Y-109444856D01*
X150771653Y-109481396D01*
X150776000Y-109525538D01*
X150776000Y-110974462D01*
X150771653Y-111018604D01*
X150760568Y-111055144D01*
X150742567Y-111088821D01*
X150718341Y-111118341D01*
X150688821Y-111142567D01*
X150655144Y-111160568D01*
X150618604Y-111171653D01*
X150574462Y-111176000D01*
X149625538Y-111176000D01*
X149581396Y-111171653D01*
X149544856Y-111160568D01*
X149511179Y-111142567D01*
X149481659Y-111118341D01*
X149457433Y-111088821D01*
X149439432Y-111055144D01*
X149428347Y-111018604D01*
X149424000Y-110974462D01*
X149424000Y-109525538D01*
X149428347Y-109481396D01*
X149439432Y-109444856D01*
X149457433Y-109411179D01*
X149481659Y-109381659D01*
X149511179Y-109357433D01*
X149544856Y-109339432D01*
X149581396Y-109328347D01*
X149625538Y-109324000D01*
X150574462Y-109324000D01*
X150618604Y-109328347D01*
G37*
G36*
X153418604Y-109328347D02*
G01*
X153455144Y-109339432D01*
X153488821Y-109357433D01*
X153518341Y-109381659D01*
X153542567Y-109411179D01*
X153560568Y-109444856D01*
X153571653Y-109481396D01*
X153576000Y-109525538D01*
X153576000Y-110974462D01*
X153571653Y-111018604D01*
X153560568Y-111055144D01*
X153542567Y-111088821D01*
X153518341Y-111118341D01*
X153488821Y-111142567D01*
X153455144Y-111160568D01*
X153418604Y-111171653D01*
X153374462Y-111176000D01*
X152425538Y-111176000D01*
X152381396Y-111171653D01*
X152344856Y-111160568D01*
X152311179Y-111142567D01*
X152281659Y-111118341D01*
X152257433Y-111088821D01*
X152239432Y-111055144D01*
X152228347Y-111018604D01*
X152224000Y-110974462D01*
X152224000Y-109525538D01*
X152228347Y-109481396D01*
X152239432Y-109444856D01*
X152257433Y-109411179D01*
X152281659Y-109381659D01*
X152311179Y-109357433D01*
X152344856Y-109339432D01*
X152381396Y-109328347D01*
X152425538Y-109324000D01*
X153374462Y-109324000D01*
X153418604Y-109328347D01*
G37*
G36*
X130804591Y-109978085D02*
G01*
X130838569Y-109988393D01*
X130869890Y-110005134D01*
X130897339Y-110027661D01*
X130919866Y-110055110D01*
X130936607Y-110086431D01*
X130946915Y-110120409D01*
X130951000Y-110161890D01*
X130951000Y-110838110D01*
X130946915Y-110879591D01*
X130936607Y-110913569D01*
X130919866Y-110944890D01*
X130897339Y-110972339D01*
X130869890Y-110994866D01*
X130838569Y-111011607D01*
X130804591Y-111021915D01*
X130763110Y-111026000D01*
X130161890Y-111026000D01*
X130120409Y-111021915D01*
X130086431Y-111011607D01*
X130055110Y-110994866D01*
X130027661Y-110972339D01*
X130005134Y-110944890D01*
X129988393Y-110913569D01*
X129978085Y-110879591D01*
X129974000Y-110838110D01*
X129974000Y-110161890D01*
X129978085Y-110120409D01*
X129988393Y-110086431D01*
X130005134Y-110055110D01*
X130027661Y-110027661D01*
X130055110Y-110005134D01*
X130086431Y-109988393D01*
X130120409Y-109978085D01*
X130161890Y-109974000D01*
X130763110Y-109974000D01*
X130804591Y-109978085D01*
G37*
G36*
X134629591Y-110053085D02*
G01*
X134663569Y-110063393D01*
X134694890Y-110080134D01*
X134722339Y-110102661D01*
X134744866Y-110130110D01*
X134761607Y-110161431D01*
X134771915Y-110195409D01*
X134776000Y-110236890D01*
X134776000Y-110838110D01*
X134771915Y-110879591D01*
X134761607Y-110913569D01*
X134744866Y-110944890D01*
X134722339Y-110972339D01*
X134694890Y-110994866D01*
X134663569Y-111011607D01*
X134629591Y-111021915D01*
X134588110Y-111026000D01*
X133911890Y-111026000D01*
X133870409Y-111021915D01*
X133836431Y-111011607D01*
X133805110Y-110994866D01*
X133777661Y-110972339D01*
X133755134Y-110944890D01*
X133738393Y-110913569D01*
X133728085Y-110879591D01*
X133724000Y-110838110D01*
X133724000Y-110236890D01*
X133728085Y-110195409D01*
X133738393Y-110161431D01*
X133755134Y-110130110D01*
X133777661Y-110102661D01*
X133805110Y-110080134D01*
X133836431Y-110063393D01*
X133870409Y-110053085D01*
X133911890Y-110049000D01*
X134588110Y-110049000D01*
X134629591Y-110053085D01*
G37*
G36*
X132379591Y-109978085D02*
G01*
X132413569Y-109988393D01*
X132444890Y-110005134D01*
X132472339Y-110027661D01*
X132494866Y-110055110D01*
X132511607Y-110086431D01*
X132521915Y-110120409D01*
X132526000Y-110161890D01*
X132526000Y-110838110D01*
X132521915Y-110879591D01*
X132511607Y-110913569D01*
X132494866Y-110944890D01*
X132472339Y-110972339D01*
X132444890Y-110994866D01*
X132413569Y-111011607D01*
X132379591Y-111021915D01*
X132338110Y-111026000D01*
X131736890Y-111026000D01*
X131695409Y-111021915D01*
X131661431Y-111011607D01*
X131630110Y-110994866D01*
X131602661Y-110972339D01*
X131580134Y-110944890D01*
X131563393Y-110913569D01*
X131553085Y-110879591D01*
X131549000Y-110838110D01*
X131549000Y-110161890D01*
X131553085Y-110120409D01*
X131563393Y-110086431D01*
X131580134Y-110055110D01*
X131602661Y-110027661D01*
X131630110Y-110005134D01*
X131661431Y-109988393D01*
X131695409Y-109978085D01*
X131736890Y-109974000D01*
X132338110Y-109974000D01*
X132379591Y-109978085D01*
G37*
G36*
X110245505Y-107717448D02*
G01*
X110452410Y-107758604D01*
X110734674Y-107875521D01*
X110988705Y-108045259D01*
X111204741Y-108261295D01*
X111374479Y-108515326D01*
X111491396Y-108797590D01*
X111520696Y-108944890D01*
X111551000Y-109097239D01*
X111551000Y-109402761D01*
X111533653Y-109489971D01*
X111491396Y-109702410D01*
X111374479Y-109984674D01*
X111204741Y-110238705D01*
X110988705Y-110454741D01*
X110734674Y-110624479D01*
X110452410Y-110741396D01*
X110383173Y-110755168D01*
X110152761Y-110801000D01*
X109847239Y-110801000D01*
X109616827Y-110755168D01*
X109547590Y-110741396D01*
X109265326Y-110624479D01*
X109011295Y-110454741D01*
X108795259Y-110238705D01*
X108625521Y-109984674D01*
X108508604Y-109702410D01*
X108466347Y-109489971D01*
X108449000Y-109402761D01*
X108449000Y-109097239D01*
X108479304Y-108944890D01*
X108508604Y-108797590D01*
X108625521Y-108515326D01*
X108795259Y-108261295D01*
X109011295Y-108045259D01*
X109265326Y-107875521D01*
X109547590Y-107758604D01*
X109754495Y-107717448D01*
X109847239Y-107699000D01*
X110152761Y-107699000D01*
X110245505Y-107717448D01*
G37*
G36*
X156709928Y-110026764D02*
G01*
X156731009Y-110033160D01*
X156750445Y-110043548D01*
X156767476Y-110057524D01*
X156781452Y-110074555D01*
X156791840Y-110093991D01*
X156798236Y-110115072D01*
X156801000Y-110143140D01*
X156801000Y-110606860D01*
X156798236Y-110634928D01*
X156791840Y-110656009D01*
X156781452Y-110675445D01*
X156767476Y-110692476D01*
X156750445Y-110706452D01*
X156731009Y-110716840D01*
X156709928Y-110723236D01*
X156681860Y-110726000D01*
X155118140Y-110726000D01*
X155090072Y-110723236D01*
X155068991Y-110716840D01*
X155049555Y-110706452D01*
X155032524Y-110692476D01*
X155018548Y-110675445D01*
X155008160Y-110656009D01*
X155001764Y-110634928D01*
X154999000Y-110606860D01*
X154999000Y-110143140D01*
X155001764Y-110115072D01*
X155008160Y-110093991D01*
X155018548Y-110074555D01*
X155032524Y-110057524D01*
X155049555Y-110043548D01*
X155068991Y-110033160D01*
X155090072Y-110026764D01*
X155118140Y-110024000D01*
X156681860Y-110024000D01*
X156709928Y-110026764D01*
G37*
G36*
X124429802Y-108275723D02*
G01*
X124439225Y-108278581D01*
X124439227Y-108278582D01*
X124447913Y-108283225D01*
X124447914Y-108283226D01*
X124447916Y-108283227D01*
X124463209Y-108295778D01*
X124483583Y-108309392D01*
X124506222Y-108318770D01*
X124530255Y-108323551D01*
X124542509Y-108324153D01*
X126263859Y-108324153D01*
X126279802Y-108325723D01*
X126289225Y-108328581D01*
X126289227Y-108328582D01*
X126297913Y-108333225D01*
X126297914Y-108333226D01*
X126297916Y-108333227D01*
X126305527Y-108339473D01*
X126311773Y-108347084D01*
X126316419Y-108355775D01*
X126319277Y-108365198D01*
X126320847Y-108381141D01*
X126320847Y-110618859D01*
X126320242Y-110625000D01*
X126319277Y-110634802D01*
X126316418Y-110644227D01*
X126314400Y-110648003D01*
X126311773Y-110652916D01*
X126305527Y-110660527D01*
X126297916Y-110666773D01*
X126297914Y-110666774D01*
X126297913Y-110666775D01*
X126294014Y-110668859D01*
X126289225Y-110671419D01*
X126279802Y-110674277D01*
X126263859Y-110675847D01*
X124542509Y-110675847D01*
X124518123Y-110678249D01*
X124494674Y-110685362D01*
X124473063Y-110696913D01*
X124463209Y-110704222D01*
X124447916Y-110716773D01*
X124447914Y-110716774D01*
X124447913Y-110716775D01*
X124447791Y-110716840D01*
X124439225Y-110721419D01*
X124429802Y-110724277D01*
X124413859Y-110725847D01*
X123806141Y-110725847D01*
X123790198Y-110724277D01*
X123780775Y-110721419D01*
X123772209Y-110716840D01*
X123772087Y-110716775D01*
X123772086Y-110716774D01*
X123772084Y-110716773D01*
X123764473Y-110710527D01*
X123758227Y-110702916D01*
X123753581Y-110694225D01*
X123750723Y-110684802D01*
X123749153Y-110668859D01*
X123749153Y-110281141D01*
X123750723Y-110265198D01*
X123753581Y-110255775D01*
X123758227Y-110247084D01*
X123771612Y-110230774D01*
X123773075Y-110229312D01*
X123786691Y-110208939D01*
X123796072Y-110186302D01*
X123800855Y-110162269D01*
X123800859Y-110137765D01*
X123796082Y-110113731D01*
X123786707Y-110091091D01*
X123773096Y-110070715D01*
X123771638Y-110069257D01*
X123758227Y-110052916D01*
X123757203Y-110051000D01*
X123753582Y-110044227D01*
X123750723Y-110034802D01*
X123750020Y-110027661D01*
X123749153Y-110018859D01*
X123749153Y-109631141D01*
X123750723Y-109615198D01*
X123753581Y-109605775D01*
X123758227Y-109597084D01*
X123771612Y-109580774D01*
X123773075Y-109579312D01*
X123786691Y-109558939D01*
X123796072Y-109536302D01*
X123800855Y-109512269D01*
X123800859Y-109487765D01*
X123796082Y-109463731D01*
X123786707Y-109441091D01*
X123773096Y-109420715D01*
X123771638Y-109419257D01*
X123758227Y-109402916D01*
X123758144Y-109402760D01*
X123753582Y-109394227D01*
X123750723Y-109384802D01*
X123749153Y-109368859D01*
X123749153Y-108981141D01*
X123750723Y-108965198D01*
X123753581Y-108955775D01*
X123758227Y-108947084D01*
X123771612Y-108930774D01*
X123773075Y-108929312D01*
X123786691Y-108908939D01*
X123796072Y-108886302D01*
X123800855Y-108862269D01*
X123800859Y-108837765D01*
X123796082Y-108813731D01*
X123786707Y-108791091D01*
X123773096Y-108770715D01*
X123771638Y-108769257D01*
X123758227Y-108752916D01*
X123757203Y-108751000D01*
X123753582Y-108744227D01*
X123750723Y-108734802D01*
X123749758Y-108725000D01*
X123749153Y-108718859D01*
X123749153Y-108331141D01*
X123750723Y-108315198D01*
X123753581Y-108305775D01*
X123753582Y-108305773D01*
X123758225Y-108297087D01*
X123759299Y-108295778D01*
X123764473Y-108289473D01*
X123772084Y-108283227D01*
X123772086Y-108283226D01*
X123772087Y-108283225D01*
X123780773Y-108278582D01*
X123780775Y-108278581D01*
X123790198Y-108275723D01*
X123806141Y-108274153D01*
X124413859Y-108274153D01*
X124429802Y-108275723D01*
G37*
G36*
X117584802Y-108275723D02*
G01*
X117594225Y-108278581D01*
X117594227Y-108278582D01*
X117602913Y-108283225D01*
X117602914Y-108283226D01*
X117602916Y-108283227D01*
X117618209Y-108295778D01*
X117638583Y-108309392D01*
X117661222Y-108318770D01*
X117685255Y-108323551D01*
X117697509Y-108324153D01*
X119418859Y-108324153D01*
X119434802Y-108325723D01*
X119444225Y-108328581D01*
X119444227Y-108328582D01*
X119452913Y-108333225D01*
X119452914Y-108333226D01*
X119452916Y-108333227D01*
X119460527Y-108339473D01*
X119466773Y-108347084D01*
X119471419Y-108355775D01*
X119474277Y-108365198D01*
X119475847Y-108381141D01*
X119475847Y-110618859D01*
X119475242Y-110625000D01*
X119474277Y-110634802D01*
X119471418Y-110644227D01*
X119469400Y-110648003D01*
X119466773Y-110652916D01*
X119460527Y-110660527D01*
X119452916Y-110666773D01*
X119452914Y-110666774D01*
X119452913Y-110666775D01*
X119449014Y-110668859D01*
X119444225Y-110671419D01*
X119434802Y-110674277D01*
X119418859Y-110675847D01*
X117697509Y-110675847D01*
X117673123Y-110678249D01*
X117649674Y-110685362D01*
X117628063Y-110696913D01*
X117618209Y-110704222D01*
X117602916Y-110716773D01*
X117602914Y-110716774D01*
X117602913Y-110716775D01*
X117602791Y-110716840D01*
X117594225Y-110721419D01*
X117584802Y-110724277D01*
X117568859Y-110725847D01*
X116961141Y-110725847D01*
X116945198Y-110724277D01*
X116935775Y-110721419D01*
X116927209Y-110716840D01*
X116927087Y-110716775D01*
X116927086Y-110716774D01*
X116927084Y-110716773D01*
X116919473Y-110710527D01*
X116913227Y-110702916D01*
X116908581Y-110694225D01*
X116905723Y-110684802D01*
X116904153Y-110668859D01*
X116904153Y-110281141D01*
X116905723Y-110265198D01*
X116908581Y-110255775D01*
X116913227Y-110247084D01*
X116926612Y-110230774D01*
X116928075Y-110229312D01*
X116941691Y-110208939D01*
X116951072Y-110186302D01*
X116955855Y-110162269D01*
X116955859Y-110137765D01*
X116951082Y-110113731D01*
X116941707Y-110091091D01*
X116928096Y-110070715D01*
X116926638Y-110069257D01*
X116913227Y-110052916D01*
X116912203Y-110051000D01*
X116908582Y-110044227D01*
X116905723Y-110034802D01*
X116905020Y-110027661D01*
X116904153Y-110018859D01*
X116904153Y-109631141D01*
X116905723Y-109615198D01*
X116908581Y-109605775D01*
X116913227Y-109597084D01*
X116926612Y-109580774D01*
X116928075Y-109579312D01*
X116941691Y-109558939D01*
X116951072Y-109536302D01*
X116955855Y-109512269D01*
X116955859Y-109487765D01*
X116951082Y-109463731D01*
X116941707Y-109441091D01*
X116928096Y-109420715D01*
X116926638Y-109419257D01*
X116913227Y-109402916D01*
X116913144Y-109402760D01*
X116908582Y-109394227D01*
X116905723Y-109384802D01*
X116904153Y-109368859D01*
X116904153Y-108981141D01*
X116905723Y-108965198D01*
X116908581Y-108955775D01*
X116913227Y-108947084D01*
X116926612Y-108930774D01*
X116928075Y-108929312D01*
X116941691Y-108908939D01*
X116951072Y-108886302D01*
X116955855Y-108862269D01*
X116955859Y-108837765D01*
X116951082Y-108813731D01*
X116941707Y-108791091D01*
X116928096Y-108770715D01*
X116926638Y-108769257D01*
X116913227Y-108752916D01*
X116912203Y-108751000D01*
X116908582Y-108744227D01*
X116905723Y-108734802D01*
X116904758Y-108725000D01*
X116904153Y-108718859D01*
X116904153Y-108331141D01*
X116905723Y-108315198D01*
X116908581Y-108305775D01*
X116908582Y-108305773D01*
X116913225Y-108297087D01*
X116914299Y-108295778D01*
X116919473Y-108289473D01*
X116927084Y-108283227D01*
X116927086Y-108283226D01*
X116927087Y-108283225D01*
X116935773Y-108278582D01*
X116935775Y-108278581D01*
X116945198Y-108275723D01*
X116961141Y-108274153D01*
X117568859Y-108274153D01*
X117584802Y-108275723D01*
G37*
G36*
X120905000Y-110725000D02*
G01*
X119975000Y-110725000D01*
X119975000Y-108275000D01*
X120905000Y-108275000D01*
X120905000Y-110725000D01*
G37*
G36*
X127750000Y-110725000D02*
G01*
X126820000Y-110725000D01*
X126820000Y-108275000D01*
X127750000Y-108275000D01*
X127750000Y-110725000D01*
G37*
G36*
X146460721Y-109470174D02*
G01*
X146560995Y-109511709D01*
X146581691Y-109525538D01*
X146651242Y-109572010D01*
X146727990Y-109648758D01*
X146727991Y-109648760D01*
X146788291Y-109739005D01*
X146829826Y-109839279D01*
X146851000Y-109945730D01*
X146851000Y-110054270D01*
X146829826Y-110160721D01*
X146788291Y-110260995D01*
X146781154Y-110271676D01*
X146727990Y-110351242D01*
X146651242Y-110427990D01*
X146638826Y-110436286D01*
X146560995Y-110488291D01*
X146460721Y-110529826D01*
X146354270Y-110551000D01*
X146245730Y-110551000D01*
X146139279Y-110529826D01*
X146039005Y-110488291D01*
X145961174Y-110436286D01*
X145948758Y-110427990D01*
X145872010Y-110351242D01*
X145818846Y-110271676D01*
X145811709Y-110260995D01*
X145770174Y-110160721D01*
X145749000Y-110054270D01*
X145749000Y-109945730D01*
X145770174Y-109839279D01*
X145811709Y-109739005D01*
X145872009Y-109648760D01*
X145872010Y-109648758D01*
X145948758Y-109572010D01*
X146018309Y-109525538D01*
X146039005Y-109511709D01*
X146139279Y-109470174D01*
X146245730Y-109449000D01*
X146354270Y-109449000D01*
X146460721Y-109470174D01*
G37*
G36*
X148629591Y-109228085D02*
G01*
X148663569Y-109238393D01*
X148694890Y-109255134D01*
X148722339Y-109277661D01*
X148744866Y-109305110D01*
X148761607Y-109336431D01*
X148771915Y-109370409D01*
X148776000Y-109411890D01*
X148776000Y-110013110D01*
X148771915Y-110054591D01*
X148761607Y-110088569D01*
X148744866Y-110119890D01*
X148722339Y-110147339D01*
X148694890Y-110169866D01*
X148663569Y-110186607D01*
X148629591Y-110196915D01*
X148588110Y-110201000D01*
X147911890Y-110201000D01*
X147870409Y-110196915D01*
X147836431Y-110186607D01*
X147805110Y-110169866D01*
X147777661Y-110147339D01*
X147755134Y-110119890D01*
X147738393Y-110088569D01*
X147728085Y-110054591D01*
X147724000Y-110013110D01*
X147724000Y-109411890D01*
X147728085Y-109370409D01*
X147738393Y-109336431D01*
X147755134Y-109305110D01*
X147777661Y-109277661D01*
X147805110Y-109255134D01*
X147836431Y-109238393D01*
X147870409Y-109228085D01*
X147911890Y-109224000D01*
X148588110Y-109224000D01*
X148629591Y-109228085D01*
G37*
G36*
X114631113Y-108450159D02*
G01*
X114737023Y-108460590D01*
X114828677Y-108488393D01*
X114888013Y-108506392D01*
X115027165Y-108580771D01*
X115149133Y-108680867D01*
X115249229Y-108802835D01*
X115323608Y-108941987D01*
X115328746Y-108958925D01*
X115369410Y-109092977D01*
X115384875Y-109250000D01*
X115369410Y-109407023D01*
X115342830Y-109494645D01*
X115323608Y-109558013D01*
X115249229Y-109697165D01*
X115149133Y-109819133D01*
X115027165Y-109919229D01*
X114888013Y-109993608D01*
X114850016Y-110005134D01*
X114737023Y-110039410D01*
X114658571Y-110047137D01*
X114619346Y-110051000D01*
X114020654Y-110051000D01*
X113981429Y-110047137D01*
X113902977Y-110039410D01*
X113789984Y-110005134D01*
X113751987Y-109993608D01*
X113612835Y-109919229D01*
X113490867Y-109819133D01*
X113390771Y-109697165D01*
X113316392Y-109558013D01*
X113297170Y-109494645D01*
X113270590Y-109407023D01*
X113255125Y-109250000D01*
X113270590Y-109092977D01*
X113311254Y-108958925D01*
X113316392Y-108941987D01*
X113390771Y-108802835D01*
X113490867Y-108680867D01*
X113612835Y-108580771D01*
X113751987Y-108506392D01*
X113811323Y-108488393D01*
X113902977Y-108460590D01*
X114008887Y-108450159D01*
X114020654Y-108449000D01*
X114619346Y-108449000D01*
X114631113Y-108450159D01*
G37*
G36*
X156709928Y-108776764D02*
G01*
X156731009Y-108783160D01*
X156750445Y-108793548D01*
X156767476Y-108807524D01*
X156781452Y-108824555D01*
X156791840Y-108843991D01*
X156798236Y-108865072D01*
X156801000Y-108893140D01*
X156801000Y-109356860D01*
X156798236Y-109384928D01*
X156791840Y-109406009D01*
X156781452Y-109425445D01*
X156767476Y-109442476D01*
X156750445Y-109456452D01*
X156731009Y-109466840D01*
X156709928Y-109473236D01*
X156681860Y-109476000D01*
X155118140Y-109476000D01*
X155090072Y-109473236D01*
X155068991Y-109466840D01*
X155049555Y-109456452D01*
X155032524Y-109442476D01*
X155018548Y-109425445D01*
X155008160Y-109406009D01*
X155001764Y-109384928D01*
X154999000Y-109356860D01*
X154999000Y-108893140D01*
X155001764Y-108865072D01*
X155008160Y-108843991D01*
X155018548Y-108824555D01*
X155032524Y-108807524D01*
X155049555Y-108793548D01*
X155068991Y-108783160D01*
X155090072Y-108776764D01*
X155118140Y-108774000D01*
X156681860Y-108774000D01*
X156709928Y-108776764D01*
G37*
G36*
X134629591Y-108478085D02*
G01*
X134663569Y-108488393D01*
X134694890Y-108505134D01*
X134722339Y-108527661D01*
X134744866Y-108555110D01*
X134761607Y-108586431D01*
X134771915Y-108620409D01*
X134776000Y-108661890D01*
X134776000Y-109263110D01*
X134771915Y-109304591D01*
X134761607Y-109338569D01*
X134744866Y-109369890D01*
X134722339Y-109397339D01*
X134694890Y-109419866D01*
X134663569Y-109436607D01*
X134629591Y-109446915D01*
X134588110Y-109451000D01*
X133911890Y-109451000D01*
X133870409Y-109446915D01*
X133836431Y-109436607D01*
X133805110Y-109419866D01*
X133777661Y-109397339D01*
X133755134Y-109369890D01*
X133738393Y-109338569D01*
X133728085Y-109304591D01*
X133724000Y-109263110D01*
X133724000Y-108661890D01*
X133728085Y-108620409D01*
X133738393Y-108586431D01*
X133755134Y-108555110D01*
X133777661Y-108527661D01*
X133805110Y-108505134D01*
X133836431Y-108488393D01*
X133870409Y-108478085D01*
X133911890Y-108474000D01*
X134588110Y-108474000D01*
X134629591Y-108478085D01*
G37*
G36*
X132379591Y-107978085D02*
G01*
X132413569Y-107988393D01*
X132444890Y-108005134D01*
X132472339Y-108027661D01*
X132494866Y-108055110D01*
X132511607Y-108086431D01*
X132521915Y-108120409D01*
X132526000Y-108161890D01*
X132526000Y-108838110D01*
X132521915Y-108879591D01*
X132511607Y-108913569D01*
X132494866Y-108944890D01*
X132472339Y-108972339D01*
X132444890Y-108994866D01*
X132413569Y-109011607D01*
X132379591Y-109021915D01*
X132338110Y-109026000D01*
X131736890Y-109026000D01*
X131695409Y-109021915D01*
X131661431Y-109011607D01*
X131630110Y-108994866D01*
X131602661Y-108972339D01*
X131580134Y-108944890D01*
X131563393Y-108913569D01*
X131553085Y-108879591D01*
X131549000Y-108838110D01*
X131549000Y-108161890D01*
X131553085Y-108120409D01*
X131563393Y-108086431D01*
X131580134Y-108055110D01*
X131602661Y-108027661D01*
X131630110Y-108005134D01*
X131661431Y-107988393D01*
X131695409Y-107978085D01*
X131736890Y-107974000D01*
X132338110Y-107974000D01*
X132379591Y-107978085D01*
G37*
G36*
X130804591Y-107978085D02*
G01*
X130838569Y-107988393D01*
X130869890Y-108005134D01*
X130897339Y-108027661D01*
X130919866Y-108055110D01*
X130936607Y-108086431D01*
X130946915Y-108120409D01*
X130951000Y-108161890D01*
X130951000Y-108838110D01*
X130946915Y-108879591D01*
X130936607Y-108913569D01*
X130919866Y-108944890D01*
X130897339Y-108972339D01*
X130869890Y-108994866D01*
X130838569Y-109011607D01*
X130804591Y-109021915D01*
X130763110Y-109026000D01*
X130161890Y-109026000D01*
X130120409Y-109021915D01*
X130086431Y-109011607D01*
X130055110Y-108994866D01*
X130027661Y-108972339D01*
X130005134Y-108944890D01*
X129988393Y-108913569D01*
X129978085Y-108879591D01*
X129974000Y-108838110D01*
X129974000Y-108161890D01*
X129978085Y-108120409D01*
X129988393Y-108086431D01*
X130005134Y-108055110D01*
X130027661Y-108027661D01*
X130055110Y-108005134D01*
X130086431Y-107988393D01*
X130120409Y-107978085D01*
X130161890Y-107974000D01*
X130763110Y-107974000D01*
X130804591Y-107978085D01*
G37*
G36*
X149993604Y-107403347D02*
G01*
X150030144Y-107414432D01*
X150063821Y-107432433D01*
X150093341Y-107456659D01*
X150117567Y-107486179D01*
X150135568Y-107519856D01*
X150146653Y-107556396D01*
X150151000Y-107600538D01*
X150151000Y-108549462D01*
X150146653Y-108593604D01*
X150135568Y-108630144D01*
X150117567Y-108663821D01*
X150093341Y-108693341D01*
X150063821Y-108717567D01*
X150030144Y-108735568D01*
X149993604Y-108746653D01*
X149949462Y-108751000D01*
X148050538Y-108751000D01*
X148006396Y-108746653D01*
X147969856Y-108735568D01*
X147936179Y-108717567D01*
X147906659Y-108693341D01*
X147882433Y-108663821D01*
X147864432Y-108630144D01*
X147853347Y-108593604D01*
X147849000Y-108549462D01*
X147849000Y-107600538D01*
X147853347Y-107556396D01*
X147864432Y-107519856D01*
X147882433Y-107486179D01*
X147906659Y-107456659D01*
X147936179Y-107432433D01*
X147969856Y-107414432D01*
X148006396Y-107403347D01*
X148050538Y-107399000D01*
X149949462Y-107399000D01*
X149993604Y-107403347D01*
G37*
G36*
X151801000Y-108401000D02*
G01*
X151199000Y-108401000D01*
X151199000Y-107799000D01*
X151801000Y-107799000D01*
X151801000Y-108401000D01*
G37*
G36*
X153629591Y-107303085D02*
G01*
X153663569Y-107313393D01*
X153694890Y-107330134D01*
X153722339Y-107352661D01*
X153744866Y-107380110D01*
X153761607Y-107411431D01*
X153771915Y-107445409D01*
X153776000Y-107486890D01*
X153776000Y-108088110D01*
X153771915Y-108129591D01*
X153761607Y-108163569D01*
X153744866Y-108194890D01*
X153722339Y-108222339D01*
X153694890Y-108244866D01*
X153663569Y-108261607D01*
X153629591Y-108271915D01*
X153588110Y-108276000D01*
X152911890Y-108276000D01*
X152870409Y-108271915D01*
X152836431Y-108261607D01*
X152805110Y-108244866D01*
X152777661Y-108222339D01*
X152755134Y-108194890D01*
X152738393Y-108163569D01*
X152728085Y-108129591D01*
X152724000Y-108088110D01*
X152724000Y-107486890D01*
X152728085Y-107445409D01*
X152738393Y-107411431D01*
X152755134Y-107380110D01*
X152777661Y-107352661D01*
X152805110Y-107330134D01*
X152836431Y-107313393D01*
X152870409Y-107303085D01*
X152911890Y-107299000D01*
X153588110Y-107299000D01*
X153629591Y-107303085D01*
G37*
G36*
X160329434Y-106728686D02*
G01*
X160369284Y-106740774D01*
X160405999Y-106760399D01*
X160438186Y-106786814D01*
X160464601Y-106819001D01*
X160484226Y-106855716D01*
X160496314Y-106895566D01*
X160501000Y-106943141D01*
X160501000Y-107606859D01*
X160496314Y-107654434D01*
X160484226Y-107694284D01*
X160464601Y-107730999D01*
X160438186Y-107763186D01*
X160405999Y-107789601D01*
X160369284Y-107809226D01*
X160329434Y-107821314D01*
X160281859Y-107826000D01*
X157918141Y-107826000D01*
X157870566Y-107821314D01*
X157830716Y-107809226D01*
X157794001Y-107789601D01*
X157761814Y-107763186D01*
X157735399Y-107730999D01*
X157715774Y-107694284D01*
X157703686Y-107654434D01*
X157699000Y-107606859D01*
X157699000Y-106943141D01*
X157703686Y-106895566D01*
X157715774Y-106855716D01*
X157735399Y-106819001D01*
X157761814Y-106786814D01*
X157794001Y-106760399D01*
X157830716Y-106740774D01*
X157870566Y-106728686D01*
X157918141Y-106724000D01*
X160281859Y-106724000D01*
X160329434Y-106728686D01*
G37*
G36*
X147229591Y-106853085D02*
G01*
X147263569Y-106863393D01*
X147294890Y-106880134D01*
X147322339Y-106902661D01*
X147344866Y-106930110D01*
X147361607Y-106961431D01*
X147371915Y-106995409D01*
X147376000Y-107036890D01*
X147376000Y-107638110D01*
X147371915Y-107679591D01*
X147361607Y-107713569D01*
X147344866Y-107744890D01*
X147322339Y-107772339D01*
X147294890Y-107794866D01*
X147263569Y-107811607D01*
X147229591Y-107821915D01*
X147188110Y-107826000D01*
X146511890Y-107826000D01*
X146470409Y-107821915D01*
X146436431Y-107811607D01*
X146405110Y-107794866D01*
X146377661Y-107772339D01*
X146355134Y-107744890D01*
X146338393Y-107713569D01*
X146328085Y-107679591D01*
X146324000Y-107638110D01*
X146324000Y-107036890D01*
X146328085Y-106995409D01*
X146338393Y-106961431D01*
X146355134Y-106930110D01*
X146377661Y-106902661D01*
X146405110Y-106880134D01*
X146436431Y-106863393D01*
X146470409Y-106853085D01*
X146511890Y-106849000D01*
X147188110Y-106849000D01*
X147229591Y-106853085D01*
G37*
G36*
X134629591Y-106803085D02*
G01*
X134663569Y-106813393D01*
X134694890Y-106830134D01*
X134722339Y-106852661D01*
X134744866Y-106880110D01*
X134761607Y-106911431D01*
X134771915Y-106945409D01*
X134776000Y-106986890D01*
X134776000Y-107588110D01*
X134771915Y-107629591D01*
X134761607Y-107663569D01*
X134744866Y-107694890D01*
X134722339Y-107722339D01*
X134694890Y-107744866D01*
X134663569Y-107761607D01*
X134629591Y-107771915D01*
X134588110Y-107776000D01*
X133911890Y-107776000D01*
X133870409Y-107771915D01*
X133836431Y-107761607D01*
X133805110Y-107744866D01*
X133777661Y-107722339D01*
X133755134Y-107694890D01*
X133738393Y-107663569D01*
X133728085Y-107629591D01*
X133724000Y-107588110D01*
X133724000Y-106986890D01*
X133728085Y-106945409D01*
X133738393Y-106911431D01*
X133755134Y-106880110D01*
X133777661Y-106852661D01*
X133805110Y-106830134D01*
X133836431Y-106813393D01*
X133870409Y-106803085D01*
X133911890Y-106799000D01*
X134588110Y-106799000D01*
X134629591Y-106803085D01*
G37*
G36*
X114658571Y-105452863D02*
G01*
X114737023Y-105460590D01*
X114827995Y-105488186D01*
X114888013Y-105506392D01*
X115027165Y-105580771D01*
X115149133Y-105680867D01*
X115249229Y-105802835D01*
X115323608Y-105941987D01*
X115337818Y-105988831D01*
X115369410Y-106092977D01*
X115384875Y-106250000D01*
X115369410Y-106407023D01*
X115347229Y-106480144D01*
X115323608Y-106558013D01*
X115249229Y-106697165D01*
X115149133Y-106819133D01*
X115027165Y-106919229D01*
X114888013Y-106993608D01*
X114867666Y-106999780D01*
X114737023Y-107039410D01*
X114658571Y-107047137D01*
X114619346Y-107051000D01*
X114020654Y-107051000D01*
X113981429Y-107047137D01*
X113902977Y-107039410D01*
X113772334Y-106999780D01*
X113751987Y-106993608D01*
X113612835Y-106919229D01*
X113490867Y-106819133D01*
X113390771Y-106697165D01*
X113316392Y-106558013D01*
X113292771Y-106480144D01*
X113270590Y-106407023D01*
X113255125Y-106250000D01*
X113270590Y-106092977D01*
X113302182Y-105988831D01*
X113316392Y-105941987D01*
X113390771Y-105802835D01*
X113490867Y-105680867D01*
X113612835Y-105580771D01*
X113751987Y-105506392D01*
X113812005Y-105488186D01*
X113902977Y-105460590D01*
X113981429Y-105452863D01*
X114020654Y-105449000D01*
X114619346Y-105449000D01*
X114658571Y-105452863D01*
G37*
G36*
X153629591Y-105728085D02*
G01*
X153663569Y-105738393D01*
X153694890Y-105755134D01*
X153722339Y-105777661D01*
X153744866Y-105805110D01*
X153761607Y-105836431D01*
X153771915Y-105870409D01*
X153776000Y-105911890D01*
X153776000Y-106513110D01*
X153771915Y-106554591D01*
X153761607Y-106588569D01*
X153744866Y-106619890D01*
X153722339Y-106647339D01*
X153694890Y-106669866D01*
X153663569Y-106686607D01*
X153629591Y-106696915D01*
X153588110Y-106701000D01*
X152911890Y-106701000D01*
X152870409Y-106696915D01*
X152836431Y-106686607D01*
X152805110Y-106669866D01*
X152777661Y-106647339D01*
X152755134Y-106619890D01*
X152738393Y-106588569D01*
X152728085Y-106554591D01*
X152724000Y-106513110D01*
X152724000Y-105911890D01*
X152728085Y-105870409D01*
X152738393Y-105836431D01*
X152755134Y-105805110D01*
X152777661Y-105777661D01*
X152805110Y-105755134D01*
X152836431Y-105738393D01*
X152870409Y-105728085D01*
X152911890Y-105724000D01*
X153588110Y-105724000D01*
X153629591Y-105728085D01*
G37*
G36*
X149993604Y-105253347D02*
G01*
X150030144Y-105264432D01*
X150063821Y-105282433D01*
X150093341Y-105306659D01*
X150117567Y-105336179D01*
X150135568Y-105369856D01*
X150146653Y-105406396D01*
X150151000Y-105450538D01*
X150151000Y-106399462D01*
X150146653Y-106443604D01*
X150135568Y-106480144D01*
X150117567Y-106513821D01*
X150093341Y-106543341D01*
X150063821Y-106567567D01*
X150030144Y-106585568D01*
X149993604Y-106596653D01*
X149949462Y-106601000D01*
X148050538Y-106601000D01*
X148006396Y-106596653D01*
X147969856Y-106585568D01*
X147936179Y-106567567D01*
X147906659Y-106543341D01*
X147882433Y-106513821D01*
X147864432Y-106480144D01*
X147853347Y-106443604D01*
X147849000Y-106399462D01*
X147849000Y-105450538D01*
X147853347Y-105406396D01*
X147864432Y-105369856D01*
X147882433Y-105336179D01*
X147906659Y-105306659D01*
X147936179Y-105282433D01*
X147969856Y-105264432D01*
X148006396Y-105253347D01*
X148050538Y-105249000D01*
X149949462Y-105249000D01*
X149993604Y-105253347D01*
G37*
G36*
X132379591Y-105478085D02*
G01*
X132413569Y-105488393D01*
X132444890Y-105505134D01*
X132472339Y-105527661D01*
X132494866Y-105555110D01*
X132511607Y-105586431D01*
X132521915Y-105620409D01*
X132526000Y-105661890D01*
X132526000Y-106338110D01*
X132521915Y-106379591D01*
X132511607Y-106413569D01*
X132494866Y-106444890D01*
X132472339Y-106472339D01*
X132444890Y-106494866D01*
X132413569Y-106511607D01*
X132379591Y-106521915D01*
X132338110Y-106526000D01*
X131736890Y-106526000D01*
X131695409Y-106521915D01*
X131661431Y-106511607D01*
X131630110Y-106494866D01*
X131602661Y-106472339D01*
X131580134Y-106444890D01*
X131563393Y-106413569D01*
X131553085Y-106379591D01*
X131549000Y-106338110D01*
X131549000Y-105661890D01*
X131553085Y-105620409D01*
X131563393Y-105586431D01*
X131580134Y-105555110D01*
X131602661Y-105527661D01*
X131630110Y-105505134D01*
X131661431Y-105488393D01*
X131695409Y-105478085D01*
X131736890Y-105474000D01*
X132338110Y-105474000D01*
X132379591Y-105478085D01*
G37*
G36*
X130804591Y-105478085D02*
G01*
X130838569Y-105488393D01*
X130869890Y-105505134D01*
X130897339Y-105527661D01*
X130919866Y-105555110D01*
X130936607Y-105586431D01*
X130946915Y-105620409D01*
X130951000Y-105661890D01*
X130951000Y-106338110D01*
X130946915Y-106379591D01*
X130936607Y-106413569D01*
X130919866Y-106444890D01*
X130897339Y-106472339D01*
X130869890Y-106494866D01*
X130838569Y-106511607D01*
X130804591Y-106521915D01*
X130763110Y-106526000D01*
X130161890Y-106526000D01*
X130120409Y-106521915D01*
X130086431Y-106511607D01*
X130055110Y-106494866D01*
X130027661Y-106472339D01*
X130005134Y-106444890D01*
X129988393Y-106413569D01*
X129978085Y-106379591D01*
X129974000Y-106338110D01*
X129974000Y-105661890D01*
X129978085Y-105620409D01*
X129988393Y-105586431D01*
X130005134Y-105555110D01*
X130027661Y-105527661D01*
X130055110Y-105505134D01*
X130086431Y-105488393D01*
X130120409Y-105478085D01*
X130161890Y-105474000D01*
X130763110Y-105474000D01*
X130804591Y-105478085D01*
G37*
G36*
X147229591Y-105278085D02*
G01*
X147263569Y-105288393D01*
X147294890Y-105305134D01*
X147322339Y-105327661D01*
X147344866Y-105355110D01*
X147361607Y-105386431D01*
X147371915Y-105420409D01*
X147376000Y-105461890D01*
X147376000Y-106063110D01*
X147371915Y-106104591D01*
X147361607Y-106138569D01*
X147344866Y-106169890D01*
X147322339Y-106197339D01*
X147294890Y-106219866D01*
X147263569Y-106236607D01*
X147229591Y-106246915D01*
X147188110Y-106251000D01*
X146511890Y-106251000D01*
X146470409Y-106246915D01*
X146436431Y-106236607D01*
X146405110Y-106219866D01*
X146377661Y-106197339D01*
X146355134Y-106169890D01*
X146338393Y-106138569D01*
X146328085Y-106104591D01*
X146324000Y-106063110D01*
X146324000Y-105461890D01*
X146328085Y-105420409D01*
X146338393Y-105386431D01*
X146355134Y-105355110D01*
X146377661Y-105327661D01*
X146405110Y-105305134D01*
X146436431Y-105288393D01*
X146470409Y-105278085D01*
X146511890Y-105274000D01*
X147188110Y-105274000D01*
X147229591Y-105278085D01*
G37*
G36*
X117584802Y-103775723D02*
G01*
X117594225Y-103778581D01*
X117594227Y-103778582D01*
X117602913Y-103783225D01*
X117602914Y-103783226D01*
X117602916Y-103783227D01*
X117618209Y-103795778D01*
X117638583Y-103809392D01*
X117661222Y-103818770D01*
X117685255Y-103823551D01*
X117697509Y-103824153D01*
X119418859Y-103824153D01*
X119434802Y-103825723D01*
X119444225Y-103828581D01*
X119444227Y-103828582D01*
X119452913Y-103833225D01*
X119452914Y-103833226D01*
X119452916Y-103833227D01*
X119460527Y-103839473D01*
X119466773Y-103847084D01*
X119471419Y-103855775D01*
X119474277Y-103865198D01*
X119475847Y-103881141D01*
X119475847Y-106118859D01*
X119475242Y-106125000D01*
X119474277Y-106134802D01*
X119471418Y-106144227D01*
X119469755Y-106147339D01*
X119466773Y-106152916D01*
X119460527Y-106160527D01*
X119452916Y-106166773D01*
X119452914Y-106166774D01*
X119452913Y-106166775D01*
X119444227Y-106171418D01*
X119444225Y-106171419D01*
X119434802Y-106174277D01*
X119418859Y-106175847D01*
X117697509Y-106175847D01*
X117673123Y-106178249D01*
X117649674Y-106185362D01*
X117628063Y-106196913D01*
X117618209Y-106204222D01*
X117602916Y-106216773D01*
X117602914Y-106216774D01*
X117602913Y-106216775D01*
X117597130Y-106219866D01*
X117594225Y-106221419D01*
X117584802Y-106224277D01*
X117568859Y-106225847D01*
X116961141Y-106225847D01*
X116945198Y-106224277D01*
X116935775Y-106221419D01*
X116932870Y-106219866D01*
X116927087Y-106216775D01*
X116927086Y-106216774D01*
X116927084Y-106216773D01*
X116919473Y-106210527D01*
X116913227Y-106202916D01*
X116912203Y-106201000D01*
X116908582Y-106194227D01*
X116906271Y-106186607D01*
X116905723Y-106184802D01*
X116904153Y-106168859D01*
X116904153Y-105781141D01*
X116905723Y-105765198D01*
X116908581Y-105755775D01*
X116913227Y-105747084D01*
X116926612Y-105730774D01*
X116928075Y-105729312D01*
X116941691Y-105708939D01*
X116951072Y-105686302D01*
X116955855Y-105662269D01*
X116955859Y-105637765D01*
X116951082Y-105613731D01*
X116941707Y-105591091D01*
X116928096Y-105570715D01*
X116926638Y-105569257D01*
X116913227Y-105552916D01*
X116912203Y-105551000D01*
X116908582Y-105544227D01*
X116905723Y-105534802D01*
X116904758Y-105525000D01*
X116904153Y-105518859D01*
X116904153Y-105131141D01*
X116905723Y-105115198D01*
X116908581Y-105105775D01*
X116913227Y-105097084D01*
X116926612Y-105080774D01*
X116928075Y-105079312D01*
X116941691Y-105058939D01*
X116951072Y-105036302D01*
X116955855Y-105012269D01*
X116955859Y-104987765D01*
X116951082Y-104963731D01*
X116941707Y-104941091D01*
X116928096Y-104920715D01*
X116926638Y-104919257D01*
X116913227Y-104902916D01*
X116908581Y-104894225D01*
X116905723Y-104884802D01*
X116904153Y-104868859D01*
X116904153Y-104481141D01*
X116905723Y-104465198D01*
X116908581Y-104455775D01*
X116909698Y-104453686D01*
X116913225Y-104447087D01*
X116915028Y-104444890D01*
X116926612Y-104430774D01*
X116928075Y-104429312D01*
X116941691Y-104408939D01*
X116951072Y-104386302D01*
X116955855Y-104362269D01*
X116955859Y-104337765D01*
X116951082Y-104313731D01*
X116941707Y-104291091D01*
X116928096Y-104270715D01*
X116926638Y-104269257D01*
X116913227Y-104252916D01*
X116908581Y-104244225D01*
X116905723Y-104234802D01*
X116904153Y-104218859D01*
X116904153Y-103831141D01*
X116905723Y-103815198D01*
X116908581Y-103805775D01*
X116913227Y-103797084D01*
X116919473Y-103789473D01*
X116927084Y-103783227D01*
X116927086Y-103783226D01*
X116927087Y-103783225D01*
X116935773Y-103778582D01*
X116935775Y-103778581D01*
X116945198Y-103775723D01*
X116961141Y-103774153D01*
X117568859Y-103774153D01*
X117584802Y-103775723D01*
G37*
G36*
X124429802Y-103775723D02*
G01*
X124439225Y-103778581D01*
X124439227Y-103778582D01*
X124447913Y-103783225D01*
X124447914Y-103783226D01*
X124447916Y-103783227D01*
X124463209Y-103795778D01*
X124483583Y-103809392D01*
X124506222Y-103818770D01*
X124530255Y-103823551D01*
X124542509Y-103824153D01*
X126263859Y-103824153D01*
X126279802Y-103825723D01*
X126289225Y-103828581D01*
X126289227Y-103828582D01*
X126297913Y-103833225D01*
X126297914Y-103833226D01*
X126297916Y-103833227D01*
X126305527Y-103839473D01*
X126311773Y-103847084D01*
X126316419Y-103855775D01*
X126319277Y-103865198D01*
X126320847Y-103881141D01*
X126320847Y-106118859D01*
X126320242Y-106125000D01*
X126319277Y-106134802D01*
X126316418Y-106144227D01*
X126314755Y-106147339D01*
X126311773Y-106152916D01*
X126305527Y-106160527D01*
X126297916Y-106166773D01*
X126297914Y-106166774D01*
X126297913Y-106166775D01*
X126289227Y-106171418D01*
X126289225Y-106171419D01*
X126279802Y-106174277D01*
X126263859Y-106175847D01*
X124542509Y-106175847D01*
X124518123Y-106178249D01*
X124494674Y-106185362D01*
X124473063Y-106196913D01*
X124463209Y-106204222D01*
X124447916Y-106216773D01*
X124447914Y-106216774D01*
X124447913Y-106216775D01*
X124442130Y-106219866D01*
X124439225Y-106221419D01*
X124429802Y-106224277D01*
X124413859Y-106225847D01*
X123806141Y-106225847D01*
X123790198Y-106224277D01*
X123780775Y-106221419D01*
X123777870Y-106219866D01*
X123772087Y-106216775D01*
X123772086Y-106216774D01*
X123772084Y-106216773D01*
X123764473Y-106210527D01*
X123758227Y-106202916D01*
X123757203Y-106201000D01*
X123753582Y-106194227D01*
X123751271Y-106186607D01*
X123750723Y-106184802D01*
X123749153Y-106168859D01*
X123749153Y-105781141D01*
X123750723Y-105765198D01*
X123753581Y-105755775D01*
X123758227Y-105747084D01*
X123771612Y-105730774D01*
X123773075Y-105729312D01*
X123786691Y-105708939D01*
X123796072Y-105686302D01*
X123800855Y-105662269D01*
X123800859Y-105637765D01*
X123796082Y-105613731D01*
X123786707Y-105591091D01*
X123773096Y-105570715D01*
X123771638Y-105569257D01*
X123758227Y-105552916D01*
X123757203Y-105551000D01*
X123753582Y-105544227D01*
X123750723Y-105534802D01*
X123749758Y-105525000D01*
X123749153Y-105518859D01*
X123749153Y-105131141D01*
X123750723Y-105115198D01*
X123753581Y-105105775D01*
X123758227Y-105097084D01*
X123771612Y-105080774D01*
X123773075Y-105079312D01*
X123786691Y-105058939D01*
X123796072Y-105036302D01*
X123800855Y-105012269D01*
X123800859Y-104987765D01*
X123796082Y-104963731D01*
X123786707Y-104941091D01*
X123773096Y-104920715D01*
X123771638Y-104919257D01*
X123758227Y-104902916D01*
X123753581Y-104894225D01*
X123750723Y-104884802D01*
X123749153Y-104868859D01*
X123749153Y-104481141D01*
X123750723Y-104465198D01*
X123753581Y-104455775D01*
X123754698Y-104453686D01*
X123758225Y-104447087D01*
X123760028Y-104444890D01*
X123771612Y-104430774D01*
X123773075Y-104429312D01*
X123786691Y-104408939D01*
X123796072Y-104386302D01*
X123800855Y-104362269D01*
X123800859Y-104337765D01*
X123796082Y-104313731D01*
X123786707Y-104291091D01*
X123773096Y-104270715D01*
X123771638Y-104269257D01*
X123758227Y-104252916D01*
X123753581Y-104244225D01*
X123750723Y-104234802D01*
X123749153Y-104218859D01*
X123749153Y-103831141D01*
X123750723Y-103815198D01*
X123753581Y-103805775D01*
X123758227Y-103797084D01*
X123764473Y-103789473D01*
X123772084Y-103783227D01*
X123772086Y-103783226D01*
X123772087Y-103783225D01*
X123780773Y-103778582D01*
X123780775Y-103778581D01*
X123790198Y-103775723D01*
X123806141Y-103774153D01*
X124413859Y-103774153D01*
X124429802Y-103775723D01*
G37*
G36*
X120905000Y-106225000D02*
G01*
X119975000Y-106225000D01*
X119975000Y-103775000D01*
X120905000Y-103775000D01*
X120905000Y-106225000D01*
G37*
G36*
X127750000Y-106225000D02*
G01*
X126820000Y-106225000D01*
X126820000Y-103775000D01*
X127750000Y-103775000D01*
X127750000Y-106225000D01*
G37*
G36*
X134629591Y-105228085D02*
G01*
X134663569Y-105238393D01*
X134694890Y-105255134D01*
X134722339Y-105277661D01*
X134744866Y-105305110D01*
X134761607Y-105336431D01*
X134771915Y-105370409D01*
X134776000Y-105411890D01*
X134776000Y-106013110D01*
X134771915Y-106054591D01*
X134761607Y-106088569D01*
X134744866Y-106119890D01*
X134722339Y-106147339D01*
X134694890Y-106169866D01*
X134663569Y-106186607D01*
X134629591Y-106196915D01*
X134588110Y-106201000D01*
X133911890Y-106201000D01*
X133870409Y-106196915D01*
X133836431Y-106186607D01*
X133805110Y-106169866D01*
X133777661Y-106147339D01*
X133755134Y-106119890D01*
X133738393Y-106088569D01*
X133728085Y-106054591D01*
X133724000Y-106013110D01*
X133724000Y-105411890D01*
X133728085Y-105370409D01*
X133738393Y-105336431D01*
X133755134Y-105305110D01*
X133777661Y-105277661D01*
X133805110Y-105255134D01*
X133836431Y-105238393D01*
X133870409Y-105228085D01*
X133911890Y-105224000D01*
X134588110Y-105224000D01*
X134629591Y-105228085D01*
G37*
G36*
X151801000Y-106201000D02*
G01*
X151199000Y-106201000D01*
X151199000Y-105599000D01*
X151801000Y-105599000D01*
X151801000Y-106201000D01*
G37*
G36*
X157379434Y-104453686D02*
G01*
X157419284Y-104465774D01*
X157455999Y-104485399D01*
X157488186Y-104511814D01*
X157514601Y-104544001D01*
X157534226Y-104580716D01*
X157546314Y-104620566D01*
X157551000Y-104668141D01*
X157551000Y-105331859D01*
X157546314Y-105379434D01*
X157534226Y-105419284D01*
X157514601Y-105455999D01*
X157488186Y-105488186D01*
X157455999Y-105514601D01*
X157419284Y-105534226D01*
X157379434Y-105546314D01*
X157331859Y-105551000D01*
X154868141Y-105551000D01*
X154820566Y-105546314D01*
X154780716Y-105534226D01*
X154744001Y-105514601D01*
X154711814Y-105488186D01*
X154685399Y-105455999D01*
X154665774Y-105419284D01*
X154653686Y-105379434D01*
X154649000Y-105331859D01*
X154649000Y-104668141D01*
X154653686Y-104620566D01*
X154665774Y-104580716D01*
X154685399Y-104544001D01*
X154711814Y-104511814D01*
X154744001Y-104485399D01*
X154780716Y-104465774D01*
X154820566Y-104453686D01*
X154868141Y-104449000D01*
X157331859Y-104449000D01*
X157379434Y-104453686D01*
G37*
G36*
X141129591Y-104228085D02*
G01*
X141163569Y-104238393D01*
X141194890Y-104255134D01*
X141222339Y-104277661D01*
X141244866Y-104305110D01*
X141261607Y-104336431D01*
X141271915Y-104370409D01*
X141276000Y-104411890D01*
X141276000Y-105088110D01*
X141271915Y-105129591D01*
X141261607Y-105163569D01*
X141244866Y-105194890D01*
X141222339Y-105222339D01*
X141194890Y-105244866D01*
X141163569Y-105261607D01*
X141129591Y-105271915D01*
X141088110Y-105276000D01*
X140486890Y-105276000D01*
X140445409Y-105271915D01*
X140411431Y-105261607D01*
X140380110Y-105244866D01*
X140352661Y-105222339D01*
X140330134Y-105194890D01*
X140313393Y-105163569D01*
X140303085Y-105129591D01*
X140299000Y-105088110D01*
X140299000Y-104411890D01*
X140303085Y-104370409D01*
X140313393Y-104336431D01*
X140330134Y-104305110D01*
X140352661Y-104277661D01*
X140380110Y-104255134D01*
X140411431Y-104238393D01*
X140445409Y-104228085D01*
X140486890Y-104224000D01*
X141088110Y-104224000D01*
X141129591Y-104228085D01*
G37*
G36*
X139554591Y-104228085D02*
G01*
X139588569Y-104238393D01*
X139619890Y-104255134D01*
X139647339Y-104277661D01*
X139669866Y-104305110D01*
X139686607Y-104336431D01*
X139696915Y-104370409D01*
X139701000Y-104411890D01*
X139701000Y-105088110D01*
X139696915Y-105129591D01*
X139686607Y-105163569D01*
X139669866Y-105194890D01*
X139647339Y-105222339D01*
X139619890Y-105244866D01*
X139588569Y-105261607D01*
X139554591Y-105271915D01*
X139513110Y-105276000D01*
X138911890Y-105276000D01*
X138870409Y-105271915D01*
X138836431Y-105261607D01*
X138805110Y-105244866D01*
X138777661Y-105222339D01*
X138755134Y-105194890D01*
X138738393Y-105163569D01*
X138728085Y-105129591D01*
X138724000Y-105088110D01*
X138724000Y-104411890D01*
X138728085Y-104370409D01*
X138738393Y-104336431D01*
X138755134Y-104305110D01*
X138777661Y-104277661D01*
X138805110Y-104255134D01*
X138836431Y-104238393D01*
X138870409Y-104228085D01*
X138911890Y-104224000D01*
X139513110Y-104224000D01*
X139554591Y-104228085D01*
G37*
G36*
X137879591Y-104228085D02*
G01*
X137913569Y-104238393D01*
X137944890Y-104255134D01*
X137972339Y-104277661D01*
X137994866Y-104305110D01*
X138011607Y-104336431D01*
X138021915Y-104370409D01*
X138026000Y-104411890D01*
X138026000Y-105088110D01*
X138021915Y-105129591D01*
X138011607Y-105163569D01*
X137994866Y-105194890D01*
X137972339Y-105222339D01*
X137944890Y-105244866D01*
X137913569Y-105261607D01*
X137879591Y-105271915D01*
X137838110Y-105276000D01*
X137236890Y-105276000D01*
X137195409Y-105271915D01*
X137161431Y-105261607D01*
X137130110Y-105244866D01*
X137102661Y-105222339D01*
X137080134Y-105194890D01*
X137063393Y-105163569D01*
X137053085Y-105129591D01*
X137049000Y-105088110D01*
X137049000Y-104411890D01*
X137053085Y-104370409D01*
X137063393Y-104336431D01*
X137080134Y-104305110D01*
X137102661Y-104277661D01*
X137130110Y-104255134D01*
X137161431Y-104238393D01*
X137195409Y-104228085D01*
X137236890Y-104224000D01*
X137838110Y-104224000D01*
X137879591Y-104228085D01*
G37*
G36*
X136304591Y-104228085D02*
G01*
X136338569Y-104238393D01*
X136369890Y-104255134D01*
X136397339Y-104277661D01*
X136419866Y-104305110D01*
X136436607Y-104336431D01*
X136446915Y-104370409D01*
X136451000Y-104411890D01*
X136451000Y-105088110D01*
X136446915Y-105129591D01*
X136436607Y-105163569D01*
X136419866Y-105194890D01*
X136397339Y-105222339D01*
X136369890Y-105244866D01*
X136338569Y-105261607D01*
X136304591Y-105271915D01*
X136263110Y-105276000D01*
X135661890Y-105276000D01*
X135620409Y-105271915D01*
X135586431Y-105261607D01*
X135555110Y-105244866D01*
X135527661Y-105222339D01*
X135505134Y-105194890D01*
X135488393Y-105163569D01*
X135478085Y-105129591D01*
X135474000Y-105088110D01*
X135474000Y-104411890D01*
X135478085Y-104370409D01*
X135488393Y-104336431D01*
X135505134Y-104305110D01*
X135527661Y-104277661D01*
X135555110Y-104255134D01*
X135586431Y-104238393D01*
X135620409Y-104228085D01*
X135661890Y-104224000D01*
X136263110Y-104224000D01*
X136304591Y-104228085D01*
G37*
G36*
X144129591Y-104303085D02*
G01*
X144163569Y-104313393D01*
X144194890Y-104330134D01*
X144222339Y-104352661D01*
X144244866Y-104380110D01*
X144261607Y-104411431D01*
X144271915Y-104445409D01*
X144276000Y-104486890D01*
X144276000Y-105088110D01*
X144271915Y-105129591D01*
X144261607Y-105163569D01*
X144244866Y-105194890D01*
X144222339Y-105222339D01*
X144194890Y-105244866D01*
X144163569Y-105261607D01*
X144129591Y-105271915D01*
X144088110Y-105276000D01*
X143411890Y-105276000D01*
X143370409Y-105271915D01*
X143336431Y-105261607D01*
X143305110Y-105244866D01*
X143277661Y-105222339D01*
X143255134Y-105194890D01*
X143238393Y-105163569D01*
X143228085Y-105129591D01*
X143224000Y-105088110D01*
X143224000Y-104486890D01*
X143228085Y-104445409D01*
X143238393Y-104411431D01*
X143255134Y-104380110D01*
X143277661Y-104352661D01*
X143305110Y-104330134D01*
X143336431Y-104313393D01*
X143370409Y-104303085D01*
X143411890Y-104299000D01*
X144088110Y-104299000D01*
X144129591Y-104303085D01*
G37*
G36*
X145629591Y-104303085D02*
G01*
X145663569Y-104313393D01*
X145694890Y-104330134D01*
X145722339Y-104352661D01*
X145744866Y-104380110D01*
X145761607Y-104411431D01*
X145771915Y-104445409D01*
X145776000Y-104486890D01*
X145776000Y-105088110D01*
X145771915Y-105129591D01*
X145761607Y-105163569D01*
X145744866Y-105194890D01*
X145722339Y-105222339D01*
X145694890Y-105244866D01*
X145663569Y-105261607D01*
X145629591Y-105271915D01*
X145588110Y-105276000D01*
X144911890Y-105276000D01*
X144870409Y-105271915D01*
X144836431Y-105261607D01*
X144805110Y-105244866D01*
X144777661Y-105222339D01*
X144755134Y-105194890D01*
X144738393Y-105163569D01*
X144728085Y-105129591D01*
X144724000Y-105088110D01*
X144724000Y-104486890D01*
X144728085Y-104445409D01*
X144738393Y-104411431D01*
X144755134Y-104380110D01*
X144777661Y-104352661D01*
X144805110Y-104330134D01*
X144836431Y-104313393D01*
X144870409Y-104303085D01*
X144911890Y-104299000D01*
X145588110Y-104299000D01*
X145629591Y-104303085D01*
G37*
G36*
X149059468Y-103253565D02*
G01*
X149098138Y-103265296D01*
X149133777Y-103284346D01*
X149165017Y-103309983D01*
X149190654Y-103341223D01*
X149209704Y-103376862D01*
X149221435Y-103415532D01*
X149226000Y-103461888D01*
X149226000Y-104538112D01*
X149221435Y-104584468D01*
X149209704Y-104623138D01*
X149190654Y-104658777D01*
X149165017Y-104690017D01*
X149133777Y-104715654D01*
X149098138Y-104734704D01*
X149059468Y-104746435D01*
X149013112Y-104751000D01*
X148361888Y-104751000D01*
X148315532Y-104746435D01*
X148276862Y-104734704D01*
X148241223Y-104715654D01*
X148209983Y-104690017D01*
X148184346Y-104658777D01*
X148165296Y-104623138D01*
X148153565Y-104584468D01*
X148149000Y-104538112D01*
X148149000Y-103461888D01*
X148153565Y-103415532D01*
X148165296Y-103376862D01*
X148184346Y-103341223D01*
X148209983Y-103309983D01*
X148241223Y-103284346D01*
X148276862Y-103265296D01*
X148315532Y-103253565D01*
X148361888Y-103249000D01*
X149013112Y-103249000D01*
X149059468Y-103253565D01*
G37*
G36*
X147184468Y-103253565D02*
G01*
X147223138Y-103265296D01*
X147258777Y-103284346D01*
X147290017Y-103309983D01*
X147315654Y-103341223D01*
X147334704Y-103376862D01*
X147346435Y-103415532D01*
X147351000Y-103461888D01*
X147351000Y-104538112D01*
X147346435Y-104584468D01*
X147334704Y-104623138D01*
X147315654Y-104658777D01*
X147290017Y-104690017D01*
X147258777Y-104715654D01*
X147223138Y-104734704D01*
X147184468Y-104746435D01*
X147138112Y-104751000D01*
X146486888Y-104751000D01*
X146440532Y-104746435D01*
X146401862Y-104734704D01*
X146366223Y-104715654D01*
X146334983Y-104690017D01*
X146309346Y-104658777D01*
X146290296Y-104623138D01*
X146278565Y-104584468D01*
X146274000Y-104538112D01*
X146274000Y-103461888D01*
X146278565Y-103415532D01*
X146290296Y-103376862D01*
X146309346Y-103341223D01*
X146334983Y-103309983D01*
X146366223Y-103284346D01*
X146401862Y-103265296D01*
X146440532Y-103253565D01*
X146486888Y-103249000D01*
X147138112Y-103249000D01*
X147184468Y-103253565D01*
G37*
G36*
X152559468Y-103253565D02*
G01*
X152598138Y-103265296D01*
X152633777Y-103284346D01*
X152665017Y-103309983D01*
X152690654Y-103341223D01*
X152709704Y-103376862D01*
X152721435Y-103415532D01*
X152726000Y-103461888D01*
X152726000Y-104538112D01*
X152721435Y-104584468D01*
X152709704Y-104623138D01*
X152690654Y-104658777D01*
X152665017Y-104690017D01*
X152633777Y-104715654D01*
X152598138Y-104734704D01*
X152559468Y-104746435D01*
X152513112Y-104751000D01*
X151861888Y-104751000D01*
X151815532Y-104746435D01*
X151776862Y-104734704D01*
X151741223Y-104715654D01*
X151709983Y-104690017D01*
X151684346Y-104658777D01*
X151665296Y-104623138D01*
X151653565Y-104584468D01*
X151649000Y-104538112D01*
X151649000Y-103461888D01*
X151653565Y-103415532D01*
X151665296Y-103376862D01*
X151684346Y-103341223D01*
X151709983Y-103309983D01*
X151741223Y-103284346D01*
X151776862Y-103265296D01*
X151815532Y-103253565D01*
X151861888Y-103249000D01*
X152513112Y-103249000D01*
X152559468Y-103253565D01*
G37*
G36*
X150684468Y-103253565D02*
G01*
X150723138Y-103265296D01*
X150758777Y-103284346D01*
X150790017Y-103309983D01*
X150815654Y-103341223D01*
X150834704Y-103376862D01*
X150846435Y-103415532D01*
X150851000Y-103461888D01*
X150851000Y-104538112D01*
X150846435Y-104584468D01*
X150834704Y-104623138D01*
X150815654Y-104658777D01*
X150790017Y-104690017D01*
X150758777Y-104715654D01*
X150723138Y-104734704D01*
X150684468Y-104746435D01*
X150638112Y-104751000D01*
X149986888Y-104751000D01*
X149940532Y-104746435D01*
X149901862Y-104734704D01*
X149866223Y-104715654D01*
X149834983Y-104690017D01*
X149809346Y-104658777D01*
X149790296Y-104623138D01*
X149778565Y-104584468D01*
X149774000Y-104538112D01*
X149774000Y-103461888D01*
X149778565Y-103415532D01*
X149790296Y-103376862D01*
X149809346Y-103341223D01*
X149834983Y-103309983D01*
X149866223Y-103284346D01*
X149901862Y-103265296D01*
X149940532Y-103253565D01*
X149986888Y-103249000D01*
X150638112Y-103249000D01*
X150684468Y-103253565D01*
G37*
G36*
X130804591Y-103478085D02*
G01*
X130838569Y-103488393D01*
X130869890Y-103505134D01*
X130897339Y-103527661D01*
X130919866Y-103555110D01*
X130936607Y-103586431D01*
X130946915Y-103620409D01*
X130951000Y-103661890D01*
X130951000Y-104338110D01*
X130946915Y-104379591D01*
X130936607Y-104413569D01*
X130919866Y-104444890D01*
X130897339Y-104472339D01*
X130869890Y-104494866D01*
X130838569Y-104511607D01*
X130804591Y-104521915D01*
X130763110Y-104526000D01*
X130161890Y-104526000D01*
X130120409Y-104521915D01*
X130086431Y-104511607D01*
X130055110Y-104494866D01*
X130027661Y-104472339D01*
X130005134Y-104444890D01*
X129988393Y-104413569D01*
X129978085Y-104379591D01*
X129974000Y-104338110D01*
X129974000Y-103661890D01*
X129978085Y-103620409D01*
X129988393Y-103586431D01*
X130005134Y-103555110D01*
X130027661Y-103527661D01*
X130055110Y-103505134D01*
X130086431Y-103488393D01*
X130120409Y-103478085D01*
X130161890Y-103474000D01*
X130763110Y-103474000D01*
X130804591Y-103478085D01*
G37*
G36*
X132379591Y-103478085D02*
G01*
X132413569Y-103488393D01*
X132444890Y-103505134D01*
X132472339Y-103527661D01*
X132494866Y-103555110D01*
X132511607Y-103586431D01*
X132521915Y-103620409D01*
X132526000Y-103661890D01*
X132526000Y-104338110D01*
X132521915Y-104379591D01*
X132511607Y-104413569D01*
X132494866Y-104444890D01*
X132472339Y-104472339D01*
X132444890Y-104494866D01*
X132413569Y-104511607D01*
X132379591Y-104521915D01*
X132338110Y-104526000D01*
X131736890Y-104526000D01*
X131695409Y-104521915D01*
X131661431Y-104511607D01*
X131630110Y-104494866D01*
X131602661Y-104472339D01*
X131580134Y-104444890D01*
X131563393Y-104413569D01*
X131553085Y-104379591D01*
X131549000Y-104338110D01*
X131549000Y-103661890D01*
X131553085Y-103620409D01*
X131563393Y-103586431D01*
X131580134Y-103555110D01*
X131602661Y-103527661D01*
X131630110Y-103505134D01*
X131661431Y-103488393D01*
X131695409Y-103478085D01*
X131736890Y-103474000D01*
X132338110Y-103474000D01*
X132379591Y-103478085D01*
G37*
G36*
X139379591Y-102728085D02*
G01*
X139413569Y-102738393D01*
X139444890Y-102755134D01*
X139472339Y-102777661D01*
X139494866Y-102805110D01*
X139511607Y-102836431D01*
X139521915Y-102870409D01*
X139526000Y-102911890D01*
X139526000Y-103588110D01*
X139521915Y-103629591D01*
X139511607Y-103663569D01*
X139494866Y-103694890D01*
X139472339Y-103722339D01*
X139444890Y-103744866D01*
X139413569Y-103761607D01*
X139379591Y-103771915D01*
X139338110Y-103776000D01*
X138736890Y-103776000D01*
X138695409Y-103771915D01*
X138661431Y-103761607D01*
X138630110Y-103744866D01*
X138602661Y-103722339D01*
X138580134Y-103694890D01*
X138563393Y-103663569D01*
X138553085Y-103629591D01*
X138549000Y-103588110D01*
X138549000Y-102911890D01*
X138553085Y-102870409D01*
X138563393Y-102836431D01*
X138580134Y-102805110D01*
X138602661Y-102777661D01*
X138630110Y-102755134D01*
X138661431Y-102738393D01*
X138695409Y-102728085D01*
X138736890Y-102724000D01*
X139338110Y-102724000D01*
X139379591Y-102728085D01*
G37*
G36*
X141129591Y-102803085D02*
G01*
X141163569Y-102813393D01*
X141194890Y-102830134D01*
X141222339Y-102852661D01*
X141244866Y-102880110D01*
X141261607Y-102911431D01*
X141271915Y-102945409D01*
X141276000Y-102986890D01*
X141276000Y-103588110D01*
X141271915Y-103629591D01*
X141261607Y-103663569D01*
X141244866Y-103694890D01*
X141222339Y-103722339D01*
X141194890Y-103744866D01*
X141163569Y-103761607D01*
X141129591Y-103771915D01*
X141088110Y-103776000D01*
X140411890Y-103776000D01*
X140370409Y-103771915D01*
X140336431Y-103761607D01*
X140305110Y-103744866D01*
X140277661Y-103722339D01*
X140255134Y-103694890D01*
X140238393Y-103663569D01*
X140228085Y-103629591D01*
X140224000Y-103588110D01*
X140224000Y-102986890D01*
X140228085Y-102945409D01*
X140238393Y-102911431D01*
X140255134Y-102880110D01*
X140277661Y-102852661D01*
X140305110Y-102830134D01*
X140336431Y-102813393D01*
X140370409Y-102803085D01*
X140411890Y-102799000D01*
X141088110Y-102799000D01*
X141129591Y-102803085D01*
G37*
G36*
X137804591Y-102728085D02*
G01*
X137838569Y-102738393D01*
X137869890Y-102755134D01*
X137897339Y-102777661D01*
X137919866Y-102805110D01*
X137936607Y-102836431D01*
X137946915Y-102870409D01*
X137951000Y-102911890D01*
X137951000Y-103588110D01*
X137946915Y-103629591D01*
X137936607Y-103663569D01*
X137919866Y-103694890D01*
X137897339Y-103722339D01*
X137869890Y-103744866D01*
X137838569Y-103761607D01*
X137804591Y-103771915D01*
X137763110Y-103776000D01*
X137161890Y-103776000D01*
X137120409Y-103771915D01*
X137086431Y-103761607D01*
X137055110Y-103744866D01*
X137027661Y-103722339D01*
X137005134Y-103694890D01*
X136988393Y-103663569D01*
X136978085Y-103629591D01*
X136974000Y-103588110D01*
X136974000Y-102911890D01*
X136978085Y-102870409D01*
X136988393Y-102836431D01*
X137005134Y-102805110D01*
X137027661Y-102777661D01*
X137055110Y-102755134D01*
X137086431Y-102738393D01*
X137120409Y-102728085D01*
X137161890Y-102724000D01*
X137763110Y-102724000D01*
X137804591Y-102728085D01*
G37*
G36*
X136379591Y-102803085D02*
G01*
X136413569Y-102813393D01*
X136444890Y-102830134D01*
X136472339Y-102852661D01*
X136494866Y-102880110D01*
X136511607Y-102911431D01*
X136521915Y-102945409D01*
X136526000Y-102986890D01*
X136526000Y-103588110D01*
X136521915Y-103629591D01*
X136511607Y-103663569D01*
X136494866Y-103694890D01*
X136472339Y-103722339D01*
X136444890Y-103744866D01*
X136413569Y-103761607D01*
X136379591Y-103771915D01*
X136338110Y-103776000D01*
X135661890Y-103776000D01*
X135620409Y-103771915D01*
X135586431Y-103761607D01*
X135555110Y-103744866D01*
X135527661Y-103722339D01*
X135505134Y-103694890D01*
X135488393Y-103663569D01*
X135478085Y-103629591D01*
X135474000Y-103588110D01*
X135474000Y-102986890D01*
X135478085Y-102945409D01*
X135488393Y-102911431D01*
X135505134Y-102880110D01*
X135527661Y-102852661D01*
X135555110Y-102830134D01*
X135586431Y-102813393D01*
X135620409Y-102803085D01*
X135661890Y-102799000D01*
X136338110Y-102799000D01*
X136379591Y-102803085D01*
G37*
G36*
X145629591Y-102728085D02*
G01*
X145663569Y-102738393D01*
X145694890Y-102755134D01*
X145722339Y-102777661D01*
X145744866Y-102805110D01*
X145761607Y-102836431D01*
X145771915Y-102870409D01*
X145776000Y-102911890D01*
X145776000Y-103513110D01*
X145771915Y-103554591D01*
X145761607Y-103588569D01*
X145744866Y-103619890D01*
X145722339Y-103647339D01*
X145694890Y-103669866D01*
X145663569Y-103686607D01*
X145629591Y-103696915D01*
X145588110Y-103701000D01*
X144911890Y-103701000D01*
X144870409Y-103696915D01*
X144836431Y-103686607D01*
X144805110Y-103669866D01*
X144777661Y-103647339D01*
X144755134Y-103619890D01*
X144738393Y-103588569D01*
X144728085Y-103554591D01*
X144724000Y-103513110D01*
X144724000Y-102911890D01*
X144728085Y-102870409D01*
X144738393Y-102836431D01*
X144755134Y-102805110D01*
X144777661Y-102777661D01*
X144805110Y-102755134D01*
X144836431Y-102738393D01*
X144870409Y-102728085D01*
X144911890Y-102724000D01*
X145588110Y-102724000D01*
X145629591Y-102728085D01*
G37*
G36*
X144129591Y-102728085D02*
G01*
X144163569Y-102738393D01*
X144194890Y-102755134D01*
X144222339Y-102777661D01*
X144244866Y-102805110D01*
X144261607Y-102836431D01*
X144271915Y-102870409D01*
X144276000Y-102911890D01*
X144276000Y-103513110D01*
X144271915Y-103554591D01*
X144261607Y-103588569D01*
X144244866Y-103619890D01*
X144222339Y-103647339D01*
X144194890Y-103669866D01*
X144163569Y-103686607D01*
X144129591Y-103696915D01*
X144088110Y-103701000D01*
X143411890Y-103701000D01*
X143370409Y-103696915D01*
X143336431Y-103686607D01*
X143305110Y-103669866D01*
X143277661Y-103647339D01*
X143255134Y-103619890D01*
X143238393Y-103588569D01*
X143228085Y-103554591D01*
X143224000Y-103513110D01*
X143224000Y-102911890D01*
X143228085Y-102870409D01*
X143238393Y-102836431D01*
X143255134Y-102805110D01*
X143277661Y-102777661D01*
X143305110Y-102755134D01*
X143336431Y-102738393D01*
X143370409Y-102728085D01*
X143411890Y-102724000D01*
X144088110Y-102724000D01*
X144129591Y-102728085D01*
G37*
G36*
X160259928Y-102801764D02*
G01*
X160281009Y-102808160D01*
X160300445Y-102818548D01*
X160317476Y-102832524D01*
X160331452Y-102849555D01*
X160341840Y-102868991D01*
X160348236Y-102890072D01*
X160351000Y-102918140D01*
X160351000Y-103381860D01*
X160348236Y-103409928D01*
X160341840Y-103431009D01*
X160331452Y-103450445D01*
X160317476Y-103467476D01*
X160300445Y-103481452D01*
X160281009Y-103491840D01*
X160259928Y-103498236D01*
X160231860Y-103501000D01*
X158668140Y-103501000D01*
X158640072Y-103498236D01*
X158618991Y-103491840D01*
X158599555Y-103481452D01*
X158582524Y-103467476D01*
X158568548Y-103450445D01*
X158558160Y-103431009D01*
X158551764Y-103409928D01*
X158549000Y-103381860D01*
X158549000Y-102918140D01*
X158551764Y-102890072D01*
X158558160Y-102868991D01*
X158568548Y-102849555D01*
X158582524Y-102832524D01*
X158599555Y-102818548D01*
X158618991Y-102808160D01*
X158640072Y-102801764D01*
X158668140Y-102799000D01*
X160231860Y-102799000D01*
X160259928Y-102801764D01*
G37*
G36*
X134768604Y-101228347D02*
G01*
X134805144Y-101239432D01*
X134838821Y-101257433D01*
X134868341Y-101281659D01*
X134892567Y-101311179D01*
X134910568Y-101344856D01*
X134921653Y-101381396D01*
X134926000Y-101425538D01*
X134926000Y-102374462D01*
X134921653Y-102418604D01*
X134910568Y-102455144D01*
X134892567Y-102488821D01*
X134868341Y-102518341D01*
X134838821Y-102542567D01*
X134805144Y-102560568D01*
X134768604Y-102571653D01*
X134724462Y-102576000D01*
X133275538Y-102576000D01*
X133231396Y-102571653D01*
X133194856Y-102560568D01*
X133161179Y-102542567D01*
X133131659Y-102518341D01*
X133107433Y-102488821D01*
X133089432Y-102455144D01*
X133078347Y-102418604D01*
X133074000Y-102374462D01*
X133074000Y-101425538D01*
X133078347Y-101381396D01*
X133089432Y-101344856D01*
X133107433Y-101311179D01*
X133131659Y-101281659D01*
X133161179Y-101257433D01*
X133194856Y-101239432D01*
X133231396Y-101228347D01*
X133275538Y-101224000D01*
X134724462Y-101224000D01*
X134768604Y-101228347D01*
G37*
G36*
X120918604Y-100578347D02*
G01*
X120955144Y-100589432D01*
X120988821Y-100607433D01*
X121018341Y-100631659D01*
X121042567Y-100661179D01*
X121060568Y-100694856D01*
X121071653Y-100731396D01*
X121076000Y-100775538D01*
X121076000Y-102224462D01*
X121071653Y-102268604D01*
X121060568Y-102305144D01*
X121042567Y-102338821D01*
X121018341Y-102368341D01*
X120988821Y-102392567D01*
X120955144Y-102410568D01*
X120918604Y-102421653D01*
X120874462Y-102426000D01*
X119925538Y-102426000D01*
X119881396Y-102421653D01*
X119844856Y-102410568D01*
X119811179Y-102392567D01*
X119781659Y-102368341D01*
X119757433Y-102338821D01*
X119739432Y-102305144D01*
X119728347Y-102268604D01*
X119724000Y-102224462D01*
X119724000Y-100775538D01*
X119728347Y-100731396D01*
X119739432Y-100694856D01*
X119757433Y-100661179D01*
X119781659Y-100631659D01*
X119811179Y-100607433D01*
X119844856Y-100589432D01*
X119881396Y-100578347D01*
X119925538Y-100574000D01*
X120874462Y-100574000D01*
X120918604Y-100578347D01*
G37*
G36*
X118118604Y-100578347D02*
G01*
X118155144Y-100589432D01*
X118188821Y-100607433D01*
X118218341Y-100631659D01*
X118242567Y-100661179D01*
X118260568Y-100694856D01*
X118271653Y-100731396D01*
X118276000Y-100775538D01*
X118276000Y-102224462D01*
X118271653Y-102268604D01*
X118260568Y-102305144D01*
X118242567Y-102338821D01*
X118218341Y-102368341D01*
X118188821Y-102392567D01*
X118155144Y-102410568D01*
X118118604Y-102421653D01*
X118074462Y-102426000D01*
X117125538Y-102426000D01*
X117081396Y-102421653D01*
X117044856Y-102410568D01*
X117011179Y-102392567D01*
X116981659Y-102368341D01*
X116957433Y-102338821D01*
X116939432Y-102305144D01*
X116928347Y-102268604D01*
X116924000Y-102224462D01*
X116924000Y-100775538D01*
X116928347Y-100731396D01*
X116939432Y-100694856D01*
X116957433Y-100661179D01*
X116981659Y-100631659D01*
X117011179Y-100607433D01*
X117044856Y-100589432D01*
X117081396Y-100578347D01*
X117125538Y-100574000D01*
X118074462Y-100574000D01*
X118118604Y-100578347D01*
G37*
G36*
X144304591Y-101228085D02*
G01*
X144338569Y-101238393D01*
X144369890Y-101255134D01*
X144397339Y-101277661D01*
X144419866Y-101305110D01*
X144436607Y-101336431D01*
X144446915Y-101370409D01*
X144451000Y-101411890D01*
X144451000Y-102088110D01*
X144446915Y-102129591D01*
X144436607Y-102163569D01*
X144419866Y-102194890D01*
X144397339Y-102222339D01*
X144369890Y-102244866D01*
X144338569Y-102261607D01*
X144304591Y-102271915D01*
X144263110Y-102276000D01*
X143661890Y-102276000D01*
X143620409Y-102271915D01*
X143586431Y-102261607D01*
X143555110Y-102244866D01*
X143527661Y-102222339D01*
X143505134Y-102194890D01*
X143488393Y-102163569D01*
X143478085Y-102129591D01*
X143474000Y-102088110D01*
X143474000Y-101411890D01*
X143478085Y-101370409D01*
X143488393Y-101336431D01*
X143505134Y-101305110D01*
X143527661Y-101277661D01*
X143555110Y-101255134D01*
X143586431Y-101238393D01*
X143620409Y-101228085D01*
X143661890Y-101224000D01*
X144263110Y-101224000D01*
X144304591Y-101228085D01*
G37*
G36*
X145879591Y-101228085D02*
G01*
X145913569Y-101238393D01*
X145944890Y-101255134D01*
X145972339Y-101277661D01*
X145994866Y-101305110D01*
X146011607Y-101336431D01*
X146021915Y-101370409D01*
X146026000Y-101411890D01*
X146026000Y-102088110D01*
X146021915Y-102129591D01*
X146011607Y-102163569D01*
X145994866Y-102194890D01*
X145972339Y-102222339D01*
X145944890Y-102244866D01*
X145913569Y-102261607D01*
X145879591Y-102271915D01*
X145838110Y-102276000D01*
X145236890Y-102276000D01*
X145195409Y-102271915D01*
X145161431Y-102261607D01*
X145130110Y-102244866D01*
X145102661Y-102222339D01*
X145080134Y-102194890D01*
X145063393Y-102163569D01*
X145053085Y-102129591D01*
X145049000Y-102088110D01*
X145049000Y-101411890D01*
X145053085Y-101370409D01*
X145063393Y-101336431D01*
X145080134Y-101305110D01*
X145102661Y-101277661D01*
X145130110Y-101255134D01*
X145161431Y-101238393D01*
X145195409Y-101228085D01*
X145236890Y-101224000D01*
X145838110Y-101224000D01*
X145879591Y-101228085D01*
G37*
G36*
X160259928Y-101551764D02*
G01*
X160281009Y-101558160D01*
X160300445Y-101568548D01*
X160317476Y-101582524D01*
X160331452Y-101599555D01*
X160341840Y-101618991D01*
X160348236Y-101640072D01*
X160351000Y-101668140D01*
X160351000Y-102131860D01*
X160348236Y-102159928D01*
X160341840Y-102181009D01*
X160331452Y-102200445D01*
X160317476Y-102217476D01*
X160300445Y-102231452D01*
X160281009Y-102241840D01*
X160259928Y-102248236D01*
X160231860Y-102251000D01*
X158668140Y-102251000D01*
X158640072Y-102248236D01*
X158618991Y-102241840D01*
X158599555Y-102231452D01*
X158582524Y-102217476D01*
X158568548Y-102200445D01*
X158558160Y-102181009D01*
X158551764Y-102159928D01*
X158549000Y-102131860D01*
X158549000Y-101668140D01*
X158551764Y-101640072D01*
X158558160Y-101618991D01*
X158568548Y-101599555D01*
X158582524Y-101582524D01*
X158599555Y-101568548D01*
X158618991Y-101558160D01*
X158640072Y-101551764D01*
X158668140Y-101549000D01*
X160231860Y-101549000D01*
X160259928Y-101551764D01*
G37*
G36*
X136379591Y-101228085D02*
G01*
X136413569Y-101238393D01*
X136444890Y-101255134D01*
X136472339Y-101277661D01*
X136494866Y-101305110D01*
X136511607Y-101336431D01*
X136521915Y-101370409D01*
X136526000Y-101411890D01*
X136526000Y-102013110D01*
X136521915Y-102054591D01*
X136511607Y-102088569D01*
X136494866Y-102119890D01*
X136472339Y-102147339D01*
X136444890Y-102169866D01*
X136413569Y-102186607D01*
X136379591Y-102196915D01*
X136338110Y-102201000D01*
X135661890Y-102201000D01*
X135620409Y-102196915D01*
X135586431Y-102186607D01*
X135555110Y-102169866D01*
X135527661Y-102147339D01*
X135505134Y-102119890D01*
X135488393Y-102088569D01*
X135478085Y-102054591D01*
X135474000Y-102013110D01*
X135474000Y-101411890D01*
X135478085Y-101370409D01*
X135488393Y-101336431D01*
X135505134Y-101305110D01*
X135527661Y-101277661D01*
X135555110Y-101255134D01*
X135586431Y-101238393D01*
X135620409Y-101228085D01*
X135661890Y-101224000D01*
X136338110Y-101224000D01*
X136379591Y-101228085D01*
G37*
G36*
X141129591Y-101228085D02*
G01*
X141163569Y-101238393D01*
X141194890Y-101255134D01*
X141222339Y-101277661D01*
X141244866Y-101305110D01*
X141261607Y-101336431D01*
X141271915Y-101370409D01*
X141276000Y-101411890D01*
X141276000Y-102013110D01*
X141271915Y-102054591D01*
X141261607Y-102088569D01*
X141244866Y-102119890D01*
X141222339Y-102147339D01*
X141194890Y-102169866D01*
X141163569Y-102186607D01*
X141129591Y-102196915D01*
X141088110Y-102201000D01*
X140411890Y-102201000D01*
X140370409Y-102196915D01*
X140336431Y-102186607D01*
X140305110Y-102169866D01*
X140277661Y-102147339D01*
X140255134Y-102119890D01*
X140238393Y-102088569D01*
X140228085Y-102054591D01*
X140224000Y-102013110D01*
X140224000Y-101411890D01*
X140228085Y-101370409D01*
X140238393Y-101336431D01*
X140255134Y-101305110D01*
X140277661Y-101277661D01*
X140305110Y-101255134D01*
X140336431Y-101238393D01*
X140370409Y-101228085D01*
X140411890Y-101224000D01*
X141088110Y-101224000D01*
X141129591Y-101228085D01*
G37*
G36*
X150421000Y-101451000D02*
G01*
X149579000Y-101451000D01*
X149579000Y-98949000D01*
X150421000Y-98949000D01*
X150421000Y-101451000D01*
G37*
G36*
X149151000Y-101451000D02*
G01*
X148309000Y-101451000D01*
X148309000Y-98949000D01*
X149151000Y-98949000D01*
X149151000Y-101451000D01*
G37*
G36*
X147881000Y-101451000D02*
G01*
X147039000Y-101451000D01*
X147039000Y-98949000D01*
X147881000Y-98949000D01*
X147881000Y-101451000D01*
G37*
G36*
X152961000Y-101451000D02*
G01*
X152119000Y-101451000D01*
X152119000Y-98949000D01*
X152961000Y-98949000D01*
X152961000Y-101451000D01*
G37*
G36*
X151691000Y-101451000D02*
G01*
X150849000Y-101451000D01*
X150849000Y-98949000D01*
X151691000Y-98949000D01*
X151691000Y-101451000D01*
G37*
G36*
X160259928Y-100301764D02*
G01*
X160281009Y-100308160D01*
X160300445Y-100318548D01*
X160317476Y-100332524D01*
X160331452Y-100349555D01*
X160341840Y-100368991D01*
X160348236Y-100390072D01*
X160351000Y-100418140D01*
X160351000Y-100881860D01*
X160348236Y-100909928D01*
X160341840Y-100931009D01*
X160331452Y-100950445D01*
X160317476Y-100967476D01*
X160300445Y-100981452D01*
X160281009Y-100991840D01*
X160259928Y-100998236D01*
X160231860Y-101001000D01*
X158668140Y-101001000D01*
X158640072Y-100998236D01*
X158618991Y-100991840D01*
X158599555Y-100981452D01*
X158582524Y-100967476D01*
X158568548Y-100950445D01*
X158558160Y-100931009D01*
X158551764Y-100909928D01*
X158549000Y-100881860D01*
X158549000Y-100418140D01*
X158551764Y-100390072D01*
X158558160Y-100368991D01*
X158568548Y-100349555D01*
X158582524Y-100332524D01*
X158599555Y-100318548D01*
X158618991Y-100308160D01*
X158640072Y-100301764D01*
X158668140Y-100299000D01*
X160231860Y-100299000D01*
X160259928Y-100301764D01*
G37*
G36*
X139379591Y-99553085D02*
G01*
X139413569Y-99563393D01*
X139444890Y-99580134D01*
X139472339Y-99602661D01*
X139494866Y-99630110D01*
X139511607Y-99661431D01*
X139521915Y-99695409D01*
X139526000Y-99736890D01*
X139526000Y-100338110D01*
X139521915Y-100379591D01*
X139511607Y-100413569D01*
X139494866Y-100444890D01*
X139472339Y-100472339D01*
X139444890Y-100494866D01*
X139413569Y-100511607D01*
X139379591Y-100521915D01*
X139338110Y-100526000D01*
X138661890Y-100526000D01*
X138620409Y-100521915D01*
X138586431Y-100511607D01*
X138555110Y-100494866D01*
X138527661Y-100472339D01*
X138505134Y-100444890D01*
X138488393Y-100413569D01*
X138478085Y-100379591D01*
X138474000Y-100338110D01*
X138474000Y-99736890D01*
X138478085Y-99695409D01*
X138488393Y-99661431D01*
X138505134Y-99630110D01*
X138527661Y-99602661D01*
X138555110Y-99580134D01*
X138586431Y-99563393D01*
X138620409Y-99553085D01*
X138661890Y-99549000D01*
X139338110Y-99549000D01*
X139379591Y-99553085D01*
G37*
G36*
X145379591Y-99553085D02*
G01*
X145413569Y-99563393D01*
X145444890Y-99580134D01*
X145472339Y-99602661D01*
X145494866Y-99630110D01*
X145511607Y-99661431D01*
X145521915Y-99695409D01*
X145526000Y-99736890D01*
X145526000Y-100338110D01*
X145521915Y-100379591D01*
X145511607Y-100413569D01*
X145494866Y-100444890D01*
X145472339Y-100472339D01*
X145444890Y-100494866D01*
X145413569Y-100511607D01*
X145379591Y-100521915D01*
X145338110Y-100526000D01*
X144661890Y-100526000D01*
X144620409Y-100521915D01*
X144586431Y-100511607D01*
X144555110Y-100494866D01*
X144527661Y-100472339D01*
X144505134Y-100444890D01*
X144488393Y-100413569D01*
X144478085Y-100379591D01*
X144474000Y-100338110D01*
X144474000Y-99736890D01*
X144478085Y-99695409D01*
X144488393Y-99661431D01*
X144505134Y-99630110D01*
X144527661Y-99602661D01*
X144555110Y-99580134D01*
X144586431Y-99563393D01*
X144620409Y-99553085D01*
X144661890Y-99549000D01*
X145338110Y-99549000D01*
X145379591Y-99553085D01*
G37*
G36*
X143879591Y-99553085D02*
G01*
X143913569Y-99563393D01*
X143944890Y-99580134D01*
X143972339Y-99602661D01*
X143994866Y-99630110D01*
X144011607Y-99661431D01*
X144021915Y-99695409D01*
X144026000Y-99736890D01*
X144026000Y-100338110D01*
X144021915Y-100379591D01*
X144011607Y-100413569D01*
X143994866Y-100444890D01*
X143972339Y-100472339D01*
X143944890Y-100494866D01*
X143913569Y-100511607D01*
X143879591Y-100521915D01*
X143838110Y-100526000D01*
X143161890Y-100526000D01*
X143120409Y-100521915D01*
X143086431Y-100511607D01*
X143055110Y-100494866D01*
X143027661Y-100472339D01*
X143005134Y-100444890D01*
X142988393Y-100413569D01*
X142978085Y-100379591D01*
X142974000Y-100338110D01*
X142974000Y-99736890D01*
X142978085Y-99695409D01*
X142988393Y-99661431D01*
X143005134Y-99630110D01*
X143027661Y-99602661D01*
X143055110Y-99580134D01*
X143086431Y-99563393D01*
X143120409Y-99553085D01*
X143161890Y-99549000D01*
X143838110Y-99549000D01*
X143879591Y-99553085D01*
G37*
G36*
X142379591Y-99553085D02*
G01*
X142413569Y-99563393D01*
X142444890Y-99580134D01*
X142472339Y-99602661D01*
X142494866Y-99630110D01*
X142511607Y-99661431D01*
X142521915Y-99695409D01*
X142526000Y-99736890D01*
X142526000Y-100338110D01*
X142521915Y-100379591D01*
X142511607Y-100413569D01*
X142494866Y-100444890D01*
X142472339Y-100472339D01*
X142444890Y-100494866D01*
X142413569Y-100511607D01*
X142379591Y-100521915D01*
X142338110Y-100526000D01*
X141661890Y-100526000D01*
X141620409Y-100521915D01*
X141586431Y-100511607D01*
X141555110Y-100494866D01*
X141527661Y-100472339D01*
X141505134Y-100444890D01*
X141488393Y-100413569D01*
X141478085Y-100379591D01*
X141474000Y-100338110D01*
X141474000Y-99736890D01*
X141478085Y-99695409D01*
X141488393Y-99661431D01*
X141505134Y-99630110D01*
X141527661Y-99602661D01*
X141555110Y-99580134D01*
X141586431Y-99563393D01*
X141620409Y-99553085D01*
X141661890Y-99549000D01*
X142338110Y-99549000D01*
X142379591Y-99553085D01*
G37*
G36*
X140879591Y-99553085D02*
G01*
X140913569Y-99563393D01*
X140944890Y-99580134D01*
X140972339Y-99602661D01*
X140994866Y-99630110D01*
X141011607Y-99661431D01*
X141021915Y-99695409D01*
X141026000Y-99736890D01*
X141026000Y-100338110D01*
X141021915Y-100379591D01*
X141011607Y-100413569D01*
X140994866Y-100444890D01*
X140972339Y-100472339D01*
X140944890Y-100494866D01*
X140913569Y-100511607D01*
X140879591Y-100521915D01*
X140838110Y-100526000D01*
X140161890Y-100526000D01*
X140120409Y-100521915D01*
X140086431Y-100511607D01*
X140055110Y-100494866D01*
X140027661Y-100472339D01*
X140005134Y-100444890D01*
X139988393Y-100413569D01*
X139978085Y-100379591D01*
X139974000Y-100338110D01*
X139974000Y-99736890D01*
X139978085Y-99695409D01*
X139988393Y-99661431D01*
X140005134Y-99630110D01*
X140027661Y-99602661D01*
X140055110Y-99580134D01*
X140086431Y-99563393D01*
X140120409Y-99553085D01*
X140161890Y-99549000D01*
X140838110Y-99549000D01*
X140879591Y-99553085D01*
G37*
G36*
X137879591Y-99553085D02*
G01*
X137913569Y-99563393D01*
X137944890Y-99580134D01*
X137972339Y-99602661D01*
X137994866Y-99630110D01*
X138011607Y-99661431D01*
X138021915Y-99695409D01*
X138026000Y-99736890D01*
X138026000Y-100338110D01*
X138021915Y-100379591D01*
X138011607Y-100413569D01*
X137994866Y-100444890D01*
X137972339Y-100472339D01*
X137944890Y-100494866D01*
X137913569Y-100511607D01*
X137879591Y-100521915D01*
X137838110Y-100526000D01*
X137161890Y-100526000D01*
X137120409Y-100521915D01*
X137086431Y-100511607D01*
X137055110Y-100494866D01*
X137027661Y-100472339D01*
X137005134Y-100444890D01*
X136988393Y-100413569D01*
X136978085Y-100379591D01*
X136974000Y-100338110D01*
X136974000Y-99736890D01*
X136978085Y-99695409D01*
X136988393Y-99661431D01*
X137005134Y-99630110D01*
X137027661Y-99602661D01*
X137055110Y-99580134D01*
X137086431Y-99563393D01*
X137120409Y-99553085D01*
X137161890Y-99549000D01*
X137838110Y-99549000D01*
X137879591Y-99553085D01*
G37*
G36*
X136379591Y-99553085D02*
G01*
X136413569Y-99563393D01*
X136444890Y-99580134D01*
X136472339Y-99602661D01*
X136494866Y-99630110D01*
X136511607Y-99661431D01*
X136521915Y-99695409D01*
X136526000Y-99736890D01*
X136526000Y-100338110D01*
X136521915Y-100379591D01*
X136511607Y-100413569D01*
X136494866Y-100444890D01*
X136472339Y-100472339D01*
X136444890Y-100494866D01*
X136413569Y-100511607D01*
X136379591Y-100521915D01*
X136338110Y-100526000D01*
X135661890Y-100526000D01*
X135620409Y-100521915D01*
X135586431Y-100511607D01*
X135555110Y-100494866D01*
X135527661Y-100472339D01*
X135505134Y-100444890D01*
X135488393Y-100413569D01*
X135478085Y-100379591D01*
X135474000Y-100338110D01*
X135474000Y-99736890D01*
X135478085Y-99695409D01*
X135488393Y-99661431D01*
X135505134Y-99630110D01*
X135527661Y-99602661D01*
X135555110Y-99580134D01*
X135586431Y-99563393D01*
X135620409Y-99553085D01*
X135661890Y-99549000D01*
X136338110Y-99549000D01*
X136379591Y-99553085D01*
G37*
G36*
X124421934Y-97202671D02*
G01*
X124451877Y-97211754D01*
X124479465Y-97226500D01*
X124503651Y-97246349D01*
X124523500Y-97270535D01*
X124538246Y-97298123D01*
X124547329Y-97328066D01*
X124551000Y-97365340D01*
X124551000Y-99634660D01*
X124547329Y-99671934D01*
X124538246Y-99701877D01*
X124523500Y-99729465D01*
X124503651Y-99753651D01*
X124479465Y-99773500D01*
X124451877Y-99788246D01*
X124421934Y-99797329D01*
X124384660Y-99801000D01*
X120215340Y-99801000D01*
X120178066Y-99797329D01*
X120148123Y-99788246D01*
X120120535Y-99773500D01*
X120096349Y-99753651D01*
X120076500Y-99729465D01*
X120061754Y-99701877D01*
X120052671Y-99671934D01*
X120049000Y-99634660D01*
X120049000Y-97365340D01*
X120052671Y-97328066D01*
X120061754Y-97298123D01*
X120076500Y-97270535D01*
X120096349Y-97246349D01*
X120120535Y-97226500D01*
X120148123Y-97211754D01*
X120178066Y-97202671D01*
X120215340Y-97199000D01*
X124384660Y-97199000D01*
X124421934Y-97202671D01*
G37*
G36*
X131821934Y-97202671D02*
G01*
X131851877Y-97211754D01*
X131879465Y-97226500D01*
X131903651Y-97246349D01*
X131923500Y-97270535D01*
X131938246Y-97298123D01*
X131947329Y-97328066D01*
X131951000Y-97365340D01*
X131951000Y-99634660D01*
X131947329Y-99671934D01*
X131938246Y-99701877D01*
X131923500Y-99729465D01*
X131903651Y-99753651D01*
X131879465Y-99773500D01*
X131851877Y-99788246D01*
X131821934Y-99797329D01*
X131784660Y-99801000D01*
X127615340Y-99801000D01*
X127578066Y-99797329D01*
X127548123Y-99788246D01*
X127520535Y-99773500D01*
X127496349Y-99753651D01*
X127476500Y-99729465D01*
X127461754Y-99701877D01*
X127452671Y-99671934D01*
X127449000Y-99634660D01*
X127449000Y-97365340D01*
X127452671Y-97328066D01*
X127461754Y-97298123D01*
X127476500Y-97270535D01*
X127496349Y-97246349D01*
X127520535Y-97226500D01*
X127548123Y-97211754D01*
X127578066Y-97202671D01*
X127615340Y-97199000D01*
X131784660Y-97199000D01*
X131821934Y-97202671D01*
G37*
G36*
X134768604Y-98428347D02*
G01*
X134805144Y-98439432D01*
X134838821Y-98457433D01*
X134868341Y-98481659D01*
X134892567Y-98511179D01*
X134910568Y-98544856D01*
X134921653Y-98581396D01*
X134926000Y-98625538D01*
X134926000Y-99574462D01*
X134921653Y-99618604D01*
X134910568Y-99655144D01*
X134892567Y-99688821D01*
X134868341Y-99718341D01*
X134838821Y-99742567D01*
X134805144Y-99760568D01*
X134768604Y-99771653D01*
X134724462Y-99776000D01*
X133275538Y-99776000D01*
X133231396Y-99771653D01*
X133194856Y-99760568D01*
X133161179Y-99742567D01*
X133131659Y-99718341D01*
X133107433Y-99688821D01*
X133089432Y-99655144D01*
X133078347Y-99618604D01*
X133074000Y-99574462D01*
X133074000Y-98625538D01*
X133078347Y-98581396D01*
X133089432Y-98544856D01*
X133107433Y-98511179D01*
X133131659Y-98481659D01*
X133161179Y-98457433D01*
X133194856Y-98439432D01*
X133231396Y-98428347D01*
X133275538Y-98424000D01*
X134724462Y-98424000D01*
X134768604Y-98428347D01*
G37*
G36*
X160259928Y-99051764D02*
G01*
X160281009Y-99058160D01*
X160300445Y-99068548D01*
X160317476Y-99082524D01*
X160331452Y-99099555D01*
X160341840Y-99118991D01*
X160348236Y-99140072D01*
X160351000Y-99168140D01*
X160351000Y-99631860D01*
X160348236Y-99659928D01*
X160341840Y-99681009D01*
X160331452Y-99700445D01*
X160317476Y-99717476D01*
X160300445Y-99731452D01*
X160281009Y-99741840D01*
X160259928Y-99748236D01*
X160231860Y-99751000D01*
X158668140Y-99751000D01*
X158640072Y-99748236D01*
X158618991Y-99741840D01*
X158599555Y-99731452D01*
X158582524Y-99717476D01*
X158568548Y-99700445D01*
X158558160Y-99681009D01*
X158551764Y-99659928D01*
X158549000Y-99631860D01*
X158549000Y-99168140D01*
X158551764Y-99140072D01*
X158558160Y-99118991D01*
X158568548Y-99099555D01*
X158582524Y-99082524D01*
X158599555Y-99068548D01*
X158618991Y-99058160D01*
X158640072Y-99051764D01*
X158668140Y-99049000D01*
X160231860Y-99049000D01*
X160259928Y-99051764D01*
G37*
G36*
X110302585Y-96478802D02*
G01*
X110452410Y-96508604D01*
X110734674Y-96625521D01*
X110988705Y-96795259D01*
X111204741Y-97011295D01*
X111374479Y-97265326D01*
X111467290Y-97489393D01*
X111491396Y-97547591D01*
X111541405Y-97799000D01*
X111551000Y-97847240D01*
X111551000Y-98152760D01*
X111491396Y-98452410D01*
X111374479Y-98734674D01*
X111204741Y-98988705D01*
X110988705Y-99204741D01*
X110734674Y-99374479D01*
X110452410Y-99491396D01*
X110302585Y-99521198D01*
X110152761Y-99551000D01*
X109847239Y-99551000D01*
X109697415Y-99521198D01*
X109547590Y-99491396D01*
X109265326Y-99374479D01*
X109011295Y-99204741D01*
X108795259Y-98988705D01*
X108625521Y-98734674D01*
X108508604Y-98452410D01*
X108449000Y-98152760D01*
X108449000Y-97847240D01*
X108458596Y-97799000D01*
X108508604Y-97547591D01*
X108532710Y-97489393D01*
X108625521Y-97265326D01*
X108795259Y-97011295D01*
X109011295Y-96795259D01*
X109265326Y-96625521D01*
X109547590Y-96508604D01*
X109697415Y-96478802D01*
X109847239Y-96449000D01*
X110152761Y-96449000D01*
X110302585Y-96478802D01*
G37*
G36*
X145379591Y-97978085D02*
G01*
X145413569Y-97988393D01*
X145444890Y-98005134D01*
X145472339Y-98027661D01*
X145494866Y-98055110D01*
X145511607Y-98086431D01*
X145521915Y-98120409D01*
X145526000Y-98161890D01*
X145526000Y-98763110D01*
X145521915Y-98804591D01*
X145511607Y-98838569D01*
X145494866Y-98869890D01*
X145472339Y-98897339D01*
X145444890Y-98919866D01*
X145413569Y-98936607D01*
X145379591Y-98946915D01*
X145338110Y-98951000D01*
X144661890Y-98951000D01*
X144620409Y-98946915D01*
X144586431Y-98936607D01*
X144555110Y-98919866D01*
X144527661Y-98897339D01*
X144505134Y-98869890D01*
X144488393Y-98838569D01*
X144478085Y-98804591D01*
X144474000Y-98763110D01*
X144474000Y-98161890D01*
X144478085Y-98120409D01*
X144488393Y-98086431D01*
X144505134Y-98055110D01*
X144527661Y-98027661D01*
X144555110Y-98005134D01*
X144586431Y-97988393D01*
X144620409Y-97978085D01*
X144661890Y-97974000D01*
X145338110Y-97974000D01*
X145379591Y-97978085D01*
G37*
G36*
X136379591Y-97978085D02*
G01*
X136413569Y-97988393D01*
X136444890Y-98005134D01*
X136472339Y-98027661D01*
X136494866Y-98055110D01*
X136511607Y-98086431D01*
X136521915Y-98120409D01*
X136526000Y-98161890D01*
X136526000Y-98763110D01*
X136521915Y-98804591D01*
X136511607Y-98838569D01*
X136494866Y-98869890D01*
X136472339Y-98897339D01*
X136444890Y-98919866D01*
X136413569Y-98936607D01*
X136379591Y-98946915D01*
X136338110Y-98951000D01*
X135661890Y-98951000D01*
X135620409Y-98946915D01*
X135586431Y-98936607D01*
X135555110Y-98919866D01*
X135527661Y-98897339D01*
X135505134Y-98869890D01*
X135488393Y-98838569D01*
X135478085Y-98804591D01*
X135474000Y-98763110D01*
X135474000Y-98161890D01*
X135478085Y-98120409D01*
X135488393Y-98086431D01*
X135505134Y-98055110D01*
X135527661Y-98027661D01*
X135555110Y-98005134D01*
X135586431Y-97988393D01*
X135620409Y-97978085D01*
X135661890Y-97974000D01*
X136338110Y-97974000D01*
X136379591Y-97978085D01*
G37*
G36*
X137879591Y-97978085D02*
G01*
X137913569Y-97988393D01*
X137944890Y-98005134D01*
X137972339Y-98027661D01*
X137994866Y-98055110D01*
X138011607Y-98086431D01*
X138021915Y-98120409D01*
X138026000Y-98161890D01*
X138026000Y-98763110D01*
X138021915Y-98804591D01*
X138011607Y-98838569D01*
X137994866Y-98869890D01*
X137972339Y-98897339D01*
X137944890Y-98919866D01*
X137913569Y-98936607D01*
X137879591Y-98946915D01*
X137838110Y-98951000D01*
X137161890Y-98951000D01*
X137120409Y-98946915D01*
X137086431Y-98936607D01*
X137055110Y-98919866D01*
X137027661Y-98897339D01*
X137005134Y-98869890D01*
X136988393Y-98838569D01*
X136978085Y-98804591D01*
X136974000Y-98763110D01*
X136974000Y-98161890D01*
X136978085Y-98120409D01*
X136988393Y-98086431D01*
X137005134Y-98055110D01*
X137027661Y-98027661D01*
X137055110Y-98005134D01*
X137086431Y-97988393D01*
X137120409Y-97978085D01*
X137161890Y-97974000D01*
X137838110Y-97974000D01*
X137879591Y-97978085D01*
G37*
G36*
X139379591Y-97978085D02*
G01*
X139413569Y-97988393D01*
X139444890Y-98005134D01*
X139472339Y-98027661D01*
X139494866Y-98055110D01*
X139511607Y-98086431D01*
X139521915Y-98120409D01*
X139526000Y-98161890D01*
X139526000Y-98763110D01*
X139521915Y-98804591D01*
X139511607Y-98838569D01*
X139494866Y-98869890D01*
X139472339Y-98897339D01*
X139444890Y-98919866D01*
X139413569Y-98936607D01*
X139379591Y-98946915D01*
X139338110Y-98951000D01*
X138661890Y-98951000D01*
X138620409Y-98946915D01*
X138586431Y-98936607D01*
X138555110Y-98919866D01*
X138527661Y-98897339D01*
X138505134Y-98869890D01*
X138488393Y-98838569D01*
X138478085Y-98804591D01*
X138474000Y-98763110D01*
X138474000Y-98161890D01*
X138478085Y-98120409D01*
X138488393Y-98086431D01*
X138505134Y-98055110D01*
X138527661Y-98027661D01*
X138555110Y-98005134D01*
X138586431Y-97988393D01*
X138620409Y-97978085D01*
X138661890Y-97974000D01*
X139338110Y-97974000D01*
X139379591Y-97978085D01*
G37*
G36*
X142379591Y-97978085D02*
G01*
X142413569Y-97988393D01*
X142444890Y-98005134D01*
X142472339Y-98027661D01*
X142494866Y-98055110D01*
X142511607Y-98086431D01*
X142521915Y-98120409D01*
X142526000Y-98161890D01*
X142526000Y-98763110D01*
X142521915Y-98804591D01*
X142511607Y-98838569D01*
X142494866Y-98869890D01*
X142472339Y-98897339D01*
X142444890Y-98919866D01*
X142413569Y-98936607D01*
X142379591Y-98946915D01*
X142338110Y-98951000D01*
X141661890Y-98951000D01*
X141620409Y-98946915D01*
X141586431Y-98936607D01*
X141555110Y-98919866D01*
X141527661Y-98897339D01*
X141505134Y-98869890D01*
X141488393Y-98838569D01*
X141478085Y-98804591D01*
X141474000Y-98763110D01*
X141474000Y-98161890D01*
X141478085Y-98120409D01*
X141488393Y-98086431D01*
X141505134Y-98055110D01*
X141527661Y-98027661D01*
X141555110Y-98005134D01*
X141586431Y-97988393D01*
X141620409Y-97978085D01*
X141661890Y-97974000D01*
X142338110Y-97974000D01*
X142379591Y-97978085D01*
G37*
G36*
X143879591Y-97978085D02*
G01*
X143913569Y-97988393D01*
X143944890Y-98005134D01*
X143972339Y-98027661D01*
X143994866Y-98055110D01*
X144011607Y-98086431D01*
X144021915Y-98120409D01*
X144026000Y-98161890D01*
X144026000Y-98763110D01*
X144021915Y-98804591D01*
X144011607Y-98838569D01*
X143994866Y-98869890D01*
X143972339Y-98897339D01*
X143944890Y-98919866D01*
X143913569Y-98936607D01*
X143879591Y-98946915D01*
X143838110Y-98951000D01*
X143161890Y-98951000D01*
X143120409Y-98946915D01*
X143086431Y-98936607D01*
X143055110Y-98919866D01*
X143027661Y-98897339D01*
X143005134Y-98869890D01*
X142988393Y-98838569D01*
X142978085Y-98804591D01*
X142974000Y-98763110D01*
X142974000Y-98161890D01*
X142978085Y-98120409D01*
X142988393Y-98086431D01*
X143005134Y-98055110D01*
X143027661Y-98027661D01*
X143055110Y-98005134D01*
X143086431Y-97988393D01*
X143120409Y-97978085D01*
X143161890Y-97974000D01*
X143838110Y-97974000D01*
X143879591Y-97978085D01*
G37*
G36*
X140879591Y-97978085D02*
G01*
X140913569Y-97988393D01*
X140944890Y-98005134D01*
X140972339Y-98027661D01*
X140994866Y-98055110D01*
X141011607Y-98086431D01*
X141021915Y-98120409D01*
X141026000Y-98161890D01*
X141026000Y-98763110D01*
X141021915Y-98804591D01*
X141011607Y-98838569D01*
X140994866Y-98869890D01*
X140972339Y-98897339D01*
X140944890Y-98919866D01*
X140913569Y-98936607D01*
X140879591Y-98946915D01*
X140838110Y-98951000D01*
X140161890Y-98951000D01*
X140120409Y-98946915D01*
X140086431Y-98936607D01*
X140055110Y-98919866D01*
X140027661Y-98897339D01*
X140005134Y-98869890D01*
X139988393Y-98838569D01*
X139978085Y-98804591D01*
X139974000Y-98763110D01*
X139974000Y-98161890D01*
X139978085Y-98120409D01*
X139988393Y-98086431D01*
X140005134Y-98055110D01*
X140027661Y-98027661D01*
X140055110Y-98005134D01*
X140086431Y-97988393D01*
X140120409Y-97978085D01*
X140161890Y-97974000D01*
X140838110Y-97974000D01*
X140879591Y-97978085D01*
G37*
G36*
X117553642Y-97229781D02*
G01*
X117677208Y-97280964D01*
X117699416Y-97290163D01*
X117830608Y-97377822D01*
X117942178Y-97489392D01*
X118029837Y-97620584D01*
X118029838Y-97620586D01*
X118090219Y-97766358D01*
X118121000Y-97921107D01*
X118121000Y-98078893D01*
X118090219Y-98233642D01*
X118052170Y-98325500D01*
X118029837Y-98379416D01*
X117942178Y-98510608D01*
X117830608Y-98622178D01*
X117699416Y-98709837D01*
X117699415Y-98709838D01*
X117699414Y-98709838D01*
X117553642Y-98770219D01*
X117398893Y-98801000D01*
X117241107Y-98801000D01*
X117086358Y-98770219D01*
X116940586Y-98709838D01*
X116940585Y-98709838D01*
X116940584Y-98709837D01*
X116809392Y-98622178D01*
X116697822Y-98510608D01*
X116610163Y-98379416D01*
X116587830Y-98325500D01*
X116549781Y-98233642D01*
X116519000Y-98078893D01*
X116519000Y-97921107D01*
X116549781Y-97766358D01*
X116610162Y-97620586D01*
X116610163Y-97620584D01*
X116697822Y-97489392D01*
X116809392Y-97377822D01*
X116940584Y-97290163D01*
X116962792Y-97280964D01*
X117086358Y-97229781D01*
X117241107Y-97199000D01*
X117398893Y-97199000D01*
X117553642Y-97229781D01*
G37*
G36*
X114973048Y-97203122D02*
G01*
X115007387Y-97213539D01*
X115039036Y-97230456D01*
X115066778Y-97253222D01*
X115089544Y-97280964D01*
X115106461Y-97312613D01*
X115116878Y-97346952D01*
X115121000Y-97388807D01*
X115121000Y-98611193D01*
X115116878Y-98653048D01*
X115106461Y-98687387D01*
X115089544Y-98719036D01*
X115066778Y-98746778D01*
X115039036Y-98769544D01*
X115007387Y-98786461D01*
X114973048Y-98796878D01*
X114931193Y-98801000D01*
X113708807Y-98801000D01*
X113666952Y-98796878D01*
X113632613Y-98786461D01*
X113600964Y-98769544D01*
X113573222Y-98746778D01*
X113550456Y-98719036D01*
X113533539Y-98687387D01*
X113523122Y-98653048D01*
X113519000Y-98611193D01*
X113519000Y-97388807D01*
X113523122Y-97346952D01*
X113533539Y-97312613D01*
X113550456Y-97280964D01*
X113573222Y-97253222D01*
X113600964Y-97230456D01*
X113632613Y-97213539D01*
X113666952Y-97203122D01*
X113708807Y-97199000D01*
X114931193Y-97199000D01*
X114973048Y-97203122D01*
G37*
G36*
X160259928Y-97801764D02*
G01*
X160281009Y-97808160D01*
X160300445Y-97818548D01*
X160317476Y-97832524D01*
X160331452Y-97849555D01*
X160341840Y-97868991D01*
X160348236Y-97890072D01*
X160351000Y-97918140D01*
X160351000Y-98381860D01*
X160348236Y-98409928D01*
X160341840Y-98431009D01*
X160331452Y-98450445D01*
X160317476Y-98467476D01*
X160300445Y-98481452D01*
X160281009Y-98491840D01*
X160259928Y-98498236D01*
X160231860Y-98501000D01*
X158668140Y-98501000D01*
X158640072Y-98498236D01*
X158618991Y-98491840D01*
X158599555Y-98481452D01*
X158582524Y-98467476D01*
X158568548Y-98450445D01*
X158558160Y-98431009D01*
X158551764Y-98409928D01*
X158549000Y-98381860D01*
X158549000Y-97918140D01*
X158551764Y-97890072D01*
X158558160Y-97868991D01*
X158568548Y-97849555D01*
X158582524Y-97832524D01*
X158599555Y-97818548D01*
X158618991Y-97808160D01*
X158640072Y-97801764D01*
X158668140Y-97799000D01*
X160231860Y-97799000D01*
X160259928Y-97801764D01*
G37*
G36*
X149151000Y-97551000D02*
G01*
X148309000Y-97551000D01*
X148309000Y-95049000D01*
X149151000Y-95049000D01*
X149151000Y-97551000D01*
G37*
G36*
X151691000Y-97551000D02*
G01*
X150849000Y-97551000D01*
X150849000Y-95049000D01*
X151691000Y-95049000D01*
X151691000Y-97551000D01*
G37*
G36*
X152961000Y-97551000D02*
G01*
X152119000Y-97551000D01*
X152119000Y-95049000D01*
X152961000Y-95049000D01*
X152961000Y-97551000D01*
G37*
G36*
X147881000Y-97551000D02*
G01*
X147039000Y-97551000D01*
X147039000Y-95049000D01*
X147881000Y-95049000D01*
X147881000Y-97551000D01*
G37*
G36*
X150421000Y-97551000D02*
G01*
X149579000Y-97551000D01*
X149579000Y-95049000D01*
X150421000Y-95049000D01*
X150421000Y-97551000D01*
G37*
G36*
X160259928Y-96551764D02*
G01*
X160281009Y-96558160D01*
X160300445Y-96568548D01*
X160317476Y-96582524D01*
X160331452Y-96599555D01*
X160341840Y-96618991D01*
X160348236Y-96640072D01*
X160351000Y-96668140D01*
X160351000Y-97131860D01*
X160348236Y-97159928D01*
X160341840Y-97181009D01*
X160331452Y-97200445D01*
X160317476Y-97217476D01*
X160300445Y-97231452D01*
X160281009Y-97241840D01*
X160259928Y-97248236D01*
X160231860Y-97251000D01*
X158668140Y-97251000D01*
X158640072Y-97248236D01*
X158618991Y-97241840D01*
X158599555Y-97231452D01*
X158582524Y-97217476D01*
X158568548Y-97200445D01*
X158558160Y-97181009D01*
X158551764Y-97159928D01*
X158549000Y-97131860D01*
X158549000Y-96668140D01*
X158551764Y-96640072D01*
X158558160Y-96618991D01*
X158568548Y-96599555D01*
X158582524Y-96582524D01*
X158599555Y-96568548D01*
X158618991Y-96558160D01*
X158640072Y-96551764D01*
X158668140Y-96549000D01*
X160231860Y-96549000D01*
X160259928Y-96551764D01*
G37*
G36*
X141304591Y-95978085D02*
G01*
X141338569Y-95988393D01*
X141369890Y-96005134D01*
X141397339Y-96027661D01*
X141419866Y-96055110D01*
X141436607Y-96086431D01*
X141446915Y-96120409D01*
X141451000Y-96161890D01*
X141451000Y-96838110D01*
X141446915Y-96879591D01*
X141436607Y-96913569D01*
X141419866Y-96944890D01*
X141397339Y-96972339D01*
X141369890Y-96994866D01*
X141338569Y-97011607D01*
X141304591Y-97021915D01*
X141263110Y-97026000D01*
X140661890Y-97026000D01*
X140620409Y-97021915D01*
X140586431Y-97011607D01*
X140555110Y-96994866D01*
X140527661Y-96972339D01*
X140505134Y-96944890D01*
X140488393Y-96913569D01*
X140478085Y-96879591D01*
X140474000Y-96838110D01*
X140474000Y-96161890D01*
X140478085Y-96120409D01*
X140488393Y-96086431D01*
X140505134Y-96055110D01*
X140527661Y-96027661D01*
X140555110Y-96005134D01*
X140586431Y-95988393D01*
X140620409Y-95978085D01*
X140661890Y-95974000D01*
X141263110Y-95974000D01*
X141304591Y-95978085D01*
G37*
G36*
X144379591Y-96053085D02*
G01*
X144413569Y-96063393D01*
X144444890Y-96080134D01*
X144472339Y-96102661D01*
X144494866Y-96130110D01*
X144511607Y-96161431D01*
X144521915Y-96195409D01*
X144526000Y-96236890D01*
X144526000Y-96838110D01*
X144521915Y-96879591D01*
X144511607Y-96913569D01*
X144494866Y-96944890D01*
X144472339Y-96972339D01*
X144444890Y-96994866D01*
X144413569Y-97011607D01*
X144379591Y-97021915D01*
X144338110Y-97026000D01*
X143661890Y-97026000D01*
X143620409Y-97021915D01*
X143586431Y-97011607D01*
X143555110Y-96994866D01*
X143527661Y-96972339D01*
X143505134Y-96944890D01*
X143488393Y-96913569D01*
X143478085Y-96879591D01*
X143474000Y-96838110D01*
X143474000Y-96236890D01*
X143478085Y-96195409D01*
X143488393Y-96161431D01*
X143505134Y-96130110D01*
X143527661Y-96102661D01*
X143555110Y-96080134D01*
X143586431Y-96063393D01*
X143620409Y-96053085D01*
X143661890Y-96049000D01*
X144338110Y-96049000D01*
X144379591Y-96053085D01*
G37*
G36*
X142879591Y-95978085D02*
G01*
X142913569Y-95988393D01*
X142944890Y-96005134D01*
X142972339Y-96027661D01*
X142994866Y-96055110D01*
X143011607Y-96086431D01*
X143021915Y-96120409D01*
X143026000Y-96161890D01*
X143026000Y-96838110D01*
X143021915Y-96879591D01*
X143011607Y-96913569D01*
X142994866Y-96944890D01*
X142972339Y-96972339D01*
X142944890Y-96994866D01*
X142913569Y-97011607D01*
X142879591Y-97021915D01*
X142838110Y-97026000D01*
X142236890Y-97026000D01*
X142195409Y-97021915D01*
X142161431Y-97011607D01*
X142130110Y-96994866D01*
X142102661Y-96972339D01*
X142080134Y-96944890D01*
X142063393Y-96913569D01*
X142053085Y-96879591D01*
X142049000Y-96838110D01*
X142049000Y-96161890D01*
X142053085Y-96120409D01*
X142063393Y-96086431D01*
X142080134Y-96055110D01*
X142102661Y-96027661D01*
X142130110Y-96005134D01*
X142161431Y-95988393D01*
X142195409Y-95978085D01*
X142236890Y-95974000D01*
X142838110Y-95974000D01*
X142879591Y-95978085D01*
G37*
G36*
X145879591Y-96053085D02*
G01*
X145913569Y-96063393D01*
X145944890Y-96080134D01*
X145972339Y-96102661D01*
X145994866Y-96130110D01*
X146011607Y-96161431D01*
X146021915Y-96195409D01*
X146026000Y-96236890D01*
X146026000Y-96838110D01*
X146021915Y-96879591D01*
X146011607Y-96913569D01*
X145994866Y-96944890D01*
X145972339Y-96972339D01*
X145944890Y-96994866D01*
X145913569Y-97011607D01*
X145879591Y-97021915D01*
X145838110Y-97026000D01*
X145161890Y-97026000D01*
X145120409Y-97021915D01*
X145086431Y-97011607D01*
X145055110Y-96994866D01*
X145027661Y-96972339D01*
X145005134Y-96944890D01*
X144988393Y-96913569D01*
X144978085Y-96879591D01*
X144974000Y-96838110D01*
X144974000Y-96236890D01*
X144978085Y-96195409D01*
X144988393Y-96161431D01*
X145005134Y-96130110D01*
X145027661Y-96102661D01*
X145055110Y-96080134D01*
X145086431Y-96063393D01*
X145120409Y-96053085D01*
X145161890Y-96049000D01*
X145838110Y-96049000D01*
X145879591Y-96053085D01*
G37*
G36*
X139801000Y-96851000D02*
G01*
X137199000Y-96851000D01*
X137199000Y-94949000D01*
X139801000Y-94949000D01*
X139801000Y-96851000D01*
G37*
G36*
X135801000Y-96851000D02*
G01*
X133199000Y-96851000D01*
X133199000Y-94949000D01*
X135801000Y-94949000D01*
X135801000Y-96851000D01*
G37*
G36*
X157379434Y-94503686D02*
G01*
X157419284Y-94515774D01*
X157455999Y-94535399D01*
X157488186Y-94561814D01*
X157514601Y-94594001D01*
X157534226Y-94630716D01*
X157546314Y-94670566D01*
X157551000Y-94718141D01*
X157551000Y-95381859D01*
X157546314Y-95429434D01*
X157534226Y-95469284D01*
X157514601Y-95505999D01*
X157488186Y-95538186D01*
X157455999Y-95564601D01*
X157419284Y-95584226D01*
X157379434Y-95596314D01*
X157331859Y-95601000D01*
X154868141Y-95601000D01*
X154820566Y-95596314D01*
X154780716Y-95584226D01*
X154744001Y-95564601D01*
X154711814Y-95538186D01*
X154685399Y-95505999D01*
X154665774Y-95469284D01*
X154653686Y-95429434D01*
X154649000Y-95381859D01*
X154649000Y-94718141D01*
X154653686Y-94670566D01*
X154665774Y-94630716D01*
X154685399Y-94594001D01*
X154711814Y-94561814D01*
X154744001Y-94535399D01*
X154780716Y-94515774D01*
X154820566Y-94503686D01*
X154868141Y-94499000D01*
X157331859Y-94499000D01*
X157379434Y-94503686D01*
G37*
G36*
X142879591Y-94478085D02*
G01*
X142913569Y-94488393D01*
X142944890Y-94505134D01*
X142972339Y-94527661D01*
X142994866Y-94555110D01*
X143011607Y-94586431D01*
X143021915Y-94620409D01*
X143026000Y-94661890D01*
X143026000Y-95338110D01*
X143021915Y-95379591D01*
X143011607Y-95413569D01*
X142994866Y-95444890D01*
X142972339Y-95472339D01*
X142944890Y-95494866D01*
X142913569Y-95511607D01*
X142879591Y-95521915D01*
X142838110Y-95526000D01*
X142236890Y-95526000D01*
X142195409Y-95521915D01*
X142161431Y-95511607D01*
X142130110Y-95494866D01*
X142102661Y-95472339D01*
X142080134Y-95444890D01*
X142063393Y-95413569D01*
X142053085Y-95379591D01*
X142049000Y-95338110D01*
X142049000Y-94661890D01*
X142053085Y-94620409D01*
X142063393Y-94586431D01*
X142080134Y-94555110D01*
X142102661Y-94527661D01*
X142130110Y-94505134D01*
X142161431Y-94488393D01*
X142195409Y-94478085D01*
X142236890Y-94474000D01*
X142838110Y-94474000D01*
X142879591Y-94478085D01*
G37*
G36*
X141304591Y-94478085D02*
G01*
X141338569Y-94488393D01*
X141369890Y-94505134D01*
X141397339Y-94527661D01*
X141419866Y-94555110D01*
X141436607Y-94586431D01*
X141446915Y-94620409D01*
X141451000Y-94661890D01*
X141451000Y-95338110D01*
X141446915Y-95379591D01*
X141436607Y-95413569D01*
X141419866Y-95444890D01*
X141397339Y-95472339D01*
X141369890Y-95494866D01*
X141338569Y-95511607D01*
X141304591Y-95521915D01*
X141263110Y-95526000D01*
X140661890Y-95526000D01*
X140620409Y-95521915D01*
X140586431Y-95511607D01*
X140555110Y-95494866D01*
X140527661Y-95472339D01*
X140505134Y-95444890D01*
X140488393Y-95413569D01*
X140478085Y-95379591D01*
X140474000Y-95338110D01*
X140474000Y-94661890D01*
X140478085Y-94620409D01*
X140488393Y-94586431D01*
X140505134Y-94555110D01*
X140527661Y-94527661D01*
X140555110Y-94505134D01*
X140586431Y-94488393D01*
X140620409Y-94478085D01*
X140661890Y-94474000D01*
X141263110Y-94474000D01*
X141304591Y-94478085D01*
G37*
G36*
X145879591Y-94478085D02*
G01*
X145913569Y-94488393D01*
X145944890Y-94505134D01*
X145972339Y-94527661D01*
X145994866Y-94555110D01*
X146011607Y-94586431D01*
X146021915Y-94620409D01*
X146026000Y-94661890D01*
X146026000Y-95263110D01*
X146021915Y-95304591D01*
X146011607Y-95338569D01*
X145994866Y-95369890D01*
X145972339Y-95397339D01*
X145944890Y-95419866D01*
X145913569Y-95436607D01*
X145879591Y-95446915D01*
X145838110Y-95451000D01*
X145161890Y-95451000D01*
X145120409Y-95446915D01*
X145086431Y-95436607D01*
X145055110Y-95419866D01*
X145027661Y-95397339D01*
X145005134Y-95369890D01*
X144988393Y-95338569D01*
X144978085Y-95304591D01*
X144974000Y-95263110D01*
X144974000Y-94661890D01*
X144978085Y-94620409D01*
X144988393Y-94586431D01*
X145005134Y-94555110D01*
X145027661Y-94527661D01*
X145055110Y-94505134D01*
X145086431Y-94488393D01*
X145120409Y-94478085D01*
X145161890Y-94474000D01*
X145838110Y-94474000D01*
X145879591Y-94478085D01*
G37*
G36*
X144379591Y-94478085D02*
G01*
X144413569Y-94488393D01*
X144444890Y-94505134D01*
X144472339Y-94527661D01*
X144494866Y-94555110D01*
X144511607Y-94586431D01*
X144521915Y-94620409D01*
X144526000Y-94661890D01*
X144526000Y-95263110D01*
X144521915Y-95304591D01*
X144511607Y-95338569D01*
X144494866Y-95369890D01*
X144472339Y-95397339D01*
X144444890Y-95419866D01*
X144413569Y-95436607D01*
X144379591Y-95446915D01*
X144338110Y-95451000D01*
X143661890Y-95451000D01*
X143620409Y-95446915D01*
X143586431Y-95436607D01*
X143555110Y-95419866D01*
X143527661Y-95397339D01*
X143505134Y-95369890D01*
X143488393Y-95338569D01*
X143478085Y-95304591D01*
X143474000Y-95263110D01*
X143474000Y-94661890D01*
X143478085Y-94620409D01*
X143488393Y-94586431D01*
X143505134Y-94555110D01*
X143527661Y-94527661D01*
X143555110Y-94505134D01*
X143586431Y-94488393D01*
X143620409Y-94478085D01*
X143661890Y-94474000D01*
X144338110Y-94474000D01*
X144379591Y-94478085D01*
G37*
M02*
