M48
; DRILL file {KiCad (5.1.5-0-10_14)} date Saturday, January 04, 2020 at 02:18:10 PM
; FORMAT={-:-/ absolute / metric / decimal}
; #@! TF.CreationDate,2020-01-04T14:18:10-08:00
; #@! TF.GenerationSoftware,Kicad,Pcbnew,(5.1.5-0-10_14)
FMAT,2
METRIC
T1C0.254
T2C0.300
T3C0.400
T4C1.020
T5C3.000
%
G90
G05
T1
X121.75Y-115.5
X122.5Y-115.5
X123.25Y-115.5
X128.0Y-104.604
X128.0Y-105.2
X128.0Y-105.8
X128.0Y-106.4
X128.0Y-109.204
X128.0Y-109.8
X128.0Y-110.4
X128.0Y-111.0
X128.0Y-113.604
X128.0Y-114.2
X128.0Y-114.8
X128.0Y-115.4
X128.6Y-104.604
X128.6Y-105.2
X128.6Y-105.8
X128.6Y-106.4
X128.6Y-109.204
X128.6Y-109.8
X128.6Y-110.4
X128.6Y-111.0
X128.6Y-113.604
X128.6Y-114.2
X128.6Y-114.8
X128.6Y-115.4
X129.2Y-105.8
X129.2Y-106.4
X129.2Y-110.4
X129.2Y-111.0
X129.2Y-114.8
X129.2Y-115.4
X145.385Y-109.729
X146.75Y-101.236
T2
X138.5Y-112.0
X139.25Y-112.25
X140.0Y-112.0
X140.75Y-112.25
X141.75Y-114.25
X142.25Y-112.5
X142.5Y-114.25
X143.1Y-111.5
X148.0Y-98.25
X149.0Y-98.25
X149.0Y-110.5
X150.0Y-98.25
X151.0Y-115.5
X151.75Y-98.75
X154.75Y-111.0
X154.75Y-112.25
X157.25Y-111.0
X160.0Y-110.0
X160.0Y-111.0
X160.0Y-112.0
T3
X121.5Y-101.0
X121.5Y-101.75
X121.75Y-103.5
X121.75Y-104.25
X121.75Y-105.0
X121.75Y-105.75
X121.75Y-106.5
X121.75Y-108.0
X121.75Y-108.75
X121.75Y-109.5
X121.75Y-110.25
X121.75Y-111.0
X121.75Y-112.5
X121.75Y-113.25
X121.75Y-114.0
X121.75Y-114.75
X122.25Y-101.0
X122.25Y-101.75
X122.5Y-103.5
X122.5Y-104.25
X122.5Y-105.0
X122.5Y-105.75
X122.5Y-106.5
X122.5Y-108.0
X122.5Y-108.75
X122.5Y-109.5
X122.5Y-110.25
X122.5Y-111.0
X122.5Y-112.5
X122.5Y-113.25
X122.5Y-114.0
X122.5Y-114.75
X123.0Y-101.0
X123.0Y-101.75
X123.25Y-103.5
X123.25Y-104.25
X123.25Y-105.0
X123.25Y-105.75
X123.25Y-106.5
X123.25Y-108.0
X123.25Y-108.75
X123.25Y-109.5
X123.25Y-110.25
X123.25Y-111.0
X123.25Y-112.5
X123.25Y-113.25
X123.25Y-114.0
X123.25Y-114.75
X123.75Y-101.0
X123.75Y-101.75
X124.5Y-101.0
X124.5Y-101.75
X125.25Y-101.0
X125.25Y-101.75
X126.0Y-101.0
X126.0Y-101.75
X126.25Y-96.25
X126.25Y-97.0
X126.25Y-97.75
X126.25Y-98.5
X126.25Y-99.25
X126.75Y-101.0
X126.75Y-101.75
X127.0Y-96.25
X127.0Y-97.0
X127.0Y-97.75
X127.0Y-98.5
X127.0Y-99.25
X127.5Y-101.0
X127.5Y-101.75
X127.75Y-96.25
X128.25Y-101.0
X128.25Y-101.75
X128.5Y-96.25
X129.0Y-101.0
X129.0Y-101.75
X129.25Y-96.25
X129.75Y-101.0
X129.75Y-101.75
X130.0Y-96.25
X130.5Y-101.0
X130.5Y-101.75
X130.75Y-96.25
X131.25Y-101.0
X131.25Y-101.75
X131.5Y-96.25
X132.0Y-101.0
X132.0Y-101.75
X132.25Y-96.25
X132.5Y-97.75
X132.5Y-98.5
X132.5Y-99.25
X132.75Y-101.0
X132.75Y-101.75
X133.5Y-97.25
X133.5Y-98.0
X134.25Y-97.25
X134.25Y-98.0
X136.5Y-97.25
X136.75Y-99.25
X136.75Y-105.5
X136.75Y-113.5
X137.5Y-113.5
X137.5Y-114.25
X137.75Y-101.25
X138.25Y-99.25
X138.5Y-101.25
X139.0Y-107.9
X139.0Y-108.9
X139.0Y-109.9
X139.25Y-101.25
X139.75Y-102.75
X140.0Y-107.9
X141.0Y-107.9
X141.25Y-99.25
X141.754Y-107.498
X143.0Y-108.9
X143.0Y-109.9
X144.25Y-99.25
X146.0Y-104.0
X146.0Y-106.5
X146.5Y-95.75
X146.5Y-96.75
X147.0Y-112.75
X147.5Y-105.0
X147.75Y-112.0
X151.0Y-111.5
X151.0Y-113.75
X151.398Y-98.046
X151.75Y-110.75
X151.75Y-111.5
X152.5Y-113.75
X154.5Y-113.25
X155.0Y-96.5
X155.0Y-99.25
X155.0Y-100.0
X155.75Y-96.5
X155.75Y-99.25
X155.75Y-100.0
X155.75Y-106.0
X155.75Y-107.0
X155.75Y-108.0
X156.5Y-96.5
X156.5Y-106.0
X156.5Y-107.0
X156.5Y-108.0
X157.25Y-96.5
T4
X114.32Y-106.25
X114.32Y-109.25
X114.32Y-112.25
X114.32Y-98.0
X117.32Y-98.0
T5
X110.0Y-109.25
X110.0Y-98.0
T0
M30
