G04 #@! TF.GenerationSoftware,KiCad,Pcbnew,(5.1.5-0-10_14)*
G04 #@! TF.CreationDate,2020-01-04T14:18:12-08:00*
G04 #@! TF.ProjectId,Grits,47726974-732e-46b6-9963-61645f706362,rev?*
G04 #@! TF.SameCoordinates,Original*
G04 #@! TF.FileFunction,Legend,Bot*
G04 #@! TF.FilePolarity,Positive*
%FSLAX46Y46*%
G04 Gerber Fmt 4.6, Leading zero omitted, Abs format (unit mm)*
G04 Created by KiCad (PCBNEW (5.1.5-0-10_14)) date 2020-01-04 14:18:12*
%MOMM*%
%LPD*%
G04 APERTURE LIST*
%ADD10C,0.150000*%
%ADD11C,1.000000*%
%ADD12C,0.120000*%
G04 APERTURE END LIST*
D10*
X159547619Y-98918928D02*
X160547619Y-98918928D01*
X159547619Y-98490357D02*
X160071428Y-98490357D01*
X160166666Y-98537976D01*
X160214285Y-98633214D01*
X160214285Y-98776071D01*
X160166666Y-98871309D01*
X160119047Y-98918928D01*
X159547619Y-97585595D02*
X160071428Y-97585595D01*
X160166666Y-97633214D01*
X160214285Y-97728452D01*
X160214285Y-97918928D01*
X160166666Y-98014166D01*
X159595238Y-97585595D02*
X159547619Y-97680833D01*
X159547619Y-97918928D01*
X159595238Y-98014166D01*
X159690476Y-98061785D01*
X159785714Y-98061785D01*
X159880952Y-98014166D01*
X159928571Y-97918928D01*
X159928571Y-97680833D01*
X159976190Y-97585595D01*
X159547619Y-97109404D02*
X160547619Y-97109404D01*
X159928571Y-97014166D02*
X159547619Y-96728452D01*
X160214285Y-96728452D02*
X159833333Y-97109404D01*
X159642857Y-96299880D02*
X159595238Y-96252261D01*
X159547619Y-96299880D01*
X159595238Y-96347500D01*
X159642857Y-96299880D01*
X159547619Y-96299880D01*
X159595238Y-95871309D02*
X159547619Y-95776071D01*
X159547619Y-95585595D01*
X159595238Y-95490357D01*
X159690476Y-95442738D01*
X159738095Y-95442738D01*
X159833333Y-95490357D01*
X159880952Y-95585595D01*
X159880952Y-95728452D01*
X159928571Y-95823690D01*
X160023809Y-95871309D01*
X160071428Y-95871309D01*
X160166666Y-95823690D01*
X160214285Y-95728452D01*
X160214285Y-95585595D01*
X160166666Y-95490357D01*
X159547619Y-95014166D02*
X160547619Y-95014166D01*
X159547619Y-94585595D02*
X160071428Y-94585595D01*
X160166666Y-94633214D01*
X160214285Y-94728452D01*
X160214285Y-94871309D01*
X160166666Y-94966547D01*
X160119047Y-95014166D01*
D11*
X120500000Y-112302380D02*
X120690476Y-112683333D01*
X120690476Y-113254761D01*
X120500000Y-113826190D01*
X120119047Y-114207142D01*
X119738095Y-114397619D01*
X118976190Y-114588095D01*
X118404761Y-114588095D01*
X117642857Y-114397619D01*
X117261904Y-114207142D01*
X116880952Y-113826190D01*
X116690476Y-113254761D01*
X116690476Y-112873809D01*
X116880952Y-112302380D01*
X117071428Y-112111904D01*
X118404761Y-112111904D01*
X118404761Y-112873809D01*
X116690476Y-110397619D02*
X119357142Y-110397619D01*
X118595238Y-110397619D02*
X118976190Y-110207142D01*
X119166666Y-110016666D01*
X119357142Y-109635714D01*
X119357142Y-109254761D01*
X116690476Y-107921428D02*
X119357142Y-107921428D01*
X120690476Y-107921428D02*
X120500000Y-108111904D01*
X120309523Y-107921428D01*
X120500000Y-107730952D01*
X120690476Y-107921428D01*
X120309523Y-107921428D01*
X119357142Y-106588095D02*
X119357142Y-105064285D01*
X120690476Y-106016666D02*
X117261904Y-106016666D01*
X116880952Y-105826190D01*
X116690476Y-105445238D01*
X116690476Y-105064285D01*
X116880952Y-103921428D02*
X116690476Y-103540476D01*
X116690476Y-102778571D01*
X116880952Y-102397619D01*
X117261904Y-102207142D01*
X117452380Y-102207142D01*
X117833333Y-102397619D01*
X118023809Y-102778571D01*
X118023809Y-103350000D01*
X118214285Y-103730952D01*
X118595238Y-103921428D01*
X118785714Y-103921428D01*
X119166666Y-103730952D01*
X119357142Y-103350000D01*
X119357142Y-102778571D01*
X119166666Y-102397619D01*
D10*
X152438095Y-112276190D02*
X151790476Y-112276190D01*
X151714285Y-112238095D01*
X151676190Y-112200000D01*
X151638095Y-112123809D01*
X151638095Y-111971428D01*
X151676190Y-111895238D01*
X151714285Y-111857142D01*
X151790476Y-111819047D01*
X152438095Y-111819047D01*
X151866666Y-111476190D02*
X151866666Y-111095238D01*
X151638095Y-111552380D02*
X152438095Y-111285714D01*
X151638095Y-111019047D01*
X151638095Y-110295238D02*
X152019047Y-110561904D01*
X151638095Y-110752380D02*
X152438095Y-110752380D01*
X152438095Y-110447619D01*
X152400000Y-110371428D01*
X152361904Y-110333333D01*
X152285714Y-110295238D01*
X152171428Y-110295238D01*
X152095238Y-110333333D01*
X152057142Y-110371428D01*
X152019047Y-110447619D01*
X152019047Y-110752380D01*
X152438095Y-110066666D02*
X152438095Y-109609523D01*
X151638095Y-109838095D02*
X152438095Y-109838095D01*
X154630952Y-112821428D02*
X153869047Y-112821428D01*
X154630952Y-109071428D02*
X153869047Y-109071428D01*
X154250000Y-109452380D02*
X154250000Y-108690476D01*
X153869047Y-110035714D02*
X154630952Y-110321428D01*
X153869047Y-110607142D01*
X154630952Y-111285714D02*
X153869047Y-111571428D01*
X154630952Y-111857142D01*
X113047619Y-112535714D02*
X112238095Y-112535714D01*
X112142857Y-112488095D01*
X112095238Y-112440476D01*
X112047619Y-112345238D01*
X112047619Y-112154761D01*
X112095238Y-112059523D01*
X112142857Y-112011904D01*
X112238095Y-111964285D01*
X113047619Y-111964285D01*
X113047619Y-109583333D02*
X112047619Y-109250000D01*
X113047619Y-108916666D01*
X113047619Y-106678571D02*
X112047619Y-106440476D01*
X112761904Y-106250000D01*
X112047619Y-106059523D01*
X113047619Y-105821428D01*
X112928571Y-98380952D02*
X112928571Y-97619047D01*
X118821428Y-97619047D02*
X118821428Y-98380952D01*
X119202380Y-98000000D02*
X118440476Y-98000000D01*
D12*
X160310000Y-108035000D02*
X160310000Y-113965000D01*
X156040000Y-115235000D02*
X156040000Y-113435000D01*
X157490000Y-115235000D02*
X156040000Y-115235000D01*
X156040000Y-108565000D02*
X155050000Y-108565000D01*
X156040000Y-106765000D02*
X156040000Y-108565000D01*
X157490000Y-106765000D02*
X156040000Y-106765000D01*
X149700000Y-109750000D02*
G75*
G03X149700000Y-109750000I-700000J0D01*
G01*
M02*
